<?xml version="1.0" encoding="UTF-8" standalone="no"?>
<!DOCTYPE svg PUBLIC "-//W3C//DTD SVG 1.1//EN"
 "http://www.w3.org/Graphics/SVG/1.1/DTD/svg11.dtd">
<!-- Generated by graphviz version 2.39.20160710.1729 (20160710.1729)
 -->
<!-- Title: %3 Pages: 1 -->
<svg width="908pt" height="590pt"
 viewBox="0.00 0.00 908.00 590.29" xmlns="http://www.w3.org/2000/svg" xmlns:xlink="http://www.w3.org/1999/xlink">
<g id="graph0" class="graph" transform="scale(1 1) rotate(0) translate(4 580)">
<title>%3</title>
<polygon fill="white" stroke="transparent" points="-4,10.293 -4,-580 904,-580 904,10.293 -4,10.293"/>
<!-- 4 -->
<g id="node1" class="node">
<title>4</title>
<ellipse fill="black" stroke="black" cx="18" cy="-450" rx="18" ry="18"/>
</g>
<!-- 5 -->
<g id="node2" class="node">
<title>5</title>
<ellipse fill="black" stroke="black" cx="198" cy="-558" rx="18" ry="18"/>
</g>
<!-- 4&#45;&gt;5 -->
<g id="edge1" class="edge">
<title>4&#45;&gt;5</title>
<path fill="none" stroke="black" stroke-width="6" d="M38.298,-462.18C70.253,-481.35 132.41,-518.65 169.05,-540.63"/>
<polygon fill="black" stroke="black" stroke-width="6" points="166.504,-545.225 177.78,-545.87 171.908,-536.222 166.504,-545.225"/>
</g>
<!-- 6 -->
<g id="node3" class="node">
<title>6</title>
<ellipse fill="black" stroke="black" cx="90" cy="-450" rx="18" ry="18"/>
</g>
<!-- 6&#45;&gt;5 -->
<g id="edge2" class="edge">
<title>6&#45;&gt;5</title>
<path fill="none" stroke="black" stroke-width="6" d="M105.02,-465.02C123.29,-483.29 154.32,-514.32 175.46,-535.46"/>
<polygon fill="black" stroke="black" stroke-width="6" points="171.977,-539.401 182.76,-542.76 179.401,-531.977 171.977,-539.401"/>
</g>
<!-- 7 -->
<g id="node4" class="node">
<title>7</title>
<ellipse fill="black" stroke="black" cx="162" cy="-234" rx="18" ry="18"/>
</g>
<!-- 13 -->
<g id="node5" class="node">
<title>13</title>
<ellipse fill="black" stroke="black" cx="234" cy="-342" rx="18" ry="18"/>
</g>
<!-- 7&#45;&gt;13 -->
<g id="edge3" class="edge">
<title>7&#45;&gt;13</title>
<path fill="none" stroke="black" stroke-width="6" d="M173.25,-250.88C185.03,-268.55 203.67,-296.51 217.2,-316.8"/>
<polygon fill="black" stroke="black" stroke-width="6" points="212.913,-319.834 222.83,-325.24 221.648,-314.008 212.913,-319.834"/>
</g>
<!-- 1D -->
<g id="node6" class="node">
<title>1D</title>
<ellipse fill="blue" stroke="blue" cx="594" cy="-234" rx="18" ry="18"/>
</g>
<!-- 7&#45;&gt;1D -->
<g id="edge4" class="edge">
<title>7&#45;&gt;1D</title>
<path fill="none" stroke="red" stroke-width="3" d="M179.653,-230.421C206.728,-225.199 260.199,-215.944 306.135,-214.4 401.717,-211.189 514.84,-223.669 566.179,-230.221"/>
<polygon fill="red" stroke="red" stroke-width="3" points="565.799,-233.701 576.168,-231.522 566.703,-226.76 565.799,-233.701"/>
</g>
<!-- 15 -->
<g id="node7" class="node">
<title>15</title>
<ellipse fill="black" stroke="black" cx="234" cy="-450" rx="18" ry="18"/>
</g>
<!-- 13&#45;&gt;15 -->
<g id="edge5" class="edge">
<title>13&#45;&gt;15</title>
<path fill="none" stroke="black" stroke-width="6" d="M234,-360.32C234,-377.18 234,-402.43 234,-421.85"/>
<polygon fill="black" stroke="black" stroke-width="6" points="228.75,-421.95 234,-431.95 239.25,-421.95 228.75,-421.95"/>
</g>
<!-- B -->
<g id="node8" class="node">
<title>B</title>
<ellipse fill="blue" stroke="blue" cx="666" cy="-342" rx="18" ry="18"/>
</g>
<!-- 13&#45;&gt;B -->
<g id="edge6" class="edge">
<title>13&#45;&gt;B</title>
<path fill="none" stroke="red" stroke-width="3" d="M251.164,-335.657C265.57,-330.742 286.816,-324.436 306.015,-322.4 429.317,-309.322 577.359,-328.222 638.013,-337.44"/>
<polygon fill="red" stroke="red" stroke-width="3" points="637.55,-340.91 647.968,-338.986 638.624,-333.992 637.55,-340.91"/>
</g>
<!-- 1D&#45;&gt;B -->
<g id="edge41" class="edge">
<title>1D&#45;&gt;B</title>
<path fill="none" stroke="blue" stroke-width="6" d="M605.25,-250.88C617.03,-268.55 635.67,-296.51 649.2,-316.8"/>
<polygon fill="blue" stroke="blue" stroke-width="6" points="644.913,-319.834 654.83,-325.24 653.648,-314.008 644.913,-319.834"/>
</g>
<!-- 15&#45;&gt;5 -->
<g id="edge7" class="edge">
<title>15&#45;&gt;5</title>
<path fill="none" stroke="black" stroke-width="6" d="M228.06,-467.83C222.38,-484.87 213.73,-510.81 207.17,-530.49"/>
<polygon fill="black" stroke="black" stroke-width="6" points="202.135,-528.992 203.95,-540.14 212.095,-532.316 202.135,-528.992"/>
</g>
<!-- A -->
<g id="node9" class="node">
<title>A</title>
<ellipse fill="blue" stroke="blue" cx="666" cy="-450" rx="18" ry="18"/>
</g>
<!-- 15&#45;&gt;A -->
<g id="edge8" class="edge">
<title>15&#45;&gt;A</title>
<path fill="none" stroke="red" stroke-width="3" d="M251.206,-443.931C265.639,-439.178 286.907,-432.958 306.053,-430.4 428.942,-413.984 577.188,-434.712 637.954,-444.927"/>
<polygon fill="red" stroke="red" stroke-width="3" points="637.481,-448.397 647.929,-446.643 638.667,-441.499 637.481,-448.397"/>
</g>
<!-- B&#45;&gt;A -->
<g id="edge20" class="edge">
<title>B&#45;&gt;A</title>
<path fill="none" stroke="blue" stroke-width="6" d="M666,-360.32C666,-377.18 666,-402.43 666,-421.85"/>
<polygon fill="blue" stroke="blue" stroke-width="6" points="660.75,-421.95 666,-431.95 671.25,-421.95 660.75,-421.95"/>
</g>
<!-- 8 -->
<g id="node10" class="node">
<title>8</title>
<ellipse fill="black" stroke="black" cx="234" cy="-126" rx="18" ry="18"/>
</g>
<!-- 26 -->
<g id="node11" class="node">
<title>26</title>
<ellipse fill="black" stroke="black" cx="306" cy="-234" rx="18" ry="18"/>
</g>
<!-- 8&#45;&gt;26 -->
<g id="edge9" class="edge">
<title>8&#45;&gt;26</title>
<path fill="none" stroke="black" stroke-width="6" d="M245.25,-142.88C257.03,-160.55 275.67,-188.51 289.2,-208.8"/>
<polygon fill="black" stroke="black" stroke-width="6" points="284.913,-211.834 294.83,-217.24 293.648,-206.008 284.913,-211.834"/>
</g>
<!-- 2H -->
<g id="node12" class="node">
<title>2H</title>
<ellipse fill="blue" stroke="blue" cx="810" cy="-126" rx="18" ry="18"/>
</g>
<!-- 8&#45;&gt;2H -->
<g id="edge10" class="edge">
<title>8&#45;&gt;2H</title>
<path fill="none" stroke="red" stroke-width="3" d="M251.185,-132.069C265.602,-136.822 286.844,-143.042 305.969,-145.6 464.57,-166.81 505.986,-145.6 665.999,-145.6 697.953,-145.6 706.223,-149.828 737.896,-145.6 753.163,-143.562 769.779,-139.198 783.208,-135.104"/>
<polygon fill="red" stroke="red" stroke-width="3" points="784.307,-138.428 792.781,-132.069 782.191,-131.755 784.307,-138.428"/>
</g>
<!-- 26&#45;&gt;13 -->
<g id="edge11" class="edge">
<title>26&#45;&gt;13</title>
<path fill="none" stroke="black" stroke-width="6" d="M294.75,-250.88C282.97,-268.55 264.33,-296.51 250.8,-316.8"/>
<polygon fill="black" stroke="black" stroke-width="6" points="246.352,-314.008 245.17,-325.24 255.087,-319.834 246.352,-314.008"/>
</g>
<!-- C -->
<g id="node13" class="node">
<title>C</title>
<ellipse fill="blue" stroke="blue" cx="738" cy="-234" rx="18" ry="18"/>
</g>
<!-- 26&#45;&gt;C -->
<g id="edge12" class="edge">
<title>26&#45;&gt;C</title>
<path fill="none" stroke="red" stroke-width="3" d="M323.83,-236.478C368.97,-242.475 491.459,-257.036 593.826,-253.599 634.569,-252.231 681.239,-244.799 710.171,-239.492"/>
<polygon fill="red" stroke="red" stroke-width="3" points="711.161,-242.868 720.342,-237.579 709.868,-235.988 711.161,-242.868"/>
</g>
<!-- 2H&#45;&gt;C -->
<g id="edge39" class="edge">
<title>2H&#45;&gt;C</title>
<path fill="none" stroke="blue" stroke-width="6" d="M798.75,-142.88C786.97,-160.55 768.33,-188.51 754.8,-208.8"/>
<polygon fill="blue" stroke="blue" stroke-width="6" points="750.352,-206.008 749.17,-217.24 759.087,-211.834 750.352,-206.008"/>
</g>
<!-- C&#45;&gt;B -->
<g id="edge19" class="edge">
<title>C&#45;&gt;B</title>
<path fill="none" stroke="blue" stroke-width="6" d="M726.75,-250.88C714.97,-268.55 696.33,-296.51 682.8,-316.8"/>
<polygon fill="blue" stroke="blue" stroke-width="6" points="678.352,-314.008 677.17,-325.24 687.087,-319.834 678.352,-314.008"/>
</g>
<!-- 9 -->
<g id="node14" class="node">
<title>9</title>
<ellipse fill="black" stroke="black" cx="306" cy="-18" rx="18" ry="18"/>
</g>
<!-- 27 -->
<g id="node15" class="node">
<title>27</title>
<ellipse fill="black" stroke="black" cx="306" cy="-126" rx="18" ry="18"/>
</g>
<!-- 9&#45;&gt;27 -->
<g id="edge13" class="edge">
<title>9&#45;&gt;27</title>
<path fill="none" stroke="black" stroke-width="6" d="M306,-36.321C306,-53.179 306,-78.435 306,-97.853"/>
<polygon fill="black" stroke="black" stroke-width="6" points="300.75,-97.9499 306,-107.95 311.25,-97.9501 300.75,-97.9499"/>
</g>
<!-- 2E -->
<g id="node16" class="node">
<title>2E</title>
<ellipse fill="blue" stroke="blue" cx="882" cy="-18" rx="18" ry="18"/>
</g>
<!-- 9&#45;&gt;2E -->
<g id="edge14" class="edge">
<title>9&#45;&gt;2E</title>
<path fill="none" stroke="red" stroke-width="3" d="M324.124,-14.7337C351.367,-10.0067 404.543,-1.48713 450.154,1.59939 492.838,4.4878 610.199,10.2641 738.052,1.59993 778.439,-1.13695 824.765,-8.1459 853.708,-12.9945"/>
<polygon fill="red" stroke="red" stroke-width="3" points="853.456,-16.5019 863.902,-14.7336 854.633,-9.60159 853.456,-16.5019"/>
</g>
<!-- 27&#45;&gt;26 -->
<g id="edge15" class="edge">
<title>27&#45;&gt;26</title>
<path fill="none" stroke="black" stroke-width="6" d="M306,-144.32C306,-161.18 306,-186.43 306,-205.85"/>
<polygon fill="black" stroke="black" stroke-width="6" points="300.75,-205.95 306,-215.95 311.25,-205.95 300.75,-205.95"/>
</g>
<!-- 2D -->
<g id="node17" class="node">
<title>2D</title>
<ellipse fill="blue" stroke="blue" cx="882" cy="-126" rx="18" ry="18"/>
</g>
<!-- 27&#45;&gt;2D -->
<g id="edge16" class="edge">
<title>27&#45;&gt;2D</title>
<path fill="none" stroke="red" stroke-width="3" d="M323.234,-119.931C337.69,-115.178 358.992,-108.958 378.166,-106.401 409.852,-102.174 418.124,-106.4 450.091,-106.4 610.055,-106.4 651.458,-85.2014 810.012,-106.4 825.255,-108.438 841.845,-112.802 855.252,-116.896"/>
<polygon fill="red" stroke="red" stroke-width="3" points="854.22,-120.24 864.81,-119.931 856.338,-113.568 854.22,-120.24"/>
</g>
<!-- 2E&#45;&gt;2D -->
<g id="edge44" class="edge">
<title>2E&#45;&gt;2D</title>
<path fill="none" stroke="blue" stroke-width="6" d="M882,-36.321C882,-53.179 882,-78.435 882,-97.853"/>
<polygon fill="blue" stroke="blue" stroke-width="6" points="876.75,-97.9499 882,-107.95 887.25,-97.9501 876.75,-97.9499"/>
</g>
<!-- 2D&#45;&gt;C -->
<g id="edge18" class="edge">
<title>2D&#45;&gt;C</title>
<path fill="none" stroke="blue" stroke-width="6" d="M864.05,-139.46C838.94,-158.3 793.14,-192.64 764.21,-214.34"/>
<polygon fill="blue" stroke="blue" stroke-width="6" points="761.02,-210.17 756.17,-220.37 767.32,-218.57 761.02,-210.17"/>
</g>
<!-- 11 -->
<g id="node18" class="node">
<title>11</title>
<ellipse fill="black" stroke="black" cx="162" cy="-450" rx="18" ry="18"/>
</g>
<!-- 11&#45;&gt;5 -->
<g id="edge17" class="edge">
<title>11&#45;&gt;5</title>
<path fill="none" stroke="black" stroke-width="6" d="M167.94,-467.83C173.62,-484.87 182.27,-510.81 188.83,-530.49"/>
<polygon fill="black" stroke="black" stroke-width="6" points="183.905,-532.316 192.05,-540.14 193.865,-528.992 183.905,-532.316"/>
</g>
<!-- 14 -->
<g id="node19" class="node">
<title>14</title>
<ellipse fill="black" stroke="black" cx="306" cy="-450" rx="18" ry="18"/>
</g>
<!-- 14&#45;&gt;5 -->
<g id="edge21" class="edge">
<title>14&#45;&gt;5</title>
<path fill="none" stroke="black" stroke-width="6" d="M290.98,-465.02C272.71,-483.29 241.68,-514.32 220.54,-535.46"/>
<polygon fill="black" stroke="black" stroke-width="6" points="216.599,-531.977 213.24,-542.76 224.023,-539.401 216.599,-531.977"/>
</g>
<!-- 17 -->
<g id="node20" class="node">
<title>17</title>
<ellipse fill="black" stroke="black" cx="378" cy="-450" rx="18" ry="18"/>
</g>
<!-- 17&#45;&gt;5 -->
<g id="edge22" class="edge">
<title>17&#45;&gt;5</title>
<path fill="none" stroke="black" stroke-width="6" d="M357.7,-462.18C325.75,-481.35 263.59,-518.65 226.95,-540.63"/>
<polygon fill="black" stroke="black" stroke-width="6" points="224.092,-536.222 218.22,-545.87 229.496,-545.225 224.092,-536.222"/>
</g>
<!-- 21 -->
<g id="node21" class="node">
<title>21</title>
<ellipse fill="black" stroke="black" cx="90" cy="-126" rx="18" ry="18"/>
</g>
<!-- 21&#45;&gt;7 -->
<g id="edge23" class="edge">
<title>21&#45;&gt;7</title>
<path fill="none" stroke="black" stroke-width="6" d="M101.25,-142.88C113.03,-160.55 131.67,-188.51 145.2,-208.8"/>
<polygon fill="black" stroke="black" stroke-width="6" points="140.913,-211.834 150.83,-217.24 149.648,-206.008 140.913,-211.834"/>
</g>
<!-- 1G -->
<g id="node22" class="node">
<title>1G</title>
<ellipse fill="blue" stroke="blue" cx="594" cy="-126" rx="18" ry="18"/>
</g>
<!-- 21&#45;&gt;1G -->
<g id="edge24" class="edge">
<title>21&#45;&gt;1G</title>
<path fill="none" stroke="red" stroke-width="3" d="M107.173,-132.069C121.58,-136.822 142.808,-143.042 161.921,-145.6 320.468,-166.817 363.275,-166.747 521.832,-145.599 537.112,-143.561 553.743,-139.198 567.184,-135.104"/>
<polygon fill="red" stroke="red" stroke-width="3" points="568.289,-138.425 576.766,-132.069 566.176,-131.752 568.289,-138.425"/>
</g>
<!-- 1G&#45;&gt;1D -->
<g id="edge43" class="edge">
<title>1G&#45;&gt;1D</title>
<path fill="none" stroke="blue" stroke-width="6" d="M594,-144.32C594,-161.18 594,-186.43 594,-205.85"/>
<polygon fill="blue" stroke="blue" stroke-width="6" points="588.75,-205.95 594,-215.95 599.25,-205.95 588.75,-205.95"/>
</g>
<!-- 22 -->
<g id="node23" class="node">
<title>22</title>
<ellipse fill="black" stroke="black" cx="162" cy="-342" rx="18" ry="18"/>
</g>
<!-- 22&#45;&gt;11 -->
<g id="edge25" class="edge">
<title>22&#45;&gt;11</title>
<path fill="none" stroke="black" stroke-width="6" d="M162,-360.32C162,-377.18 162,-402.43 162,-421.85"/>
<polygon fill="black" stroke="black" stroke-width="6" points="156.75,-421.95 162,-431.95 167.25,-421.95 156.75,-421.95"/>
</g>
<!-- 23 -->
<g id="node24" class="node">
<title>23</title>
<ellipse fill="black" stroke="black" cx="306" cy="-342" rx="18" ry="18"/>
</g>
<!-- 23&#45;&gt;15 -->
<g id="edge26" class="edge">
<title>23&#45;&gt;15</title>
<path fill="none" stroke="black" stroke-width="6" d="M294.75,-358.88C282.97,-376.55 264.33,-404.51 250.8,-424.8"/>
<polygon fill="black" stroke="black" stroke-width="6" points="246.352,-422.008 245.17,-433.24 255.087,-427.834 246.352,-422.008"/>
</g>
<!-- 25 -->
<g id="node25" class="node">
<title>25</title>
<ellipse fill="black" stroke="black" cx="162" cy="-126" rx="18" ry="18"/>
</g>
<!-- 25&#45;&gt;7 -->
<g id="edge27" class="edge">
<title>25&#45;&gt;7</title>
<path fill="none" stroke="black" stroke-width="6" d="M162,-144.32C162,-161.18 162,-186.43 162,-205.85"/>
<polygon fill="black" stroke="black" stroke-width="6" points="156.75,-205.95 162,-215.95 167.25,-205.95 156.75,-205.95"/>
</g>
<!-- 1E -->
<g id="node26" class="node">
<title>1E</title>
<ellipse fill="blue" stroke="blue" cx="522" cy="-126" rx="18" ry="18"/>
</g>
<!-- 25&#45;&gt;1E -->
<g id="edge28" class="edge">
<title>25&#45;&gt;1E</title>
<path fill="none" stroke="red" stroke-width="3" d="M179.174,-132.069C193.582,-136.822 214.811,-143.042 233.925,-145.6 257.873,-148.804 401.961,-152.002 449.909,-145.6 465.174,-143.562 481.787,-139.198 495.213,-135.104"/>
<polygon fill="red" stroke="red" stroke-width="3" points="496.31,-138.428 504.785,-132.069 494.195,-131.756 496.31,-138.428"/>
</g>
<!-- 1E&#45;&gt;1D -->
<g id="edge42" class="edge">
<title>1E&#45;&gt;1D</title>
<path fill="none" stroke="blue" stroke-width="6" d="M533.25,-142.88C545.03,-160.55 563.67,-188.51 577.2,-208.8"/>
<polygon fill="blue" stroke="blue" stroke-width="6" points="572.913,-211.834 582.83,-217.24 581.648,-206.008 572.913,-211.834"/>
</g>
<!-- 28 -->
<g id="node27" class="node">
<title>28</title>
<ellipse fill="black" stroke="black" cx="162" cy="-18" rx="18" ry="18"/>
</g>
<!-- 28&#45;&gt;25 -->
<g id="edge29" class="edge">
<title>28&#45;&gt;25</title>
<path fill="none" stroke="black" stroke-width="6" d="M162,-36.321C162,-53.179 162,-78.435 162,-97.853"/>
<polygon fill="black" stroke="black" stroke-width="6" points="156.75,-97.9499 162,-107.95 167.25,-97.9501 156.75,-97.9499"/>
</g>
<!-- 1H -->
<g id="node28" class="node">
<title>1H</title>
<ellipse fill="blue" stroke="blue" cx="522" cy="-18" rx="18" ry="18"/>
</g>
<!-- 28&#45;&gt;1H -->
<g id="edge30" class="edge">
<title>28&#45;&gt;1H</title>
<path fill="none" stroke="red" stroke-width="3" d="M179.933,-21.7049C225.313,-30.542 348.313,-51.1439 449.846,-37.5994 465.123,-35.5614 481.75,-31.1977 495.189,-27.1041"/>
<polygon fill="red" stroke="red" stroke-width="3" points="496.293,-30.4259 504.769,-24.0693 494.179,-23.7527 496.293,-30.4259"/>
</g>
<!-- 1H&#45;&gt;1E -->
<g id="edge45" class="edge">
<title>1H&#45;&gt;1E</title>
<path fill="none" stroke="blue" stroke-width="6" d="M522,-36.321C522,-53.179 522,-78.435 522,-97.853"/>
<polygon fill="blue" stroke="blue" stroke-width="6" points="516.75,-97.9499 522,-107.95 527.25,-97.9501 516.75,-97.9499"/>
</g>
<!-- 29 -->
<g id="node29" class="node">
<title>29</title>
<ellipse fill="black" stroke="black" cx="378" cy="-126" rx="18" ry="18"/>
</g>
<!-- 29&#45;&gt;26 -->
<g id="edge31" class="edge">
<title>29&#45;&gt;26</title>
<path fill="none" stroke="black" stroke-width="6" d="M366.75,-142.88C354.97,-160.55 336.33,-188.51 322.8,-208.8"/>
<polygon fill="black" stroke="black" stroke-width="6" points="318.352,-206.008 317.17,-217.24 327.087,-211.834 318.352,-206.008"/>
</g>
<!-- 2I -->
<g id="node30" class="node">
<title>2I</title>
<ellipse fill="blue" stroke="blue" cx="666" cy="-126" rx="18" ry="18"/>
</g>
<!-- 29&#45;&gt;2I -->
<g id="edge32" class="edge">
<title>29&#45;&gt;2I</title>
<path fill="none" stroke="red" stroke-width="3" d="M395.171,-132.069C409.575,-136.822 430.8,-143.042 449.909,-145.6 513.32,-154.087 530.441,-154.06 593.854,-145.599 609.13,-143.561 625.755,-139.198 639.193,-135.104"/>
<polygon fill="red" stroke="red" stroke-width="3" points="640.295,-138.426 648.771,-132.069 638.181,-131.753 640.295,-138.426"/>
</g>
<!-- 2I&#45;&gt;C -->
<g id="edge37" class="edge">
<title>2I&#45;&gt;C</title>
<path fill="none" stroke="blue" stroke-width="6" d="M677.25,-142.88C689.03,-160.55 707.67,-188.51 721.2,-208.8"/>
<polygon fill="blue" stroke="blue" stroke-width="6" points="716.913,-211.834 726.83,-217.24 725.648,-206.008 716.913,-211.834"/>
</g>
<!-- 30 -->
<g id="node31" class="node">
<title>30</title>
<ellipse fill="black" stroke="black" cx="450" cy="-126" rx="18" ry="18"/>
</g>
<!-- 30&#45;&gt;26 -->
<g id="edge33" class="edge">
<title>30&#45;&gt;26</title>
<path fill="none" stroke="black" stroke-width="6" d="M432.05,-139.46C406.94,-158.3 361.14,-192.64 332.21,-214.34"/>
<polygon fill="black" stroke="black" stroke-width="6" points="329.02,-210.17 324.17,-220.37 335.32,-218.57 329.02,-210.17"/>
</g>
<!-- F -->
<g id="node32" class="node">
<title>F</title>
<ellipse fill="blue" stroke="blue" cx="738" cy="-126" rx="18" ry="18"/>
</g>
<!-- 30&#45;&gt;F -->
<g id="edge34" class="edge">
<title>30&#45;&gt;F</title>
<path fill="none" stroke="red" stroke-width="3" d="M467.234,-119.931C481.691,-115.178 502.993,-108.958 522.168,-106.401 585.532,-97.9494 602.639,-97.93 666.001,-106.4 681.247,-108.438 697.839,-112.802 711.248,-116.896"/>
<polygon fill="red" stroke="red" stroke-width="3" points="710.217,-120.24 720.807,-119.93 712.335,-113.568 710.217,-120.24"/>
</g>
<!-- F&#45;&gt;C -->
<g id="edge38" class="edge">
<title>F&#45;&gt;C</title>
<path fill="none" stroke="blue" stroke-width="6" d="M738,-144.32C738,-161.18 738,-186.43 738,-205.85"/>
<polygon fill="blue" stroke="blue" stroke-width="6" points="732.75,-205.95 738,-215.95 743.25,-205.95 732.75,-205.95"/>
</g>
<!-- 31 -->
<g id="node33" class="node">
<title>31</title>
<ellipse fill="black" stroke="black" cx="450" cy="-18" rx="18" ry="18"/>
</g>
<!-- 31&#45;&gt;30 -->
<g id="edge35" class="edge">
<title>31&#45;&gt;30</title>
<path fill="none" stroke="black" stroke-width="6" d="M450,-36.321C450,-53.179 450,-78.435 450,-97.853"/>
<polygon fill="black" stroke="black" stroke-width="6" points="444.75,-97.9499 450,-107.95 455.25,-97.9501 444.75,-97.9499"/>
</g>
<!-- 2G -->
<g id="node34" class="node">
<title>2G</title>
<ellipse fill="blue" stroke="blue" cx="738" cy="-18" rx="18" ry="18"/>
</g>
<!-- 31&#45;&gt;2G -->
<g id="edge36" class="edge">
<title>31&#45;&gt;2G</title>
<path fill="none" stroke="red" stroke-width="3" d="M466.885,-11.5756C481.308,-6.53625 502.739,-0.0992557 522.13,1.59957 589.751,7.52389 669.254,-4.63127 710.322,-12.3291"/>
<polygon fill="red" stroke="red" stroke-width="3" points="709.893,-15.8109 720.375,-14.27 711.22,-8.93776 709.893,-15.8109"/>
</g>
<!-- 2G&#45;&gt;F -->
<g id="edge40" class="edge">
<title>2G&#45;&gt;F</title>
<path fill="none" stroke="blue" stroke-width="6" d="M738,-36.321C738,-53.179 738,-78.435 738,-97.853"/>
<polygon fill="blue" stroke="blue" stroke-width="6" points="732.75,-97.9499 738,-107.95 743.25,-97.9501 732.75,-97.9499"/>
</g>
</g>
</svg>
