<?xml version="1.0" encoding="UTF-8" standalone="no"?>
<!DOCTYPE svg PUBLIC "-//W3C//DTD SVG 1.1//EN"
 "http://www.w3.org/Graphics/SVG/1.1/DTD/svg11.dtd">
<!-- Generated by graphviz version 2.39.20160710.1729 (20160710.1729)
 -->
<!-- Title: %3 Pages: 1 -->
<svg width="188pt" height="2204pt"
 viewBox="0.00 0.00 188.00 2204.00" xmlns="http://www.w3.org/2000/svg" xmlns:xlink="http://www.w3.org/1999/xlink">
<g id="graph0" class="graph" transform="scale(1 1) rotate(0) translate(4 2200)">
<title>%3</title>
<polygon fill="white" stroke="transparent" points="-4,4 -4,-2200 184,-2200 184,4 -4,4"/>
<!-- 4 -->
<g id="node1" class="node">
<title>4</title>
<ellipse fill="black" stroke="black" cx="18" cy="-1638" rx="18" ry="18"/>
</g>
<!-- 7 -->
<g id="node2" class="node">
<title>7</title>
<ellipse fill="black" stroke="black" cx="18" cy="-1746" rx="18" ry="18"/>
</g>
<!-- 4&#45;&gt;7 -->
<g id="edge1" class="edge">
<title>4&#45;&gt;7</title>
<path fill="none" stroke="black" stroke-width="6" d="M18,-1656.3C18,-1673.2 18,-1698.4 18,-1717.9"/>
<polygon fill="black" stroke="black" stroke-width="6" points="12.7501,-1717.9 18,-1727.9 23.2501,-1717.9 12.7501,-1717.9"/>
</g>
<!-- 11 -->
<g id="node3" class="node">
<title>11</title>
<ellipse fill="black" stroke="black" cx="18" cy="-1854" rx="18" ry="18"/>
</g>
<!-- 7&#45;&gt;11 -->
<g id="edge2" class="edge">
<title>7&#45;&gt;11</title>
<path fill="none" stroke="black" stroke-width="6" d="M18,-1764.3C18,-1781.2 18,-1806.4 18,-1825.9"/>
<polygon fill="black" stroke="black" stroke-width="6" points="12.7501,-1825.9 18,-1835.9 23.2501,-1825.9 12.7501,-1825.9"/>
</g>
<!-- 1D -->
<g id="node4" class="node">
<title>1D</title>
<ellipse fill="blue" stroke="blue" cx="162" cy="-774" rx="18" ry="18"/>
</g>
<!-- 7&#45;&gt;1D -->
<g id="edge3" class="edge">
<title>7&#45;&gt;1D</title>
<path fill="none" stroke="red" stroke-width="3" d="M21.4903,-1728.09C25.6014,-1706.71 32.5141,-1669.86 37.5998,-1638.08 91.2102,-1303.09 88.8104,-1216.99 142.4,-881.999 146.772,-854.671 152.492,-823.59 156.623,-801.811"/>
<polygon fill="red" stroke="red" stroke-width="3" points="160.073,-802.403 158.51,-791.924 153.197,-801.09 160.073,-802.403"/>
</g>
<!-- 31 -->
<g id="node5" class="node">
<title>31</title>
<ellipse fill="black" stroke="black" cx="18" cy="-1962" rx="18" ry="18"/>
</g>
<!-- 11&#45;&gt;31 -->
<g id="edge4" class="edge">
<title>11&#45;&gt;31</title>
<path fill="none" stroke="black" stroke-width="6" d="M18,-1872.3C18,-1889.2 18,-1914.4 18,-1933.9"/>
<polygon fill="black" stroke="black" stroke-width="6" points="12.7501,-1933.9 18,-1943.9 23.2501,-1933.9 12.7501,-1933.9"/>
</g>
<!-- C -->
<g id="node30" class="node">
<title>C</title>
<ellipse fill="blue" stroke="blue" cx="162" cy="-882" rx="18" ry="18"/>
</g>
<!-- 1D&#45;&gt;C -->
<g id="edge55" class="edge">
<title>1D&#45;&gt;C</title>
<path fill="none" stroke="blue" stroke-width="6" d="M162,-792.32C162,-809.18 162,-834.43 162,-853.85"/>
<polygon fill="blue" stroke="blue" stroke-width="6" points="156.75,-853.95 162,-863.95 167.25,-853.95 156.75,-853.95"/>
</g>
<!-- 1H -->
<g id="node34" class="node">
<title>1H</title>
<ellipse fill="blue" stroke="blue" cx="162" cy="-666" rx="18" ry="18"/>
</g>
<!-- 1D&#45;&gt;1H -->
<g id="edge54" class="edge">
<title>1D&#45;&gt;1H</title>
<path fill="none" stroke="blue" stroke-width="6" d="M167.17,-756.14C168.95,-739.25 169.23,-713.63 168,-694.02"/>
<polygon fill="blue" stroke="blue" stroke-width="6" points="173.215,-693.371 167.17,-683.83 162.749,-694.223 173.215,-693.371"/>
</g>
<!-- 15 -->
<g id="node16" class="node">
<title>15</title>
<ellipse fill="black" stroke="black" cx="18" cy="-2070" rx="18" ry="18"/>
</g>
<!-- 31&#45;&gt;15 -->
<g id="edge13" class="edge">
<title>31&#45;&gt;15</title>
<path fill="none" stroke="black" stroke-width="6" d="M18,-1980.3C18,-1997.2 18,-2022.4 18,-2041.9"/>
<polygon fill="black" stroke="black" stroke-width="6" points="12.7501,-2041.9 18,-2051.9 23.2501,-2041.9 12.7501,-2041.9"/>
</g>
<!-- 2G -->
<g id="node17" class="node">
<title>2G</title>
<ellipse fill="blue" stroke="blue" cx="162" cy="-990" rx="18" ry="18"/>
</g>
<!-- 31&#45;&gt;2G -->
<g id="edge14" class="edge">
<title>31&#45;&gt;2G</title>
<path fill="none" stroke="red" stroke-width="3" d="M21.4903,-1944.09C25.6014,-1922.71 32.5141,-1885.85 37.5999,-1854.07 91.21,-1519.06 88.7929,-1432.95 142.4,-1097.94 146.771,-1070.63 152.491,-1039.56 156.622,-1017.8"/>
<polygon fill="red" stroke="red" stroke-width="3" points="160.071,-1018.39 158.51,-1007.91 153.196,-1017.08 160.071,-1018.39"/>
</g>
<!-- 5 -->
<g id="node6" class="node">
<title>5</title>
<ellipse fill="black" stroke="black" cx="18" cy="-18" rx="18" ry="18"/>
</g>
<!-- 23 -->
<g id="node7" class="node">
<title>23</title>
<ellipse fill="black" stroke="black" cx="18" cy="-126" rx="18" ry="18"/>
</g>
<!-- 5&#45;&gt;23 -->
<g id="edge5" class="edge">
<title>5&#45;&gt;23</title>
<path fill="none" stroke="black" stroke-width="6" d="M18,-36.321C18,-53.179 18,-78.435 18,-97.853"/>
<polygon fill="black" stroke="black" stroke-width="6" points="12.7501,-97.9499 18,-107.95 23.2501,-97.9501 12.7501,-97.9499"/>
</g>
<!-- 22 -->
<g id="node8" class="node">
<title>22</title>
<ellipse fill="black" stroke="black" cx="18" cy="-234" rx="18" ry="18"/>
</g>
<!-- 23&#45;&gt;22 -->
<g id="edge6" class="edge">
<title>23&#45;&gt;22</title>
<path fill="none" stroke="black" stroke-width="6" d="M18,-144.32C18,-161.18 18,-186.43 18,-205.85"/>
<polygon fill="black" stroke="black" stroke-width="6" points="12.7501,-205.95 18,-215.95 23.2501,-205.95 12.7501,-205.95"/>
</g>
<!-- 30 -->
<g id="node9" class="node">
<title>30</title>
<ellipse fill="black" stroke="black" cx="18" cy="-342" rx="18" ry="18"/>
</g>
<!-- 22&#45;&gt;30 -->
<g id="edge7" class="edge">
<title>22&#45;&gt;30</title>
<path fill="none" stroke="black" stroke-width="6" d="M18,-252.32C18,-269.18 18,-294.43 18,-313.85"/>
<polygon fill="black" stroke="black" stroke-width="6" points="12.7501,-313.95 18,-323.95 23.2501,-313.95 12.7501,-313.95"/>
</g>
<!-- F -->
<g id="node24" class="node">
<title>F</title>
<ellipse fill="blue" stroke="blue" cx="90" cy="-126" rx="18" ry="18"/>
</g>
<!-- 30&#45;&gt;F -->
<g id="edge41" class="edge">
<title>30&#45;&gt;F</title>
<path fill="none" stroke="red" stroke-width="3" d="M23.7704,-324.689C36.3085,-287.075 66.1116,-197.665 81.0875,-152.737"/>
<polygon fill="red" stroke="red" stroke-width="3" points="84.4602,-153.687 84.3021,-143.094 77.8194,-151.474 84.4602,-153.687"/>
</g>
<!-- 13 -->
<g id="node27" class="node">
<title>13</title>
<ellipse fill="black" stroke="black" cx="18" cy="-450" rx="18" ry="18"/>
</g>
<!-- 30&#45;&gt;13 -->
<g id="edge42" class="edge">
<title>30&#45;&gt;13</title>
<path fill="none" stroke="black" stroke-width="6" d="M18,-360.32C18,-377.18 18,-402.43 18,-421.85"/>
<polygon fill="black" stroke="black" stroke-width="6" points="12.7501,-421.95 18,-431.95 23.2501,-421.95 12.7501,-421.95"/>
</g>
<!-- 6 -->
<g id="node10" class="node">
<title>6</title>
<ellipse fill="black" stroke="black" cx="18" cy="-882" rx="18" ry="18"/>
</g>
<!-- 21 -->
<g id="node11" class="node">
<title>21</title>
<ellipse fill="black" stroke="black" cx="18" cy="-990" rx="18" ry="18"/>
</g>
<!-- 6&#45;&gt;21 -->
<g id="edge8" class="edge">
<title>6&#45;&gt;21</title>
<path fill="none" stroke="black" stroke-width="6" d="M18,-900.32C18,-917.18 18,-942.43 18,-961.85"/>
<polygon fill="black" stroke="black" stroke-width="6" points="12.7501,-961.95 18,-971.95 23.2501,-961.95 12.7501,-961.95"/>
</g>
<!-- 27 -->
<g id="node12" class="node">
<title>27</title>
<ellipse fill="black" stroke="black" cx="18" cy="-1098" rx="18" ry="18"/>
</g>
<!-- 21&#45;&gt;27 -->
<g id="edge9" class="edge">
<title>21&#45;&gt;27</title>
<path fill="none" stroke="black" stroke-width="6" d="M18,-1008.3C18,-1025.2 18,-1050.4 18,-1069.9"/>
<polygon fill="black" stroke="black" stroke-width="6" points="12.7501,-1069.9 18,-1079.9 23.2501,-1069.9 12.7501,-1069.9"/>
</g>
<!-- 1G -->
<g id="node13" class="node">
<title>1G</title>
<ellipse fill="blue" stroke="blue" cx="162" cy="-342" rx="18" ry="18"/>
</g>
<!-- 21&#45;&gt;1G -->
<g id="edge10" class="edge">
<title>21&#45;&gt;1G</title>
<path fill="none" stroke="red" stroke-width="3" d="M21.9263,-972.331C41.8187,-882.816 131.482,-479.331 155.864,-369.614"/>
<polygon fill="red" stroke="red" stroke-width="3" points="159.324,-370.174 158.077,-359.653 152.491,-368.655 159.324,-370.174"/>
</g>
<!-- 2D -->
<g id="node14" class="node">
<title>2D</title>
<ellipse fill="blue" stroke="blue" cx="126" cy="-18" rx="18" ry="18"/>
</g>
<!-- 27&#45;&gt;2D -->
<g id="edge11" class="edge">
<title>27&#45;&gt;2D</title>
<path fill="none" stroke="red" stroke-width="3" d="M21.7264,-1080.13C26.0646,-1058.8 33.1956,-1022 37.5995,-990.135 83.8139,-655.769 80.8255,-570.396 109.6,-234.079 115.355,-166.808 121.101,-87.6651 124.022,-46.3547"/>
<polygon fill="red" stroke="red" stroke-width="3" points="127.524,-46.443 124.736,-36.2219 120.542,-45.9513 127.524,-46.443"/>
</g>
<!-- 17 -->
<g id="node15" class="node">
<title>17</title>
<ellipse fill="black" stroke="black" cx="18" cy="-1206" rx="18" ry="18"/>
</g>
<!-- 27&#45;&gt;17 -->
<g id="edge12" class="edge">
<title>27&#45;&gt;17</title>
<path fill="none" stroke="black" stroke-width="6" d="M18,-1116.3C18,-1133.2 18,-1158.4 18,-1177.9"/>
<polygon fill="black" stroke="black" stroke-width="6" points="12.7501,-1177.9 18,-1187.9 23.2501,-1177.9 12.7501,-1177.9"/>
</g>
<!-- 1E -->
<g id="node26" class="node">
<title>1E</title>
<ellipse fill="blue" stroke="blue" cx="162" cy="-234" rx="18" ry="18"/>
</g>
<!-- 1G&#45;&gt;1E -->
<g id="edge48" class="edge">
<title>1G&#45;&gt;1E</title>
<path fill="none" stroke="blue" stroke-width="6" d="M167.17,-324.14C168.95,-307.25 169.23,-281.63 168,-262.02"/>
<polygon fill="blue" stroke="blue" stroke-width="6" points="173.215,-261.371 167.17,-251.83 162.749,-262.223 173.215,-261.371"/>
</g>
<!-- 2I -->
<g id="node33" class="node">
<title>2I</title>
<ellipse fill="blue" stroke="blue" cx="162" cy="-450" rx="18" ry="18"/>
</g>
<!-- 1G&#45;&gt;2I -->
<g id="edge49" class="edge">
<title>1G&#45;&gt;2I</title>
<path fill="none" stroke="blue" stroke-width="6" d="M162,-360.32C162,-377.18 162,-402.43 162,-421.85"/>
<polygon fill="blue" stroke="blue" stroke-width="6" points="156.75,-421.95 162,-431.95 167.25,-421.95 156.75,-421.95"/>
</g>
<!-- 2H -->
<g id="node19" class="node">
<title>2H</title>
<ellipse fill="blue" stroke="blue" cx="162" cy="-126" rx="18" ry="18"/>
</g>
<!-- 2D&#45;&gt;2H -->
<g id="edge22" class="edge">
<title>2D&#45;&gt;2H</title>
<path fill="none" stroke="blue" stroke-width="6" d="M126.89,-36.321C130.93,-53.825 139.56,-80.383 147.49,-100.06"/>
<polygon fill="blue" stroke="blue" stroke-width="6" points="142.694,-102.199 151.42,-109.37 152.368,-98.1154 142.694,-102.199"/>
</g>
<!-- 2D&#45;&gt;F -->
<g id="edge21" class="edge">
<title>2D&#45;&gt;F</title>
<path fill="none" stroke="blue" stroke-width="6" d="M115.31,-34.875C107.81,-51.749 98.75,-77.996 93.33,-97.995"/>
<polygon fill="blue" stroke="blue" stroke-width="6" points="88.2118,-96.8209 90.862,-107.8 98.3942,-99.384 88.2118,-96.8209"/>
</g>
<!-- 29 -->
<g id="node31" class="node">
<title>29</title>
<ellipse fill="black" stroke="black" cx="18" cy="-1314" rx="18" ry="18"/>
</g>
<!-- 17&#45;&gt;29 -->
<g id="edge36" class="edge">
<title>17&#45;&gt;29</title>
<path fill="none" stroke="black" stroke-width="6" d="M18,-1224.3C18,-1241.2 18,-1266.4 18,-1285.9"/>
<polygon fill="black" stroke="black" stroke-width="6" points="12.7501,-1285.9 18,-1295.9 23.2501,-1285.9 12.7501,-1285.9"/>
</g>
<!-- 26 -->
<g id="node22" class="node">
<title>26</title>
<ellipse fill="black" stroke="black" cx="18" cy="-2178" rx="18" ry="18"/>
</g>
<!-- 15&#45;&gt;26 -->
<g id="edge19" class="edge">
<title>15&#45;&gt;26</title>
<path fill="none" stroke="black" stroke-width="6" d="M18,-2088.3C18,-2105.2 18,-2130.4 18,-2149.9"/>
<polygon fill="black" stroke="black" stroke-width="6" points="12.7501,-2149.9 18,-2159.9 23.2501,-2149.9 12.7501,-2149.9"/>
</g>
<!-- A -->
<g id="node23" class="node">
<title>A</title>
<ellipse fill="blue" stroke="blue" cx="162" cy="-1098" rx="18" ry="18"/>
</g>
<!-- 15&#45;&gt;A -->
<g id="edge20" class="edge">
<title>15&#45;&gt;A</title>
<path fill="none" stroke="red" stroke-width="3" d="M21.4613,-2052.08C25.5445,-2030.7 32.4303,-1993.83 37.5999,-1962.06 90.9619,-1634.13 144.156,-1234.21 158.339,-1126.07"/>
<polygon fill="red" stroke="red" stroke-width="3" points="161.833,-1126.35 159.661,-1115.98 154.892,-1125.44 161.833,-1126.35"/>
</g>
<!-- 2G&#45;&gt;A -->
<g id="edge50" class="edge">
<title>2G&#45;&gt;A</title>
<path fill="none" stroke="blue" stroke-width="6" d="M156.83,-1007.8C155.05,-1024.7 154.77,-1050.3 156,-1070"/>
<polygon fill="blue" stroke="blue" stroke-width="6" points="150.779,-1070.56 156.83,-1080.1 161.243,-1069.7 150.779,-1070.56"/>
</g>
<!-- 2G&#45;&gt;C -->
<g id="edge51" class="edge">
<title>2G&#45;&gt;C</title>
<path fill="none" stroke="blue" stroke-width="6" d="M167.17,-972.14C168.95,-955.25 169.23,-929.63 168,-910.02"/>
<polygon fill="blue" stroke="blue" stroke-width="6" points="173.215,-909.371 167.17,-899.83 162.749,-910.223 173.215,-909.371"/>
</g>
<!-- 8 -->
<g id="node18" class="node">
<title>8</title>
<ellipse fill="black" stroke="black" cx="18" cy="-774" rx="18" ry="18"/>
</g>
<!-- 8&#45;&gt;6 -->
<g id="edge15" class="edge">
<title>8&#45;&gt;6</title>
<path fill="none" stroke="black" stroke-width="6" d="M18,-792.32C18,-809.18 18,-834.43 18,-853.85"/>
<polygon fill="black" stroke="black" stroke-width="6" points="12.7501,-853.95 18,-863.95 23.2501,-853.95 12.7501,-853.95"/>
</g>
<!-- 8&#45;&gt;2H -->
<g id="edge16" class="edge">
<title>8&#45;&gt;2H</title>
<path fill="none" stroke="red" stroke-width="3" d="M21.9263,-756.331C41.8187,-666.816 131.482,-263.331 155.864,-153.614"/>
<polygon fill="red" stroke="red" stroke-width="3" points="159.324,-154.174 158.077,-143.653 152.491,-152.655 159.324,-154.174"/>
</g>
<!-- 2H&#45;&gt;2D -->
<g id="edge25" class="edge">
<title>2H&#45;&gt;2D</title>
<path fill="none" stroke="blue" stroke-width="6" d="M161.14,-107.8C157.13,-90.375 148.53,-63.896 140.62,-44.2"/>
<polygon fill="blue" stroke="blue" stroke-width="6" points="145.412,-42.0511 136.69,-34.875 135.736,-46.129 145.412,-42.0511"/>
</g>
<!-- 2H&#45;&gt;1E -->
<g id="edge26" class="edge">
<title>2H&#45;&gt;1E</title>
<path fill="none" stroke="blue" stroke-width="6" d="M156.83,-143.83C155.05,-160.72 154.77,-186.33 156,-205.95"/>
<polygon fill="blue" stroke="blue" stroke-width="6" points="150.785,-206.599 156.83,-216.14 161.251,-205.747 150.785,-206.599"/>
</g>
<!-- 9 -->
<g id="node20" class="node">
<title>9</title>
<ellipse fill="black" stroke="black" cx="18" cy="-1530" rx="18" ry="18"/>
</g>
<!-- 9&#45;&gt;4 -->
<g id="edge17" class="edge">
<title>9&#45;&gt;4</title>
<path fill="none" stroke="black" stroke-width="6" d="M18,-1548.3C18,-1565.2 18,-1590.4 18,-1609.9"/>
<polygon fill="black" stroke="black" stroke-width="6" points="12.7501,-1609.9 18,-1619.9 23.2501,-1609.9 12.7501,-1609.9"/>
</g>
<!-- 2E -->
<g id="node21" class="node">
<title>2E</title>
<ellipse fill="blue" stroke="blue" cx="162" cy="-558" rx="18" ry="18"/>
</g>
<!-- 9&#45;&gt;2E -->
<g id="edge18" class="edge">
<title>9&#45;&gt;2E</title>
<path fill="none" stroke="red" stroke-width="3" d="M21.4905,-1512.09C25.6018,-1490.72 32.5147,-1453.87 37.5997,-1422.1 91.2203,-1087.09 88.7934,-1000.97 142.4,-665.948 146.771,-638.632 152.491,-607.567 156.622,-585.798"/>
<polygon fill="red" stroke="red" stroke-width="3" points="160.071,-586.394 158.51,-575.915 153.196,-585.081 160.071,-586.394"/>
</g>
<!-- 2E&#45;&gt;2I -->
<g id="edge44" class="edge">
<title>2E&#45;&gt;2I</title>
<path fill="none" stroke="blue" stroke-width="6" d="M167.17,-540.14C168.95,-523.25 169.23,-497.63 168,-478.02"/>
<polygon fill="blue" stroke="blue" stroke-width="6" points="173.215,-477.371 167.17,-467.83 162.749,-478.223 173.215,-477.371"/>
</g>
<!-- 2E&#45;&gt;1H -->
<g id="edge45" class="edge">
<title>2E&#45;&gt;1H</title>
<path fill="none" stroke="blue" stroke-width="6" d="M156.83,-575.83C155.05,-592.72 154.77,-618.33 156,-637.95"/>
<polygon fill="blue" stroke="blue" stroke-width="6" points="150.785,-638.599 156.83,-648.14 161.251,-637.747 150.785,-638.599"/>
</g>
<!-- 26&#45;&gt;C -->
<g id="edge35" class="edge">
<title>26&#45;&gt;C</title>
<path fill="none" stroke="red" stroke-width="3" d="M21.7166,-2160.13C26.0453,-2138.79 33.1671,-2101.97 37.5997,-2070.1 104.051,-1592.35 75.9435,-1467.63 142.4,-989.882 146.209,-962.498 152.005,-931.463 156.307,-909.733"/>
<polygon fill="red" stroke="red" stroke-width="3" points="159.75,-910.363 158.283,-899.87 152.887,-908.987 159.75,-910.363"/>
</g>
<!-- A&#45;&gt;2G -->
<g id="edge52" class="edge">
<title>A&#45;&gt;2G</title>
<path fill="none" stroke="blue" stroke-width="6" d="M167.17,-1080.1C168.95,-1063.2 169.23,-1037.6 168,-1018"/>
<polygon fill="blue" stroke="blue" stroke-width="6" points="173.214,-1017.34 167.17,-1007.8 162.748,-1018.19 173.214,-1017.34"/>
</g>
<!-- F&#45;&gt;2D -->
<g id="edge23" class="edge">
<title>F&#45;&gt;2D</title>
<path fill="none" stroke="blue" stroke-width="6" d="M100.58,-109.37C108.08,-92.547 117.17,-66.241 122.62,-46.167"/>
<polygon fill="blue" stroke="blue" stroke-width="6" points="127.748,-47.303 125.11,-36.321 117.568,-44.7286 127.748,-47.303"/>
</g>
<!-- B -->
<g id="node25" class="node">
<title>B</title>
<ellipse fill="blue" stroke="blue" cx="90" cy="-234" rx="18" ry="18"/>
</g>
<!-- F&#45;&gt;B -->
<g id="edge24" class="edge">
<title>F&#45;&gt;B</title>
<path fill="none" stroke="blue" stroke-width="6" d="M84.834,-143.83C83.053,-160.72 82.774,-186.33 83.997,-205.95"/>
<polygon fill="blue" stroke="blue" stroke-width="6" points="78.7827,-206.602 84.831,-216.14 89.2477,-205.745 78.7827,-206.602"/>
</g>
<!-- B&#45;&gt;F -->
<g id="edge27" class="edge">
<title>B&#45;&gt;F</title>
<path fill="none" stroke="blue" stroke-width="6" d="M95.17,-216.14C96.95,-199.25 97.23,-173.63 96,-154.02"/>
<polygon fill="blue" stroke="blue" stroke-width="6" points="101.215,-153.371 95.17,-143.83 90.7493,-154.223 101.215,-153.371"/>
</g>
<!-- 1E&#45;&gt;1G -->
<g id="edge29" class="edge">
<title>1E&#45;&gt;1G</title>
<path fill="none" stroke="blue" stroke-width="6" d="M156.83,-251.83C155.05,-268.72 154.77,-294.33 156,-313.95"/>
<polygon fill="blue" stroke="blue" stroke-width="6" points="150.785,-314.599 156.83,-324.14 161.251,-313.747 150.785,-314.599"/>
</g>
<!-- 1E&#45;&gt;2H -->
<g id="edge28" class="edge">
<title>1E&#45;&gt;2H</title>
<path fill="none" stroke="blue" stroke-width="6" d="M167.17,-216.14C168.95,-199.25 169.23,-173.63 168,-154.02"/>
<polygon fill="blue" stroke="blue" stroke-width="6" points="173.215,-153.371 167.17,-143.83 162.749,-154.223 173.215,-153.371"/>
</g>
<!-- 13&#45;&gt;B -->
<g id="edge30" class="edge">
<title>13&#45;&gt;B</title>
<path fill="none" stroke="red" stroke-width="3" d="M23.7704,-432.689C36.3085,-395.075 66.1116,-305.665 81.0875,-260.737"/>
<polygon fill="red" stroke="red" stroke-width="3" points="84.4602,-261.687 84.3021,-251.094 77.8194,-259.474 84.4602,-261.687"/>
</g>
<!-- 25 -->
<g id="node28" class="node">
<title>25</title>
<ellipse fill="black" stroke="black" cx="18" cy="-558" rx="18" ry="18"/>
</g>
<!-- 13&#45;&gt;25 -->
<g id="edge31" class="edge">
<title>13&#45;&gt;25</title>
<path fill="none" stroke="black" stroke-width="6" d="M18,-468.32C18,-485.18 18,-510.43 18,-529.85"/>
<polygon fill="black" stroke="black" stroke-width="6" points="12.7501,-529.95 18,-539.95 23.2501,-529.95 12.7501,-529.95"/>
</g>
<!-- 25&#45;&gt;1E -->
<g id="edge32" class="edge">
<title>25&#45;&gt;1E</title>
<path fill="none" stroke="red" stroke-width="3" d="M25.339,-541.487C48.7866,-488.73 122.018,-323.96 150.503,-259.869"/>
<polygon fill="red" stroke="red" stroke-width="3" points="153.813,-261.039 154.676,-250.479 147.416,-258.196 153.813,-261.039"/>
</g>
<!-- 14 -->
<g id="node29" class="node">
<title>14</title>
<ellipse fill="black" stroke="black" cx="18" cy="-666" rx="18" ry="18"/>
</g>
<!-- 25&#45;&gt;14 -->
<g id="edge33" class="edge">
<title>25&#45;&gt;14</title>
<path fill="none" stroke="black" stroke-width="6" d="M18,-576.32C18,-593.18 18,-618.43 18,-637.85"/>
<polygon fill="black" stroke="black" stroke-width="6" points="12.7501,-637.95 18,-647.95 23.2501,-637.95 12.7501,-637.95"/>
</g>
<!-- 14&#45;&gt;8 -->
<g id="edge34" class="edge">
<title>14&#45;&gt;8</title>
<path fill="none" stroke="black" stroke-width="6" d="M18,-684.32C18,-701.18 18,-726.43 18,-745.85"/>
<polygon fill="black" stroke="black" stroke-width="6" points="12.7501,-745.95 18,-755.95 23.2501,-745.95 12.7501,-745.95"/>
</g>
<!-- C&#45;&gt;2G -->
<g id="edge53" class="edge">
<title>C&#45;&gt;2G</title>
<path fill="none" stroke="blue" stroke-width="6" d="M156.83,-899.83C155.05,-916.72 154.77,-942.33 156,-961.95"/>
<polygon fill="blue" stroke="blue" stroke-width="6" points="150.785,-962.599 156.83,-972.14 161.251,-961.747 150.785,-962.599"/>
</g>
<!-- 28 -->
<g id="node32" class="node">
<title>28</title>
<ellipse fill="black" stroke="black" cx="18" cy="-1422" rx="18" ry="18"/>
</g>
<!-- 29&#45;&gt;28 -->
<g id="edge37" class="edge">
<title>29&#45;&gt;28</title>
<path fill="none" stroke="black" stroke-width="6" d="M18,-1332.3C18,-1349.2 18,-1374.4 18,-1393.9"/>
<polygon fill="black" stroke="black" stroke-width="6" points="12.7501,-1393.9 18,-1403.9 23.2501,-1393.9 12.7501,-1393.9"/>
</g>
<!-- 29&#45;&gt;2I -->
<g id="edge38" class="edge">
<title>29&#45;&gt;2I</title>
<path fill="none" stroke="red" stroke-width="3" d="M21.3657,-1296.06C25.357,-1274.65 32.1546,-1237.76 37.6,-1206.03 86.9493,-918.454 93.0446,-845.519 142.4,-557.942 147.079,-530.679 152.757,-499.608 156.795,-477.825"/>
<polygon fill="red" stroke="red" stroke-width="3" points="160.247,-478.406 158.634,-467.935 153.365,-477.126 160.247,-478.406"/>
</g>
<!-- 28&#45;&gt;9 -->
<g id="edge39" class="edge">
<title>28&#45;&gt;9</title>
<path fill="none" stroke="black" stroke-width="6" d="M18,-1440.3C18,-1457.2 18,-1482.4 18,-1501.9"/>
<polygon fill="black" stroke="black" stroke-width="6" points="12.7501,-1501.9 18,-1511.9 23.2501,-1501.9 12.7501,-1501.9"/>
</g>
<!-- 28&#45;&gt;1H -->
<g id="edge40" class="edge">
<title>28&#45;&gt;1H</title>
<path fill="none" stroke="red" stroke-width="3" d="M21.4175,-1404.06C40.456,-1304.11 133.409,-816.105 156.7,-693.826"/>
<polygon fill="red" stroke="red" stroke-width="3" points="160.181,-694.253 158.614,-683.774 153.305,-692.943 160.181,-694.253"/>
</g>
<!-- 2I&#45;&gt;2E -->
<g id="edge43" class="edge">
<title>2I&#45;&gt;2E</title>
<path fill="none" stroke="blue" stroke-width="6" d="M156.83,-467.83C155.05,-484.72 154.77,-510.33 156,-529.95"/>
<polygon fill="blue" stroke="blue" stroke-width="6" points="150.785,-530.599 156.83,-540.14 161.251,-529.747 150.785,-530.599"/>
</g>
<!-- 1H&#45;&gt;1D -->
<g id="edge47" class="edge">
<title>1H&#45;&gt;1D</title>
<path fill="none" stroke="blue" stroke-width="6" d="M156.83,-683.83C155.05,-700.72 154.77,-726.33 156,-745.95"/>
<polygon fill="blue" stroke="blue" stroke-width="6" points="150.785,-746.599 156.83,-756.14 161.251,-745.747 150.785,-746.599"/>
</g>
<!-- 1H&#45;&gt;2E -->
<g id="edge46" class="edge">
<title>1H&#45;&gt;2E</title>
<path fill="none" stroke="blue" stroke-width="6" d="M167.17,-648.14C168.95,-631.25 169.23,-605.63 168,-586.02"/>
<polygon fill="blue" stroke="blue" stroke-width="6" points="173.215,-585.371 167.17,-575.83 162.749,-586.223 173.215,-585.371"/>
</g>
</g>
</svg>
