<?xml version="1.0" encoding="UTF-8" standalone="no"?>
<!DOCTYPE svg PUBLIC "-//W3C//DTD SVG 1.1//EN"
 "http://www.w3.org/Graphics/SVG/1.1/DTD/svg11.dtd">
<!-- Generated by graphviz version 2.39.20160710.1729 (20160710.1729)
 -->
<!-- Title: %3 Pages: 1 -->
<svg width="926pt" height="410pt"
 viewBox="0.00 0.00 926.00 410.29" xmlns="http://www.w3.org/2000/svg" xmlns:xlink="http://www.w3.org/1999/xlink">
<g id="graph0" class="graph" transform="scale(1 1) rotate(0) translate(4 400)">
<title>%3</title>
<polygon fill="white" stroke="transparent" points="-4,10.2914 -4,-400 922,-400 922,10.2914 -4,10.2914"/>
<!-- 4 -->
<g id="node1" class="node">
<title>4</title>
<ellipse fill="none" stroke="black" cx="27" cy="-306" rx="27" ry="18"/>
<text text-anchor="middle" x="27" y="-302.3" font-family="Times,serif" font-size="14.00">4</text>
</g>
<!-- 5 -->
<g id="node2" class="node">
<title>5</title>
<ellipse fill="none" stroke="black" cx="207" cy="-378" rx="27" ry="18"/>
<text text-anchor="middle" x="207" y="-374.3" font-family="Times,serif" font-size="14.00">5</text>
</g>
<!-- 4&#45;&gt;5 -->
<g id="edge1" class="edge">
<title>4&#45;&gt;5</title>
<path fill="none" stroke="black" d="M48.528,-317.22C53.252,-319.56 58.26,-321.93 63,-324 99.999,-340.13 143.52,-356.04 172.95,-366.37"/>
<polygon fill="black" stroke="black" points="172.145,-369.796 182.74,-369.78 174.448,-363.185 172.145,-369.796"/>
</g>
<!-- 6 -->
<g id="node3" class="node">
<title>6</title>
<ellipse fill="none" stroke="black" cx="99" cy="-306" rx="27" ry="18"/>
<text text-anchor="middle" x="99" y="-302.3" font-family="Times,serif" font-size="14.00">6</text>
</g>
<!-- 6&#45;&gt;5 -->
<g id="edge2" class="edge">
<title>6&#45;&gt;5</title>
<path fill="none" stroke="black" d="M118.31,-318.87C135.36,-330.24 160.4,-346.93 179.53,-359.69"/>
<polygon fill="black" stroke="black" points="177.597,-362.608 187.86,-365.24 181.479,-356.783 177.597,-362.608"/>
</g>
<!-- 7 -->
<g id="node4" class="node">
<title>7</title>
<ellipse fill="none" stroke="black" cx="171" cy="-162" rx="27" ry="18"/>
<text text-anchor="middle" x="171" y="-158.3" font-family="Times,serif" font-size="14.00">7</text>
</g>
<!-- 13 -->
<g id="node5" class="node">
<title>13</title>
<ellipse fill="none" stroke="black" cx="243" cy="-234" rx="27" ry="18"/>
<text text-anchor="middle" x="243" y="-230.3" font-family="Times,serif" font-size="14.00">13</text>
</g>
<!-- 7&#45;&gt;13 -->
<g id="edge3" class="edge">
<title>7&#45;&gt;13</title>
<path fill="none" stroke="black" d="M186.27,-177.27C196.2,-187.2 209.32,-200.32 220.44,-211.44"/>
<polygon fill="black" stroke="black" points="218.204,-214.154 227.75,-218.75 223.154,-209.204 218.204,-214.154"/>
</g>
<!-- 1D -->
<g id="node6" class="node">
<title>1D</title>
<ellipse fill="none" stroke="black" cx="603" cy="-162" rx="27" ry="18"/>
<text text-anchor="middle" x="603" y="-158.3" font-family="Times,serif" font-size="14.00">1D</text>
</g>
<!-- 7&#45;&gt;1D -->
<g id="edge4" class="edge">
<title>7&#45;&gt;1D</title>
<path fill="none" stroke="red" d="M196.915,-156.861C225.675,-151.537 273.535,-143.799 315.198,-142.4 405.528,-139.369 511.528,-150.352 566.213,-157.097"/>
<polygon fill="red" stroke="red" points="566.088,-160.608 576.447,-158.384 566.961,-153.663 566.088,-160.608"/>
</g>
<!-- 15 -->
<g id="node7" class="node">
<title>15</title>
<ellipse fill="none" stroke="black" cx="243" cy="-306" rx="27" ry="18"/>
<text text-anchor="middle" x="243" y="-302.3" font-family="Times,serif" font-size="14.00">15</text>
</g>
<!-- 13&#45;&gt;15 -->
<g id="edge5" class="edge">
<title>13&#45;&gt;15</title>
<path fill="none" stroke="black" d="M243,-252.17C243,-259.87 243,-269.03 243,-277.58"/>
<polygon fill="black" stroke="black" points="239.5,-277.59 243,-287.59 246.5,-277.59 239.5,-277.59"/>
</g>
<!-- B -->
<g id="node8" class="node">
<title>B</title>
<ellipse fill="none" stroke="black" cx="675" cy="-234" rx="27" ry="18"/>
<text text-anchor="middle" x="675" y="-230.3" font-family="Times,serif" font-size="14.00">B</text>
</g>
<!-- 13&#45;&gt;B -->
<g id="edge6" class="edge">
<title>13&#45;&gt;B</title>
<path fill="none" stroke="red" d="M266.966,-225.407C280.803,-220.973 298.656,-216.136 315.022,-214.4 432.937,-201.895 573.477,-218.633 638.575,-228.18"/>
<polygon fill="red" stroke="red" points="638.321,-231.681 648.729,-229.702 639.358,-224.758 638.321,-231.681"/>
</g>
<!-- 1D&#45;&gt;B -->
<g id="edge41" class="edge">
<title>1D&#45;&gt;B</title>
<path fill="none" stroke="black" d="M618.27,-177.27C628.2,-187.2 641.32,-200.32 652.44,-211.44"/>
<polygon fill="black" stroke="black" points="650.204,-214.154 659.75,-218.75 655.154,-209.204 650.204,-214.154"/>
</g>
<!-- 15&#45;&gt;5 -->
<g id="edge7" class="edge">
<title>15&#45;&gt;5</title>
<path fill="none" stroke="black" d="M234.29,-323.43C230.04,-331.92 224.85,-342.31 220.13,-351.73"/>
<polygon fill="black" stroke="black" points="216.972,-350.22 215.63,-360.73 223.233,-353.351 216.972,-350.22"/>
</g>
<!-- A -->
<g id="node9" class="node">
<title>A</title>
<ellipse fill="none" stroke="black" cx="675" cy="-306" rx="27" ry="18"/>
<text text-anchor="middle" x="675" y="-302.3" font-family="Times,serif" font-size="14.00">A</text>
</g>
<!-- 15&#45;&gt;A -->
<g id="edge8" class="edge">
<title>15&#45;&gt;A</title>
<path fill="none" stroke="red" d="M267.026,-297.746C280.887,-293.421 298.753,-288.58 315.077,-286.4 432.592,-270.707 573.294,-288.976 638.504,-299.534"/>
<polygon fill="red" stroke="red" points="638.238,-303.038 648.675,-301.218 639.382,-296.132 638.238,-303.038"/>
</g>
<!-- B&#45;&gt;A -->
<g id="edge20" class="edge">
<title>B&#45;&gt;A</title>
<path fill="none" stroke="black" d="M675,-252.17C675,-259.87 675,-269.03 675,-277.58"/>
<polygon fill="black" stroke="black" points="671.5,-277.59 675,-287.59 678.5,-277.59 671.5,-277.59"/>
</g>
<!-- 8 -->
<g id="node10" class="node">
<title>8</title>
<ellipse fill="none" stroke="black" cx="243" cy="-90" rx="27" ry="18"/>
<text text-anchor="middle" x="243" y="-86.3" font-family="Times,serif" font-size="14.00">8</text>
</g>
<!-- 26 -->
<g id="node11" class="node">
<title>26</title>
<ellipse fill="none" stroke="black" cx="315" cy="-162" rx="27" ry="18"/>
<text text-anchor="middle" x="315" y="-158.3" font-family="Times,serif" font-size="14.00">26</text>
</g>
<!-- 8&#45;&gt;26 -->
<g id="edge9" class="edge">
<title>8&#45;&gt;26</title>
<path fill="none" stroke="black" d="M258.27,-105.27C268.2,-115.2 281.32,-128.32 292.44,-139.44"/>
<polygon fill="black" stroke="black" points="290.204,-142.154 299.75,-146.75 295.154,-137.204 290.204,-142.154"/>
</g>
<!-- 2H -->
<g id="node12" class="node">
<title>2H</title>
<ellipse fill="none" stroke="black" cx="819" cy="-90" rx="27" ry="18"/>
<text text-anchor="middle" x="819" y="-86.3" font-family="Times,serif" font-size="14.00">2H</text>
</g>
<!-- 8&#45;&gt;2H -->
<g id="edge10" class="edge">
<title>8&#45;&gt;2H</title>
<path fill="none" stroke="red" d="M267.311,-98.3564C281.101,-102.655 298.785,-107.437 314.955,-109.6 473.562,-130.815 514.979,-109.6 674.999,-109.6 706.932,-109.6 715.195,-113.822 746.848,-109.6 759.614,-107.897 773.322,-104.57 785.325,-101.133"/>
<polygon fill="red" stroke="red" points="786.371,-104.474 794.949,-98.2541 784.365,-97.7673 786.371,-104.474"/>
</g>
<!-- 26&#45;&gt;13 -->
<g id="edge11" class="edge">
<title>26&#45;&gt;13</title>
<path fill="none" stroke="black" d="M299.73,-177.27C289.8,-187.2 276.68,-200.32 265.56,-211.44"/>
<polygon fill="black" stroke="black" points="262.846,-209.204 258.25,-218.75 267.796,-214.154 262.846,-209.204"/>
</g>
<!-- C -->
<g id="node13" class="node">
<title>C</title>
<ellipse fill="none" stroke="black" cx="747" cy="-162" rx="27" ry="18"/>
<text text-anchor="middle" x="747" y="-158.3" font-family="Times,serif" font-size="14.00">C</text>
</g>
<!-- 26&#45;&gt;C -->
<g id="edge12" class="edge">
<title>26&#45;&gt;C</title>
<path fill="none" stroke="red" d="M341.548,-165.616C392.254,-172.12 506.413,-184.829 602.746,-181.599 639.867,-180.355 681.904,-174.081 710.982,-168.961"/>
<polygon fill="red" stroke="red" points="711.856,-172.36 721.075,-167.139 710.613,-165.472 711.856,-172.36"/>
</g>
<!-- 2H&#45;&gt;C -->
<g id="edge39" class="edge">
<title>2H&#45;&gt;C</title>
<path fill="none" stroke="black" d="M803.73,-105.27C793.8,-115.2 780.68,-128.32 769.56,-139.44"/>
<polygon fill="black" stroke="black" points="766.846,-137.204 762.25,-146.75 771.796,-142.154 766.846,-137.204"/>
</g>
<!-- C&#45;&gt;B -->
<g id="edge19" class="edge">
<title>C&#45;&gt;B</title>
<path fill="none" stroke="black" d="M731.73,-177.27C721.8,-187.2 708.68,-200.32 697.56,-211.44"/>
<polygon fill="black" stroke="black" points="694.846,-209.204 690.25,-218.75 699.796,-214.154 694.846,-209.204"/>
</g>
<!-- 9 -->
<g id="node14" class="node">
<title>9</title>
<ellipse fill="none" stroke="black" cx="315" cy="-18" rx="27" ry="18"/>
<text text-anchor="middle" x="315" y="-14.3" font-family="Times,serif" font-size="14.00">9</text>
</g>
<!-- 27 -->
<g id="node15" class="node">
<title>27</title>
<ellipse fill="none" stroke="black" cx="315" cy="-90" rx="27" ry="18"/>
<text text-anchor="middle" x="315" y="-86.3" font-family="Times,serif" font-size="14.00">27</text>
</g>
<!-- 9&#45;&gt;27 -->
<g id="edge13" class="edge">
<title>9&#45;&gt;27</title>
<path fill="none" stroke="black" d="M315,-36.169C315,-43.869 315,-53.026 315,-61.583"/>
<polygon fill="black" stroke="black" points="311.5,-61.587 315,-71.587 318.5,-61.587 311.5,-61.587"/>
</g>
<!-- 2E -->
<g id="node16" class="node">
<title>2E</title>
<ellipse fill="none" stroke="black" cx="891" cy="-18" rx="27" ry="18"/>
<text text-anchor="middle" x="891" y="-14.3" font-family="Times,serif" font-size="14.00">2E</text>
</g>
<!-- 9&#45;&gt;2E -->
<g id="edge14" class="edge">
<title>9&#45;&gt;2E</title>
<path fill="none" stroke="red" d="M341.209,-13.3534C370.027,-8.49857 417.752,-1.20575 459.225,1.59939 501.916,4.48685 619.287,10.2612 747.076,1.59993 783.937,-0.898416 825.746,-6.9566 854.766,-11.6818"/>
<polygon fill="red" stroke="red" points="854.408,-15.1702 864.846,-13.3533 855.553,-8.26451 854.408,-15.1702"/>
</g>
<!-- 27&#45;&gt;26 -->
<g id="edge15" class="edge">
<title>27&#45;&gt;26</title>
<path fill="none" stroke="black" d="M315,-108.17C315,-115.87 315,-125.03 315,-133.58"/>
<polygon fill="black" stroke="black" points="311.5,-133.59 315,-143.59 318.5,-133.59 311.5,-133.59"/>
</g>
<!-- 2D -->
<g id="node17" class="node">
<title>2D</title>
<ellipse fill="none" stroke="black" cx="891" cy="-90" rx="27" ry="18"/>
<text text-anchor="middle" x="891" y="-86.3" font-family="Times,serif" font-size="14.00">2D</text>
</g>
<!-- 27&#45;&gt;2D -->
<g id="edge16" class="edge">
<title>27&#45;&gt;2D</title>
<path fill="none" stroke="red" d="M339.082,-81.746C352.975,-77.4211 370.883,-72.5805 387.242,-70.4007 418.913,-66.1807 427.181,-70.4003 459.132,-70.4002 619.081,-70.3996 660.479,-49.2021 819.017,-70.4 831.528,-72.0728 844.945,-75.3124 856.765,-78.6834"/>
<polygon fill="red" stroke="red" points="856.095,-82.136 866.679,-81.6435 858.098,-75.4286 856.095,-82.136"/>
</g>
<!-- 2E&#45;&gt;2D -->
<g id="edge44" class="edge">
<title>2E&#45;&gt;2D</title>
<path fill="none" stroke="black" d="M891,-36.169C891,-43.869 891,-53.026 891,-61.583"/>
<polygon fill="black" stroke="black" points="887.5,-61.587 891,-71.587 894.5,-61.587 887.5,-61.587"/>
</g>
<!-- 2D&#45;&gt;C -->
<g id="edge18" class="edge">
<title>2D&#45;&gt;C</title>
<path fill="none" stroke="black" d="M869.13,-100.94C844.78,-113.11 805.24,-132.88 777.77,-146.61"/>
<polygon fill="black" stroke="black" points="775.976,-143.594 768.6,-151.2 779.109,-149.854 775.976,-143.594"/>
</g>
<!-- 11 -->
<g id="node18" class="node">
<title>11</title>
<ellipse fill="none" stroke="black" cx="171" cy="-306" rx="27" ry="18"/>
<text text-anchor="middle" x="171" y="-302.3" font-family="Times,serif" font-size="14.00">11</text>
</g>
<!-- 11&#45;&gt;5 -->
<g id="edge17" class="edge">
<title>11&#45;&gt;5</title>
<path fill="none" stroke="black" d="M179.71,-323.43C183.96,-331.92 189.15,-342.31 193.87,-351.73"/>
<polygon fill="black" stroke="black" points="190.767,-353.351 198.37,-360.73 197.028,-350.22 190.767,-353.351"/>
</g>
<!-- 14 -->
<g id="node19" class="node">
<title>14</title>
<ellipse fill="none" stroke="black" cx="315" cy="-306" rx="27" ry="18"/>
<text text-anchor="middle" x="315" y="-302.3" font-family="Times,serif" font-size="14.00">14</text>
</g>
<!-- 14&#45;&gt;5 -->
<g id="edge21" class="edge">
<title>14&#45;&gt;5</title>
<path fill="none" stroke="black" d="M295.69,-318.87C278.64,-330.24 253.6,-346.93 234.47,-359.69"/>
<polygon fill="black" stroke="black" points="232.521,-356.783 226.14,-365.24 236.403,-362.608 232.521,-356.783"/>
</g>
<!-- 17 -->
<g id="node20" class="node">
<title>17</title>
<ellipse fill="none" stroke="black" cx="387" cy="-306" rx="27" ry="18"/>
<text text-anchor="middle" x="387" y="-302.3" font-family="Times,serif" font-size="14.00">17</text>
</g>
<!-- 17&#45;&gt;5 -->
<g id="edge22" class="edge">
<title>17&#45;&gt;5</title>
<path fill="none" stroke="black" d="M365.47,-317.22C360.75,-319.56 355.74,-321.93 351,-324 314,-340.13 270.48,-356.04 241.05,-366.37"/>
<polygon fill="black" stroke="black" points="239.552,-363.185 231.26,-369.78 241.855,-369.796 239.552,-363.185"/>
</g>
<!-- 21 -->
<g id="node21" class="node">
<title>21</title>
<ellipse fill="none" stroke="black" cx="99" cy="-90" rx="27" ry="18"/>
<text text-anchor="middle" x="99" y="-86.3" font-family="Times,serif" font-size="14.00">21</text>
</g>
<!-- 21&#45;&gt;7 -->
<g id="edge23" class="edge">
<title>21&#45;&gt;7</title>
<path fill="none" stroke="black" d="M114.27,-105.27C124.2,-115.2 137.32,-128.32 148.44,-139.44"/>
<polygon fill="black" stroke="black" points="146.204,-142.154 155.75,-146.75 151.154,-137.204 146.204,-142.154"/>
</g>
<!-- 1G -->
<g id="node22" class="node">
<title>1G</title>
<ellipse fill="none" stroke="black" cx="603" cy="-90" rx="27" ry="18"/>
<text text-anchor="middle" x="603" y="-86.3" font-family="Times,serif" font-size="14.00">1G</text>
</g>
<!-- 21&#45;&gt;1G -->
<g id="edge24" class="edge">
<title>21&#45;&gt;1G</title>
<path fill="none" stroke="red" d="M123.287,-98.3563C137.063,-102.655 154.73,-107.437 170.884,-109.6 329.412,-130.825 372.213,-130.723 530.755,-109.599 543.536,-107.896 557.262,-104.569 569.281,-101.133"/>
<polygon fill="red" stroke="red" points="570.337,-104.47 578.917,-98.254 568.333,-97.7633 570.337,-104.47"/>
</g>
<!-- 1G&#45;&gt;1D -->
<g id="edge43" class="edge">
<title>1G&#45;&gt;1D</title>
<path fill="none" stroke="black" d="M603,-108.17C603,-115.87 603,-125.03 603,-133.58"/>
<polygon fill="black" stroke="black" points="599.5,-133.59 603,-143.59 606.5,-133.59 599.5,-133.59"/>
</g>
<!-- 22 -->
<g id="node23" class="node">
<title>22</title>
<ellipse fill="none" stroke="black" cx="171" cy="-234" rx="27" ry="18"/>
<text text-anchor="middle" x="171" y="-230.3" font-family="Times,serif" font-size="14.00">22</text>
</g>
<!-- 22&#45;&gt;11 -->
<g id="edge25" class="edge">
<title>22&#45;&gt;11</title>
<path fill="none" stroke="black" d="M171,-252.17C171,-259.87 171,-269.03 171,-277.58"/>
<polygon fill="black" stroke="black" points="167.5,-277.59 171,-287.59 174.5,-277.59 167.5,-277.59"/>
</g>
<!-- 23 -->
<g id="node24" class="node">
<title>23</title>
<ellipse fill="none" stroke="black" cx="315" cy="-234" rx="27" ry="18"/>
<text text-anchor="middle" x="315" y="-230.3" font-family="Times,serif" font-size="14.00">23</text>
</g>
<!-- 23&#45;&gt;15 -->
<g id="edge26" class="edge">
<title>23&#45;&gt;15</title>
<path fill="none" stroke="black" d="M299.73,-249.27C289.8,-259.2 276.68,-272.32 265.56,-283.44"/>
<polygon fill="black" stroke="black" points="262.846,-281.204 258.25,-290.75 267.796,-286.154 262.846,-281.204"/>
</g>
<!-- 25 -->
<g id="node25" class="node">
<title>25</title>
<ellipse fill="none" stroke="black" cx="171" cy="-90" rx="27" ry="18"/>
<text text-anchor="middle" x="171" y="-86.3" font-family="Times,serif" font-size="14.00">25</text>
</g>
<!-- 25&#45;&gt;7 -->
<g id="edge27" class="edge">
<title>25&#45;&gt;7</title>
<path fill="none" stroke="black" d="M171,-108.17C171,-115.87 171,-125.03 171,-133.58"/>
<polygon fill="black" stroke="black" points="167.5,-133.59 171,-143.59 174.5,-133.59 167.5,-133.59"/>
</g>
<!-- 1E -->
<g id="node26" class="node">
<title>1E</title>
<ellipse fill="none" stroke="black" cx="531" cy="-90" rx="27" ry="18"/>
<text text-anchor="middle" x="531" y="-86.3" font-family="Times,serif" font-size="14.00">1E</text>
</g>
<!-- 25&#45;&gt;1E -->
<g id="edge28" class="edge">
<title>25&#45;&gt;1E</title>
<path fill="none" stroke="red" d="M195.289,-98.3564C209.067,-102.655 226.734,-107.437 242.89,-109.6 266.814,-112.803 410.941,-115.995 458.868,-109.6 471.63,-107.897 485.335,-104.57 497.335,-101.133"/>
<polygon fill="red" stroke="red" points="498.379,-104.474 506.955,-98.2542 496.372,-97.7682 498.379,-104.474"/>
</g>
<!-- 1E&#45;&gt;1D -->
<g id="edge42" class="edge">
<title>1E&#45;&gt;1D</title>
<path fill="none" stroke="black" d="M546.27,-105.27C556.2,-115.2 569.32,-128.32 580.44,-139.44"/>
<polygon fill="black" stroke="black" points="578.204,-142.154 587.75,-146.75 583.154,-137.204 578.204,-142.154"/>
</g>
<!-- 28 -->
<g id="node27" class="node">
<title>28</title>
<ellipse fill="none" stroke="black" cx="171" cy="-18" rx="27" ry="18"/>
<text text-anchor="middle" x="171" y="-14.3" font-family="Times,serif" font-size="14.00">28</text>
</g>
<!-- 28&#45;&gt;25 -->
<g id="edge29" class="edge">
<title>28&#45;&gt;25</title>
<path fill="none" stroke="black" d="M171,-36.169C171,-43.869 171,-53.026 171,-61.583"/>
<polygon fill="black" stroke="black" points="167.5,-61.587 171,-71.587 174.5,-61.587 167.5,-61.587"/>
</g>
<!-- 1H -->
<g id="node28" class="node">
<title>1H</title>
<ellipse fill="none" stroke="black" cx="531" cy="-18" rx="27" ry="18"/>
<text text-anchor="middle" x="531" y="-14.3" font-family="Times,serif" font-size="14.00">1H</text>
</g>
<!-- 28&#45;&gt;1H -->
<g id="edge30" class="edge">
<title>28&#45;&gt;1H</title>
<path fill="none" stroke="red" d="M196.908,-23.2232C247.463,-32.6522 362.726,-50.4003 458.775,-37.5994 471.553,-35.8964 485.275,-32.5694 497.29,-29.133"/>
<polygon fill="red" stroke="red" points="498.345,-32.471 506.924,-26.254 496.34,-25.7642 498.345,-32.471"/>
</g>
<!-- 1H&#45;&gt;1E -->
<g id="edge45" class="edge">
<title>1H&#45;&gt;1E</title>
<path fill="none" stroke="black" d="M531,-36.169C531,-43.869 531,-53.026 531,-61.583"/>
<polygon fill="black" stroke="black" points="527.5,-61.587 531,-71.587 534.5,-61.587 527.5,-61.587"/>
</g>
<!-- 29 -->
<g id="node29" class="node">
<title>29</title>
<ellipse fill="none" stroke="black" cx="387" cy="-90" rx="27" ry="18"/>
<text text-anchor="middle" x="387" y="-86.3" font-family="Times,serif" font-size="14.00">29</text>
</g>
<!-- 29&#45;&gt;26 -->
<g id="edge31" class="edge">
<title>29&#45;&gt;26</title>
<path fill="none" stroke="black" d="M371.73,-105.27C361.8,-115.2 348.68,-128.32 337.56,-139.44"/>
<polygon fill="black" stroke="black" points="334.846,-137.204 330.25,-146.75 339.796,-142.154 334.846,-137.204"/>
</g>
<!-- 2I -->
<g id="node30" class="node">
<title>2I</title>
<ellipse fill="none" stroke="black" cx="675" cy="-90" rx="27" ry="18"/>
<text text-anchor="middle" x="675" y="-86.3" font-family="Times,serif" font-size="14.00">2I</text>
</g>
<!-- 29&#45;&gt;2I -->
<g id="edge32" class="edge">
<title>29&#45;&gt;2I</title>
<path fill="none" stroke="red" d="M411.281,-98.3563C425.054,-102.655 442.717,-107.437 458.868,-109.6 522.266,-118.09 539.384,-118.051 602.788,-109.599 615.564,-107.896 629.284,-104.569 641.297,-101.133"/>
<polygon fill="red" stroke="red" points="642.349,-104.472 650.928,-98.254 640.344,-97.7647 642.349,-104.472"/>
</g>
<!-- 2I&#45;&gt;C -->
<g id="edge37" class="edge">
<title>2I&#45;&gt;C</title>
<path fill="none" stroke="black" d="M690.27,-105.27C700.2,-115.2 713.32,-128.32 724.44,-139.44"/>
<polygon fill="black" stroke="black" points="722.204,-142.154 731.75,-146.75 727.154,-137.204 722.204,-142.154"/>
</g>
<!-- 30 -->
<g id="node31" class="node">
<title>30</title>
<ellipse fill="none" stroke="black" cx="459" cy="-90" rx="27" ry="18"/>
<text text-anchor="middle" x="459" y="-86.3" font-family="Times,serif" font-size="14.00">30</text>
</g>
<!-- 30&#45;&gt;26 -->
<g id="edge33" class="edge">
<title>30&#45;&gt;26</title>
<path fill="none" stroke="black" d="M437.13,-100.94C412.78,-113.11 373.24,-132.88 345.77,-146.61"/>
<polygon fill="black" stroke="black" points="343.976,-143.594 336.6,-151.2 347.109,-149.854 343.976,-143.594"/>
</g>
<!-- F -->
<g id="node32" class="node">
<title>F</title>
<ellipse fill="none" stroke="black" cx="747" cy="-90" rx="27" ry="18"/>
<text text-anchor="middle" x="747" y="-86.3" font-family="Times,serif" font-size="14.00">F</text>
</g>
<!-- 30&#45;&gt;F -->
<g id="edge34" class="edge">
<title>30&#45;&gt;F</title>
<path fill="none" stroke="red" d="M483.083,-81.746C496.977,-77.4211 514.885,-72.5805 531.245,-70.4007 594.577,-61.9625 611.673,-61.9345 675.001,-70.4 687.741,-72.1031 701.421,-75.4302 713.398,-78.8667"/>
<polygon fill="red" stroke="red" points="712.417,-82.2263 723.001,-81.7458 714.427,-75.5212 712.417,-82.2263"/>
</g>
<!-- F&#45;&gt;C -->
<g id="edge38" class="edge">
<title>F&#45;&gt;C</title>
<path fill="none" stroke="black" d="M747,-108.17C747,-115.87 747,-125.03 747,-133.58"/>
<polygon fill="black" stroke="black" points="743.5,-133.59 747,-143.59 750.5,-133.59 743.5,-133.59"/>
</g>
<!-- 31 -->
<g id="node33" class="node">
<title>31</title>
<ellipse fill="none" stroke="black" cx="459" cy="-18" rx="27" ry="18"/>
<text text-anchor="middle" x="459" y="-14.3" font-family="Times,serif" font-size="14.00">31</text>
</g>
<!-- 31&#45;&gt;30 -->
<g id="edge35" class="edge">
<title>31&#45;&gt;30</title>
<path fill="none" stroke="black" d="M459,-36.169C459,-43.869 459,-53.026 459,-61.583"/>
<polygon fill="black" stroke="black" points="455.5,-61.587 459,-71.587 462.5,-61.587 455.5,-61.587"/>
</g>
<!-- 2G -->
<g id="node34" class="node">
<title>2G</title>
<ellipse fill="none" stroke="black" cx="747" cy="-18" rx="27" ry="18"/>
<text text-anchor="middle" x="747" y="-14.3" font-family="Times,serif" font-size="14.00">2G</text>
</g>
<!-- 31&#45;&gt;2G -->
<g id="edge36" class="edge">
<title>31&#45;&gt;2G</title>
<path fill="none" stroke="red" d="M482.675,-9.28685C496.583,-4.74917 514.63,0.150726 531.19,1.59957 594.55,7.14316 668.344,-3.18288 711.158,-10.8358"/>
<polygon fill="red" stroke="red" points="710.625,-14.2965 721.094,-12.6639 711.892,-7.41202 710.625,-14.2965"/>
</g>
<!-- 2G&#45;&gt;F -->
<g id="edge40" class="edge">
<title>2G&#45;&gt;F</title>
<path fill="none" stroke="black" d="M747,-36.169C747,-43.869 747,-53.026 747,-61.583"/>
<polygon fill="black" stroke="black" points="743.5,-61.587 747,-71.587 750.5,-61.587 743.5,-61.587"/>
</g>
</g>
</svg>
