<?xml version="1.0" encoding="UTF-8" standalone="no"?>
<!DOCTYPE svg PUBLIC "-//W3C//DTD SVG 1.1//EN"
 "http://www.w3.org/Graphics/SVG/1.1/DTD/svg11.dtd">
<!-- Generated by graphviz version 2.39.20160710.1729 (20160710.1729)
 -->
<!-- Title: %3 Pages: 1 -->
<svg width="206pt" height="1484pt"
 viewBox="0.00 0.00 206.00 1484.00" xmlns="http://www.w3.org/2000/svg" xmlns:xlink="http://www.w3.org/1999/xlink">
<g id="graph0" class="graph" transform="scale(1 1) rotate(0) translate(4 1480)">
<title>%3</title>
<polygon fill="white" stroke="transparent" points="-4,4 -4,-1480 202,-1480 202,4 -4,4"/>
<!-- 4 -->
<g id="node1" class="node">
<title>4</title>
<ellipse fill="none" stroke="black" cx="27" cy="-1098" rx="27" ry="18"/>
<text text-anchor="middle" x="27" y="-1094.3" font-family="Times,serif" font-size="14.00">4</text>
</g>
<!-- 7 -->
<g id="node2" class="node">
<title>7</title>
<ellipse fill="none" stroke="black" cx="27" cy="-1170" rx="27" ry="18"/>
<text text-anchor="middle" x="27" y="-1166.3" font-family="Times,serif" font-size="14.00">7</text>
</g>
<!-- 4&#45;&gt;7 -->
<g id="edge1" class="edge">
<title>4&#45;&gt;7</title>
<path fill="none" stroke="black" d="M27,-1116.2C27,-1123.9 27,-1133 27,-1141.6"/>
<polygon fill="black" stroke="black" points="23.5001,-1141.6 27,-1151.6 30.5001,-1141.6 23.5001,-1141.6"/>
</g>
<!-- 11 -->
<g id="node3" class="node">
<title>11</title>
<ellipse fill="none" stroke="black" cx="27" cy="-1242" rx="27" ry="18"/>
<text text-anchor="middle" x="27" y="-1238.3" font-family="Times,serif" font-size="14.00">11</text>
</g>
<!-- 7&#45;&gt;11 -->
<g id="edge2" class="edge">
<title>7&#45;&gt;11</title>
<path fill="none" stroke="black" d="M27,-1188.2C27,-1195.9 27,-1205 27,-1213.6"/>
<polygon fill="black" stroke="black" points="23.5001,-1213.6 27,-1223.6 30.5001,-1213.6 23.5001,-1213.6"/>
</g>
<!-- 1D -->
<g id="node4" class="node">
<title>1D</title>
<ellipse fill="none" stroke="black" cx="171" cy="-522" rx="27" ry="18"/>
<text text-anchor="middle" x="171" y="-518.3" font-family="Times,serif" font-size="14.00">1D</text>
</g>
<!-- 7&#45;&gt;1D -->
<g id="edge3" class="edge">
<title>7&#45;&gt;1D</title>
<path fill="none" stroke="red" d="M35.0973,-1152.62C41.4924,-1138.27 50.2089,-1117.22 55.5998,-1098.08 117.222,-879.257 80.818,-812.832 142.4,-593.999 146.697,-578.73 153.105,-562.249 158.767,-548.913"/>
<polygon fill="red" stroke="red" points="162.125,-549.966 162.903,-539.4 155.706,-547.174 162.125,-549.966"/>
</g>
<!-- 31 -->
<g id="node5" class="node">
<title>31</title>
<ellipse fill="none" stroke="black" cx="27" cy="-1314" rx="27" ry="18"/>
<text text-anchor="middle" x="27" y="-1310.3" font-family="Times,serif" font-size="14.00">31</text>
</g>
<!-- 11&#45;&gt;31 -->
<g id="edge4" class="edge">
<title>11&#45;&gt;31</title>
<path fill="none" stroke="black" d="M27,-1260.2C27,-1267.9 27,-1277 27,-1285.6"/>
<polygon fill="black" stroke="black" points="23.5001,-1285.6 27,-1295.6 30.5001,-1285.6 23.5001,-1285.6"/>
</g>
<!-- C -->
<g id="node30" class="node">
<title>C</title>
<ellipse fill="none" stroke="black" cx="171" cy="-594" rx="27" ry="18"/>
<text text-anchor="middle" x="171" y="-590.3" font-family="Times,serif" font-size="14.00">C</text>
</g>
<!-- 1D&#45;&gt;C -->
<g id="edge55" class="edge">
<title>1D&#45;&gt;C</title>
<path fill="none" stroke="black" d="M171,-540.17C171,-547.87 171,-557.03 171,-565.58"/>
<polygon fill="black" stroke="black" points="167.5,-565.59 171,-575.59 174.5,-565.59 167.5,-565.59"/>
</g>
<!-- 1H -->
<g id="node34" class="node">
<title>1H</title>
<ellipse fill="none" stroke="black" cx="171" cy="-450" rx="27" ry="18"/>
<text text-anchor="middle" x="171" y="-446.3" font-family="Times,serif" font-size="14.00">1H</text>
</g>
<!-- 1D&#45;&gt;1H -->
<g id="edge54" class="edge">
<title>1D&#45;&gt;1H</title>
<path fill="none" stroke="black" d="M176.9,-504.41C177.71,-496.41 177.94,-486.76 177.59,-477.82"/>
<polygon fill="black" stroke="black" points="181.079,-477.544 176.92,-467.8 174.095,-478.011 181.079,-477.544"/>
</g>
<!-- 15 -->
<g id="node16" class="node">
<title>15</title>
<ellipse fill="none" stroke="black" cx="27" cy="-1386" rx="27" ry="18"/>
<text text-anchor="middle" x="27" y="-1382.3" font-family="Times,serif" font-size="14.00">15</text>
</g>
<!-- 31&#45;&gt;15 -->
<g id="edge13" class="edge">
<title>31&#45;&gt;15</title>
<path fill="none" stroke="black" d="M27,-1332.2C27,-1339.9 27,-1349 27,-1357.6"/>
<polygon fill="black" stroke="black" points="23.5001,-1357.6 27,-1367.6 30.5001,-1357.6 23.5001,-1357.6"/>
</g>
<!-- 2G -->
<g id="node17" class="node">
<title>2G</title>
<ellipse fill="none" stroke="black" cx="171" cy="-666" rx="27" ry="18"/>
<text text-anchor="middle" x="171" y="-662.3" font-family="Times,serif" font-size="14.00">2G</text>
</g>
<!-- 31&#45;&gt;2G -->
<g id="edge14" class="edge">
<title>31&#45;&gt;2G</title>
<path fill="none" stroke="red" d="M35.0973,-1296.62C41.4924,-1282.26 50.209,-1261.21 55.5998,-1242.07 117.222,-1023.23 80.7839,-956.787 142.4,-737.941 146.696,-722.683 153.104,-706.215 158.766,-692.89"/>
<polygon fill="red" stroke="red" points="162.121,-693.951 162.903,-683.385 155.703,-691.157 162.121,-693.951"/>
</g>
<!-- 5 -->
<g id="node6" class="node">
<title>5</title>
<ellipse fill="none" stroke="black" cx="27" cy="-18" rx="27" ry="18"/>
<text text-anchor="middle" x="27" y="-14.3" font-family="Times,serif" font-size="14.00">5</text>
</g>
<!-- 23 -->
<g id="node7" class="node">
<title>23</title>
<ellipse fill="none" stroke="black" cx="27" cy="-90" rx="27" ry="18"/>
<text text-anchor="middle" x="27" y="-86.3" font-family="Times,serif" font-size="14.00">23</text>
</g>
<!-- 5&#45;&gt;23 -->
<g id="edge5" class="edge">
<title>5&#45;&gt;23</title>
<path fill="none" stroke="black" d="M27,-36.169C27,-43.869 27,-53.026 27,-61.583"/>
<polygon fill="black" stroke="black" points="23.5001,-61.587 27,-71.587 30.5001,-61.587 23.5001,-61.587"/>
</g>
<!-- 22 -->
<g id="node8" class="node">
<title>22</title>
<ellipse fill="none" stroke="black" cx="27" cy="-162" rx="27" ry="18"/>
<text text-anchor="middle" x="27" y="-158.3" font-family="Times,serif" font-size="14.00">22</text>
</g>
<!-- 23&#45;&gt;22 -->
<g id="edge6" class="edge">
<title>23&#45;&gt;22</title>
<path fill="none" stroke="black" d="M27,-108.17C27,-115.87 27,-125.03 27,-133.58"/>
<polygon fill="black" stroke="black" points="23.5001,-133.59 27,-143.59 30.5001,-133.59 23.5001,-133.59"/>
</g>
<!-- 30 -->
<g id="node9" class="node">
<title>30</title>
<ellipse fill="none" stroke="black" cx="27" cy="-234" rx="27" ry="18"/>
<text text-anchor="middle" x="27" y="-230.3" font-family="Times,serif" font-size="14.00">30</text>
</g>
<!-- 22&#45;&gt;30 -->
<g id="edge7" class="edge">
<title>22&#45;&gt;30</title>
<path fill="none" stroke="black" d="M27,-180.17C27,-187.87 27,-197.03 27,-205.58"/>
<polygon fill="black" stroke="black" points="23.5001,-205.59 27,-215.59 30.5001,-205.59 23.5001,-205.59"/>
</g>
<!-- F -->
<g id="node24" class="node">
<title>F</title>
<ellipse fill="none" stroke="black" cx="99" cy="-90" rx="27" ry="18"/>
<text text-anchor="middle" x="99" y="-86.3" font-family="Times,serif" font-size="14.00">F</text>
</g>
<!-- 30&#45;&gt;F -->
<g id="edge41" class="edge">
<title>30&#45;&gt;F</title>
<path fill="none" stroke="red" d="M35.5421,-216.916C47.9248,-192.15 70.9784,-146.043 85.6266,-116.747"/>
<polygon fill="red" stroke="red" points="88.9028,-118.021 90.2445,-107.511 82.6418,-114.89 88.9028,-118.021"/>
</g>
<!-- 13 -->
<g id="node27" class="node">
<title>13</title>
<ellipse fill="none" stroke="black" cx="27" cy="-306" rx="27" ry="18"/>
<text text-anchor="middle" x="27" y="-302.3" font-family="Times,serif" font-size="14.00">13</text>
</g>
<!-- 30&#45;&gt;13 -->
<g id="edge42" class="edge">
<title>30&#45;&gt;13</title>
<path fill="none" stroke="black" d="M27,-252.17C27,-259.87 27,-269.03 27,-277.58"/>
<polygon fill="black" stroke="black" points="23.5001,-277.59 27,-287.59 30.5001,-277.59 23.5001,-277.59"/>
</g>
<!-- 6 -->
<g id="node10" class="node">
<title>6</title>
<ellipse fill="none" stroke="black" cx="27" cy="-594" rx="27" ry="18"/>
<text text-anchor="middle" x="27" y="-590.3" font-family="Times,serif" font-size="14.00">6</text>
</g>
<!-- 21 -->
<g id="node11" class="node">
<title>21</title>
<ellipse fill="none" stroke="black" cx="27" cy="-666" rx="27" ry="18"/>
<text text-anchor="middle" x="27" y="-662.3" font-family="Times,serif" font-size="14.00">21</text>
</g>
<!-- 6&#45;&gt;21 -->
<g id="edge8" class="edge">
<title>6&#45;&gt;21</title>
<path fill="none" stroke="black" d="M27,-612.17C27,-619.87 27,-629.03 27,-637.58"/>
<polygon fill="black" stroke="black" points="23.5001,-637.59 27,-647.59 30.5001,-637.59 23.5001,-637.59"/>
</g>
<!-- 27 -->
<g id="node12" class="node">
<title>27</title>
<ellipse fill="none" stroke="black" cx="27" cy="-738" rx="27" ry="18"/>
<text text-anchor="middle" x="27" y="-734.3" font-family="Times,serif" font-size="14.00">27</text>
</g>
<!-- 21&#45;&gt;27 -->
<g id="edge9" class="edge">
<title>21&#45;&gt;27</title>
<path fill="none" stroke="black" d="M27,-684.17C27,-691.87 27,-701.03 27,-709.58"/>
<polygon fill="black" stroke="black" points="23.5001,-709.59 27,-719.59 30.5001,-709.59 23.5001,-709.59"/>
</g>
<!-- 1G -->
<g id="node13" class="node">
<title>1G</title>
<ellipse fill="none" stroke="black" cx="171" cy="-234" rx="27" ry="18"/>
<text text-anchor="middle" x="171" y="-230.3" font-family="Times,serif" font-size="14.00">1G</text>
</g>
<!-- 21&#45;&gt;1G -->
<g id="edge10" class="edge">
<title>21&#45;&gt;1G</title>
<path fill="none" stroke="red" d="M34.4795,-648.425C40.5162,-633.96 49.052,-612.855 55.5998,-594.075 99.646,-467.749 98.3312,-432.164 142.401,-305.846 147.616,-290.896 154.096,-274.472 159.569,-261.106"/>
<polygon fill="red" stroke="red" points="162.931,-262.134 163.519,-251.555 156.463,-259.458 162.931,-262.134"/>
</g>
<!-- 2D -->
<g id="node14" class="node">
<title>2D</title>
<ellipse fill="none" stroke="black" cx="135" cy="-18" rx="27" ry="18"/>
<text text-anchor="middle" x="135" y="-14.3" font-family="Times,serif" font-size="14.00">2D</text>
</g>
<!-- 27&#45;&gt;2D -->
<g id="edge11" class="edge">
<title>27&#45;&gt;2D</title>
<path fill="none" stroke="red" d="M35.2443,-720.675C41.7247,-706.358 50.4841,-685.34 55.5993,-666.135 113.845,-447.461 105.773,-387.323 127.6,-162.079 131.477,-122.068 133.401,-75.5952 134.297,-46.4895"/>
<polygon fill="red" stroke="red" points="137.803,-46.331 134.593,-36.2345 130.806,-46.1296 137.803,-46.331"/>
</g>
<!-- 17 -->
<g id="node15" class="node">
<title>17</title>
<ellipse fill="none" stroke="black" cx="27" cy="-810" rx="27" ry="18"/>
<text text-anchor="middle" x="27" y="-806.3" font-family="Times,serif" font-size="14.00">17</text>
</g>
<!-- 27&#45;&gt;17 -->
<g id="edge12" class="edge">
<title>27&#45;&gt;17</title>
<path fill="none" stroke="black" d="M27,-756.17C27,-763.87 27,-773.03 27,-781.58"/>
<polygon fill="black" stroke="black" points="23.5001,-781.59 27,-791.59 30.5001,-781.59 23.5001,-781.59"/>
</g>
<!-- 1E -->
<g id="node26" class="node">
<title>1E</title>
<ellipse fill="none" stroke="black" cx="171" cy="-162" rx="27" ry="18"/>
<text text-anchor="middle" x="171" y="-158.3" font-family="Times,serif" font-size="14.00">1E</text>
</g>
<!-- 1G&#45;&gt;1E -->
<g id="edge48" class="edge">
<title>1G&#45;&gt;1E</title>
<path fill="none" stroke="black" d="M176.9,-216.41C177.71,-208.41 177.94,-198.76 177.59,-189.82"/>
<polygon fill="black" stroke="black" points="181.079,-189.544 176.92,-179.8 174.095,-190.011 181.079,-189.544"/>
</g>
<!-- 2I -->
<g id="node33" class="node">
<title>2I</title>
<ellipse fill="none" stroke="black" cx="171" cy="-306" rx="27" ry="18"/>
<text text-anchor="middle" x="171" y="-302.3" font-family="Times,serif" font-size="14.00">2I</text>
</g>
<!-- 1G&#45;&gt;2I -->
<g id="edge49" class="edge">
<title>1G&#45;&gt;2I</title>
<path fill="none" stroke="black" d="M171,-252.17C171,-259.87 171,-269.03 171,-277.58"/>
<polygon fill="black" stroke="black" points="167.5,-277.59 171,-287.59 174.5,-277.59 167.5,-277.59"/>
</g>
<!-- 2H -->
<g id="node19" class="node">
<title>2H</title>
<ellipse fill="none" stroke="black" cx="171" cy="-90" rx="27" ry="18"/>
<text text-anchor="middle" x="171" y="-86.3" font-family="Times,serif" font-size="14.00">2H</text>
</g>
<!-- 2D&#45;&gt;2H -->
<g id="edge22" class="edge">
<title>2D&#45;&gt;2H</title>
<path fill="none" stroke="black" d="M138.13,-36.169C141.69,-45.008 146.91,-55.767 152.22,-65.335"/>
<polygon fill="black" stroke="black" points="149.238,-67.169 157.3,-74.043 155.284,-63.6417 149.238,-67.169"/>
</g>
<!-- 2D&#45;&gt;F -->
<g id="edge21" class="edge">
<title>2D&#45;&gt;F</title>
<path fill="none" stroke="black" d="M121.51,-33.623C116.29,-42.06 110.66,-52.724 106.17,-62.501"/>
<polygon fill="black" stroke="black" points="102.877,-61.2982 102.12,-71.866 109.302,-64.0768 102.877,-61.2982"/>
</g>
<!-- 29 -->
<g id="node31" class="node">
<title>29</title>
<ellipse fill="none" stroke="black" cx="27" cy="-882" rx="27" ry="18"/>
<text text-anchor="middle" x="27" y="-878.3" font-family="Times,serif" font-size="14.00">29</text>
</g>
<!-- 17&#45;&gt;29 -->
<g id="edge36" class="edge">
<title>17&#45;&gt;29</title>
<path fill="none" stroke="black" d="M27,-828.17C27,-835.87 27,-845.03 27,-853.58"/>
<polygon fill="black" stroke="black" points="23.5001,-853.59 27,-863.59 30.5001,-853.59 23.5001,-853.59"/>
</g>
<!-- 26 -->
<g id="node22" class="node">
<title>26</title>
<ellipse fill="none" stroke="black" cx="27" cy="-1458" rx="27" ry="18"/>
<text text-anchor="middle" x="27" y="-1454.3" font-family="Times,serif" font-size="14.00">26</text>
</g>
<!-- 15&#45;&gt;26 -->
<g id="edge19" class="edge">
<title>15&#45;&gt;26</title>
<path fill="none" stroke="black" d="M27,-1404.2C27,-1411.9 27,-1421 27,-1429.6"/>
<polygon fill="black" stroke="black" points="23.5001,-1429.6 27,-1439.6 30.5001,-1429.6 23.5001,-1429.6"/>
</g>
<!-- A -->
<g id="node23" class="node">
<title>A</title>
<ellipse fill="none" stroke="black" cx="171" cy="-738" rx="27" ry="18"/>
<text text-anchor="middle" x="171" y="-734.3" font-family="Times,serif" font-size="14.00">A</text>
</g>
<!-- 15&#45;&gt;A -->
<g id="edge20" class="edge">
<title>15&#45;&gt;A</title>
<path fill="none" stroke="red" d="M34.9585,-1368.58C41.273,-1354.2 49.949,-1333.13 55.5999,-1314.06 116.671,-1107.95 155.403,-850.76 167.184,-766.3"/>
<polygon fill="red" stroke="red" points="170.677,-766.592 168.578,-756.208 163.743,-765.635 170.677,-766.592"/>
</g>
<!-- 2G&#45;&gt;A -->
<g id="edge50" class="edge">
<title>2G&#45;&gt;A</title>
<path fill="none" stroke="black" d="M165.08,-683.8C164.28,-691.82 164.06,-701.48 164.42,-710.4"/>
<polygon fill="black" stroke="black" points="160.93,-710.67 165.1,-720.41 167.914,-710.196 160.93,-710.67"/>
</g>
<!-- 2G&#45;&gt;C -->
<g id="edge51" class="edge">
<title>2G&#45;&gt;C</title>
<path fill="none" stroke="black" d="M176.9,-648.41C177.71,-640.41 177.94,-630.76 177.59,-621.82"/>
<polygon fill="black" stroke="black" points="181.079,-621.544 176.92,-611.8 174.095,-622.011 181.079,-621.544"/>
</g>
<!-- 8 -->
<g id="node18" class="node">
<title>8</title>
<ellipse fill="none" stroke="black" cx="27" cy="-522" rx="27" ry="18"/>
<text text-anchor="middle" x="27" y="-518.3" font-family="Times,serif" font-size="14.00">8</text>
</g>
<!-- 8&#45;&gt;6 -->
<g id="edge15" class="edge">
<title>8&#45;&gt;6</title>
<path fill="none" stroke="black" d="M27,-540.17C27,-547.87 27,-557.03 27,-565.58"/>
<polygon fill="black" stroke="black" points="23.5001,-565.59 27,-575.59 30.5001,-565.59 23.5001,-565.59"/>
</g>
<!-- 8&#45;&gt;2H -->
<g id="edge16" class="edge">
<title>8&#45;&gt;2H</title>
<path fill="none" stroke="red" d="M34.4814,-504.448C40.5191,-490.002 49.0553,-468.924 55.599,-450.166 99.6805,-323.805 98.3189,-288.193 142.401,-161.832 147.616,-146.885 154.095,-130.464 159.568,-117.1"/>
<polygon fill="red" stroke="red" points="162.929,-118.13 163.519,-107.552 156.461,-115.454 162.929,-118.13"/>
</g>
<!-- 2H&#45;&gt;2D -->
<g id="edge25" class="edge">
<title>2H&#45;&gt;2D</title>
<path fill="none" stroke="black" d="M167.88,-71.866C164.29,-62.935 159,-52.038 153.62,-42.388"/>
<polygon fill="black" stroke="black" points="156.562,-40.4855 148.49,-33.623 150.521,-44.0214 156.562,-40.4855"/>
</g>
<!-- 2H&#45;&gt;1E -->
<g id="edge26" class="edge">
<title>2H&#45;&gt;1E</title>
<path fill="none" stroke="black" d="M165.08,-107.8C164.28,-115.82 164.06,-125.48 164.42,-134.4"/>
<polygon fill="black" stroke="black" points="160.93,-134.67 165.1,-144.41 167.914,-134.196 160.93,-134.67"/>
</g>
<!-- 9 -->
<g id="node20" class="node">
<title>9</title>
<ellipse fill="none" stroke="black" cx="27" cy="-1026" rx="27" ry="18"/>
<text text-anchor="middle" x="27" y="-1022.3" font-family="Times,serif" font-size="14.00">9</text>
</g>
<!-- 9&#45;&gt;4 -->
<g id="edge17" class="edge">
<title>9&#45;&gt;4</title>
<path fill="none" stroke="black" d="M27,-1044.2C27,-1051.9 27,-1061 27,-1069.6"/>
<polygon fill="black" stroke="black" points="23.5001,-1069.6 27,-1079.6 30.5001,-1069.6 23.5001,-1069.6"/>
</g>
<!-- 2E -->
<g id="node21" class="node">
<title>2E</title>
<ellipse fill="none" stroke="black" cx="171" cy="-378" rx="27" ry="18"/>
<text text-anchor="middle" x="171" y="-374.3" font-family="Times,serif" font-size="14.00">2E</text>
</g>
<!-- 9&#45;&gt;2E -->
<g id="edge18" class="edge">
<title>9&#45;&gt;2E</title>
<path fill="none" stroke="red" d="M35.0976,-1008.63C41.4929,-994.28 50.2095,-973.241 55.5996,-954.104 117.242,-735.254 80.7848,-668.806 142.4,-449.948 146.696,-434.688 153.104,-418.219 158.766,-404.892"/>
<polygon fill="red" stroke="red" points="162.121,-405.953 162.903,-395.387 155.703,-403.159 162.121,-405.953"/>
</g>
<!-- 2E&#45;&gt;2I -->
<g id="edge44" class="edge">
<title>2E&#45;&gt;2I</title>
<path fill="none" stroke="black" d="M176.9,-360.41C177.71,-352.41 177.94,-342.76 177.59,-333.82"/>
<polygon fill="black" stroke="black" points="181.079,-333.544 176.92,-323.8 174.095,-334.011 181.079,-333.544"/>
</g>
<!-- 2E&#45;&gt;1H -->
<g id="edge45" class="edge">
<title>2E&#45;&gt;1H</title>
<path fill="none" stroke="black" d="M165.08,-395.8C164.28,-403.82 164.06,-413.48 164.42,-422.4"/>
<polygon fill="black" stroke="black" points="160.93,-422.67 165.1,-432.41 167.914,-422.196 160.93,-422.67"/>
</g>
<!-- 26&#45;&gt;C -->
<g id="edge35" class="edge">
<title>26&#45;&gt;C</title>
<path fill="none" stroke="red" d="M35.3568,-1440.7C41.9025,-1426.39 50.695,-1405.37 55.5996,-1386.1 135.139,-1073.65 62.8509,-978.329 142.401,-665.882 146.309,-650.531 152.686,-634.068 158.428,-620.776"/>
<polygon fill="red" stroke="red" points="161.776,-621.86 162.643,-611.3 155.381,-619.014 161.776,-621.86"/>
</g>
<!-- A&#45;&gt;2G -->
<g id="edge52" class="edge">
<title>A&#45;&gt;2G</title>
<path fill="none" stroke="black" d="M176.9,-720.41C177.71,-712.41 177.94,-702.76 177.59,-693.82"/>
<polygon fill="black" stroke="black" points="181.079,-693.544 176.92,-683.8 174.095,-694.011 181.079,-693.544"/>
</g>
<!-- F&#45;&gt;2D -->
<g id="edge23" class="edge">
<title>F&#45;&gt;2D</title>
<path fill="none" stroke="black" d="M112.7,-74.043C117.87,-65.64 123.42,-55.099 127.86,-45.432"/>
<polygon fill="black" stroke="black" points="131.109,-46.7365 131.87,-36.169 124.685,-43.9555 131.109,-46.7365"/>
</g>
<!-- B -->
<g id="node25" class="node">
<title>B</title>
<ellipse fill="none" stroke="black" cx="99" cy="-162" rx="27" ry="18"/>
<text text-anchor="middle" x="99" y="-158.3" font-family="Times,serif" font-size="14.00">B</text>
</g>
<!-- F&#45;&gt;B -->
<g id="edge24" class="edge">
<title>F&#45;&gt;B</title>
<path fill="none" stroke="black" d="M93.084,-107.8C92.28,-115.82 92.057,-125.48 92.416,-134.4"/>
<polygon fill="black" stroke="black" points="88.9265,-134.674 93.105,-144.41 95.91,-134.193 88.9265,-134.674"/>
</g>
<!-- B&#45;&gt;F -->
<g id="edge27" class="edge">
<title>B&#45;&gt;F</title>
<path fill="none" stroke="black" d="M104.9,-144.41C105.71,-136.41 105.94,-126.76 105.59,-117.82"/>
<polygon fill="black" stroke="black" points="109.079,-117.544 104.92,-107.8 102.095,-118.011 109.079,-117.544"/>
</g>
<!-- 1E&#45;&gt;1G -->
<g id="edge29" class="edge">
<title>1E&#45;&gt;1G</title>
<path fill="none" stroke="black" d="M165.08,-179.8C164.28,-187.82 164.06,-197.48 164.42,-206.4"/>
<polygon fill="black" stroke="black" points="160.93,-206.67 165.1,-216.41 167.914,-206.196 160.93,-206.67"/>
</g>
<!-- 1E&#45;&gt;2H -->
<g id="edge28" class="edge">
<title>1E&#45;&gt;2H</title>
<path fill="none" stroke="black" d="M176.9,-144.41C177.71,-136.41 177.94,-126.76 177.59,-117.82"/>
<polygon fill="black" stroke="black" points="181.079,-117.544 176.92,-107.8 174.095,-118.011 181.079,-117.544"/>
</g>
<!-- 13&#45;&gt;B -->
<g id="edge30" class="edge">
<title>13&#45;&gt;B</title>
<path fill="none" stroke="red" d="M35.5421,-288.916C47.9248,-264.15 70.9784,-218.043 85.6266,-188.747"/>
<polygon fill="red" stroke="red" points="88.9028,-190.021 90.2445,-179.511 82.6418,-186.89 88.9028,-190.021"/>
</g>
<!-- 25 -->
<g id="node28" class="node">
<title>25</title>
<ellipse fill="none" stroke="black" cx="27" cy="-378" rx="27" ry="18"/>
<text text-anchor="middle" x="27" y="-374.3" font-family="Times,serif" font-size="14.00">25</text>
</g>
<!-- 13&#45;&gt;25 -->
<g id="edge31" class="edge">
<title>13&#45;&gt;25</title>
<path fill="none" stroke="black" d="M27,-324.17C27,-331.87 27,-341.03 27,-349.58"/>
<polygon fill="black" stroke="black" points="23.5001,-349.59 27,-359.59 30.5001,-349.59 23.5001,-349.59"/>
</g>
<!-- 25&#45;&gt;1E -->
<g id="edge32" class="edge">
<title>25&#45;&gt;1E</title>
<path fill="none" stroke="red" d="M38.0603,-361.409C63.137,-323.795 124.44,-231.84 154.218,-187.172"/>
<polygon fill="red" stroke="red" points="157.267,-188.909 159.902,-178.647 151.443,-185.026 157.267,-188.909"/>
</g>
<!-- 14 -->
<g id="node29" class="node">
<title>14</title>
<ellipse fill="none" stroke="black" cx="27" cy="-450" rx="27" ry="18"/>
<text text-anchor="middle" x="27" y="-446.3" font-family="Times,serif" font-size="14.00">14</text>
</g>
<!-- 25&#45;&gt;14 -->
<g id="edge33" class="edge">
<title>25&#45;&gt;14</title>
<path fill="none" stroke="black" d="M27,-396.17C27,-403.87 27,-413.03 27,-421.58"/>
<polygon fill="black" stroke="black" points="23.5001,-421.59 27,-431.59 30.5001,-421.59 23.5001,-421.59"/>
</g>
<!-- 14&#45;&gt;8 -->
<g id="edge34" class="edge">
<title>14&#45;&gt;8</title>
<path fill="none" stroke="black" d="M27,-468.17C27,-475.87 27,-485.03 27,-493.58"/>
<polygon fill="black" stroke="black" points="23.5001,-493.59 27,-503.59 30.5001,-493.59 23.5001,-493.59"/>
</g>
<!-- C&#45;&gt;2G -->
<g id="edge53" class="edge">
<title>C&#45;&gt;2G</title>
<path fill="none" stroke="black" d="M165.08,-611.8C164.28,-619.82 164.06,-629.48 164.42,-638.4"/>
<polygon fill="black" stroke="black" points="160.93,-638.67 165.1,-648.41 167.914,-638.196 160.93,-638.67"/>
</g>
<!-- 28 -->
<g id="node32" class="node">
<title>28</title>
<ellipse fill="none" stroke="black" cx="27" cy="-954" rx="27" ry="18"/>
<text text-anchor="middle" x="27" y="-950.3" font-family="Times,serif" font-size="14.00">28</text>
</g>
<!-- 29&#45;&gt;28 -->
<g id="edge37" class="edge">
<title>29&#45;&gt;28</title>
<path fill="none" stroke="black" d="M27,-900.17C27,-907.87 27,-917.03 27,-925.58"/>
<polygon fill="black" stroke="black" points="23.5001,-925.59 27,-935.59 30.5001,-925.59 23.5001,-925.59"/>
</g>
<!-- 29&#45;&gt;2I -->
<g id="edge38" class="edge">
<title>29&#45;&gt;2I</title>
<path fill="none" stroke="red" d="M34.9554,-864.567C41.2682,-850.182 49.9432,-829.109 55.6,-810.031 111.283,-622.237 86.7054,-565.734 142.4,-377.942 146.907,-362.745 153.332,-346.281 158.95,-332.944"/>
<polygon fill="red" stroke="red" points="162.308,-333.995 163.044,-323.426 155.877,-331.229 162.308,-333.995"/>
</g>
<!-- 28&#45;&gt;9 -->
<g id="edge39" class="edge">
<title>28&#45;&gt;9</title>
<path fill="none" stroke="black" d="M27,-972.17C27,-979.87 27,-989.03 27,-997.58"/>
<polygon fill="black" stroke="black" points="23.5001,-997.6 27,-1007.6 30.5001,-997.6 23.5001,-997.6"/>
</g>
<!-- 28&#45;&gt;1H -->
<g id="edge40" class="edge">
<title>28&#45;&gt;1H</title>
<path fill="none" stroke="red" d="M34.762,-936.523C40.9625,-922.115 49.5809,-901.042 55.5997,-882.091 105.441,-725.153 92.5603,-678.851 142.4,-521.912 147.197,-506.81 153.644,-490.36 159.202,-477.01"/>
<polygon fill="red" stroke="red" points="162.562,-478.051 163.238,-467.478 156.116,-475.322 162.562,-478.051"/>
</g>
<!-- 2I&#45;&gt;2E -->
<g id="edge43" class="edge">
<title>2I&#45;&gt;2E</title>
<path fill="none" stroke="black" d="M165.08,-323.8C164.28,-331.82 164.06,-341.48 164.42,-350.4"/>
<polygon fill="black" stroke="black" points="160.93,-350.67 165.1,-360.41 167.914,-350.196 160.93,-350.67"/>
</g>
<!-- 1H&#45;&gt;1D -->
<g id="edge47" class="edge">
<title>1H&#45;&gt;1D</title>
<path fill="none" stroke="black" d="M165.08,-467.8C164.28,-475.82 164.06,-485.48 164.42,-494.4"/>
<polygon fill="black" stroke="black" points="160.93,-494.67 165.1,-504.41 167.914,-494.196 160.93,-494.67"/>
</g>
<!-- 1H&#45;&gt;2E -->
<g id="edge46" class="edge">
<title>1H&#45;&gt;2E</title>
<path fill="none" stroke="black" d="M176.9,-432.41C177.71,-424.41 177.94,-414.76 177.59,-405.82"/>
<polygon fill="black" stroke="black" points="181.079,-405.544 176.92,-395.8 174.095,-406.011 181.079,-405.544"/>
</g>
</g>
</svg>
