<?xml version="1.0" encoding="UTF-8" standalone="no"?>
<!DOCTYPE svg PUBLIC "-//W3C//DTD SVG 1.1//EN"
 "http://www.w3.org/Graphics/SVG/1.1/DTD/svg11.dtd">
<!-- Generated by graphviz version 2.39.20160710.1729 (20160710.1729)
 -->
<!-- Title: %3 Pages: 1 -->
<svg width="62pt" height="2276pt"
 viewBox="0.00 0.00 62.00 2276.00" xmlns="http://www.w3.org/2000/svg" xmlns:xlink="http://www.w3.org/1999/xlink">
<g id="graph0" class="graph" transform="scale(1 1) rotate(0) translate(4 2272)">
<title>%3</title>
<polygon fill="white" stroke="transparent" points="-4,4 -4,-2272 58,-2272 58,4 -4,4"/>
<!-- 0 -->
<g id="node1" class="node">
<title>0</title>
<ellipse fill="none" stroke="black" cx="27" cy="-2250" rx="27" ry="18"/>
<text text-anchor="middle" x="27" y="-2246.3" font-family="Times,serif" font-size="14.00">0</text>
</g>
<!-- 1 -->
<g id="node2" class="node">
<title>1</title>
<ellipse fill="none" stroke="black" cx="27" cy="-594" rx="27" ry="18"/>
<text text-anchor="middle" x="27" y="-590.3" font-family="Times,serif" font-size="14.00">1</text>
</g>
<!-- 25 -->
<g id="node3" class="node">
<title>25</title>
<ellipse fill="none" stroke="black" cx="27" cy="-666" rx="27" ry="18"/>
<text text-anchor="middle" x="27" y="-662.3" font-family="Times,serif" font-size="14.00">25</text>
</g>
<!-- 1&#45;&gt;25 -->
<g id="edge1" class="edge">
<title>1&#45;&gt;25</title>
<path fill="none" stroke="black" d="M27,-612.17C27,-619.87 27,-629.03 27,-637.58"/>
<polygon fill="black" stroke="black" points="23.5001,-637.59 27,-647.59 30.5001,-637.59 23.5001,-637.59"/>
</g>
<!-- 20 -->
<g id="node4" class="node">
<title>20</title>
<ellipse fill="none" stroke="black" cx="27" cy="-738" rx="27" ry="18"/>
<text text-anchor="middle" x="27" y="-734.3" font-family="Times,serif" font-size="14.00">20</text>
</g>
<!-- 25&#45;&gt;20 -->
<g id="edge2" class="edge">
<title>25&#45;&gt;20</title>
<path fill="none" stroke="black" d="M27,-684.17C27,-691.87 27,-701.03 27,-709.58"/>
<polygon fill="black" stroke="black" points="23.5001,-709.59 27,-719.59 30.5001,-709.59 23.5001,-709.59"/>
</g>
<!-- 14 -->
<g id="node5" class="node">
<title>14</title>
<ellipse fill="none" stroke="black" cx="27" cy="-810" rx="27" ry="18"/>
<text text-anchor="middle" x="27" y="-806.3" font-family="Times,serif" font-size="14.00">14</text>
</g>
<!-- 20&#45;&gt;14 -->
<g id="edge3" class="edge">
<title>20&#45;&gt;14</title>
<path fill="none" stroke="black" d="M27,-756.17C27,-763.87 27,-773.03 27,-781.58"/>
<polygon fill="black" stroke="black" points="23.5001,-781.59 27,-791.59 30.5001,-781.59 23.5001,-781.59"/>
</g>
<!-- 8 -->
<g id="node24" class="node">
<title>8</title>
<ellipse fill="none" stroke="black" cx="27" cy="-882" rx="27" ry="18"/>
<text text-anchor="middle" x="27" y="-878.3" font-family="Times,serif" font-size="14.00">8</text>
</g>
<!-- 14&#45;&gt;8 -->
<g id="edge26" class="edge">
<title>14&#45;&gt;8</title>
<path fill="none" stroke="black" d="M27,-828.17C27,-835.87 27,-845.03 27,-853.58"/>
<polygon fill="black" stroke="black" points="23.5001,-853.59 27,-863.59 30.5001,-853.59 23.5001,-853.59"/>
</g>
<!-- 2 -->
<g id="node6" class="node">
<title>2</title>
<ellipse fill="none" stroke="black" cx="27" cy="-1818" rx="27" ry="18"/>
<text text-anchor="middle" x="27" y="-1814.3" font-family="Times,serif" font-size="14.00">2</text>
</g>
<!-- 11 -->
<g id="node7" class="node">
<title>11</title>
<ellipse fill="none" stroke="black" cx="27" cy="-1890" rx="27" ry="18"/>
<text text-anchor="middle" x="27" y="-1886.3" font-family="Times,serif" font-size="14.00">11</text>
</g>
<!-- 2&#45;&gt;11 -->
<g id="edge4" class="edge">
<title>2&#45;&gt;11</title>
<path fill="none" stroke="black" d="M27,-1836.2C27,-1843.9 27,-1853 27,-1861.6"/>
<polygon fill="black" stroke="black" points="23.5001,-1861.6 27,-1871.6 30.5001,-1861.6 23.5001,-1861.6"/>
</g>
<!-- 31 -->
<g id="node8" class="node">
<title>31</title>
<ellipse fill="none" stroke="black" cx="27" cy="-1962" rx="27" ry="18"/>
<text text-anchor="middle" x="27" y="-1958.3" font-family="Times,serif" font-size="14.00">31</text>
</g>
<!-- 11&#45;&gt;31 -->
<g id="edge5" class="edge">
<title>11&#45;&gt;31</title>
<path fill="none" stroke="black" d="M27,-1908.2C27,-1915.9 27,-1925 27,-1933.6"/>
<polygon fill="black" stroke="black" points="23.5001,-1933.6 27,-1943.6 30.5001,-1933.6 23.5001,-1933.6"/>
</g>
<!-- 10 -->
<g id="node9" class="node">
<title>10</title>
<ellipse fill="none" stroke="black" cx="27" cy="-2034" rx="27" ry="18"/>
<text text-anchor="middle" x="27" y="-2030.3" font-family="Times,serif" font-size="14.00">10</text>
</g>
<!-- 31&#45;&gt;10 -->
<g id="edge6" class="edge">
<title>31&#45;&gt;10</title>
<path fill="none" stroke="black" d="M27,-1980.2C27,-1987.9 27,-1997 27,-2005.6"/>
<polygon fill="black" stroke="black" points="23.5001,-2005.6 27,-2015.6 30.5001,-2005.6 23.5001,-2005.6"/>
</g>
<!-- 15 -->
<g id="node26" class="node">
<title>15</title>
<ellipse fill="none" stroke="black" cx="27" cy="-2106" rx="27" ry="18"/>
<text text-anchor="middle" x="27" y="-2102.3" font-family="Times,serif" font-size="14.00">15</text>
</g>
<!-- 10&#45;&gt;15 -->
<g id="edge20" class="edge">
<title>10&#45;&gt;15</title>
<path fill="none" stroke="black" d="M27,-2052.2C27,-2059.9 27,-2069 27,-2077.6"/>
<polygon fill="black" stroke="black" points="23.5001,-2077.6 27,-2087.6 30.5001,-2077.6 23.5001,-2077.6"/>
</g>
<!-- 3 -->
<g id="node10" class="node">
<title>3</title>
<ellipse fill="none" stroke="black" cx="27" cy="-1242" rx="27" ry="18"/>
<text text-anchor="middle" x="27" y="-1238.3" font-family="Times,serif" font-size="14.00">3</text>
</g>
<!-- 17 -->
<g id="node11" class="node">
<title>17</title>
<ellipse fill="none" stroke="black" cx="27" cy="-1314" rx="27" ry="18"/>
<text text-anchor="middle" x="27" y="-1310.3" font-family="Times,serif" font-size="14.00">17</text>
</g>
<!-- 3&#45;&gt;17 -->
<g id="edge7" class="edge">
<title>3&#45;&gt;17</title>
<path fill="none" stroke="black" d="M27,-1260.2C27,-1267.9 27,-1277 27,-1285.6"/>
<polygon fill="black" stroke="black" points="23.5001,-1285.6 27,-1295.6 30.5001,-1285.6 23.5001,-1285.6"/>
</g>
<!-- 24 -->
<g id="node12" class="node">
<title>24</title>
<ellipse fill="none" stroke="black" cx="27" cy="-1386" rx="27" ry="18"/>
<text text-anchor="middle" x="27" y="-1382.3" font-family="Times,serif" font-size="14.00">24</text>
</g>
<!-- 17&#45;&gt;24 -->
<g id="edge8" class="edge">
<title>17&#45;&gt;24</title>
<path fill="none" stroke="black" d="M27,-1332.2C27,-1339.9 27,-1349 27,-1357.6"/>
<polygon fill="black" stroke="black" points="23.5001,-1357.6 27,-1367.6 30.5001,-1357.6 23.5001,-1357.6"/>
</g>
<!-- 29 -->
<g id="node13" class="node">
<title>29</title>
<ellipse fill="none" stroke="black" cx="27" cy="-1458" rx="27" ry="18"/>
<text text-anchor="middle" x="27" y="-1454.3" font-family="Times,serif" font-size="14.00">29</text>
</g>
<!-- 24&#45;&gt;29 -->
<g id="edge9" class="edge">
<title>24&#45;&gt;29</title>
<path fill="none" stroke="black" d="M27,-1404.2C27,-1411.9 27,-1421 27,-1429.6"/>
<polygon fill="black" stroke="black" points="23.5001,-1429.6 27,-1439.6 30.5001,-1429.6 23.5001,-1429.6"/>
</g>
<!-- 28 -->
<g id="node31" class="node">
<title>28</title>
<ellipse fill="none" stroke="black" cx="27" cy="-1530" rx="27" ry="18"/>
<text text-anchor="middle" x="27" y="-1526.3" font-family="Times,serif" font-size="14.00">28</text>
</g>
<!-- 29&#45;&gt;28 -->
<g id="edge28" class="edge">
<title>29&#45;&gt;28</title>
<path fill="none" stroke="black" d="M27,-1476.2C27,-1483.9 27,-1493 27,-1501.6"/>
<polygon fill="black" stroke="black" points="23.5001,-1501.6 27,-1511.6 30.5001,-1501.6 23.5001,-1501.6"/>
</g>
<!-- 4 -->
<g id="node14" class="node">
<title>4</title>
<ellipse fill="none" stroke="black" cx="27" cy="-1674" rx="27" ry="18"/>
<text text-anchor="middle" x="27" y="-1670.3" font-family="Times,serif" font-size="14.00">4</text>
</g>
<!-- 7 -->
<g id="node15" class="node">
<title>7</title>
<ellipse fill="none" stroke="black" cx="27" cy="-1746" rx="27" ry="18"/>
<text text-anchor="middle" x="27" y="-1742.3" font-family="Times,serif" font-size="14.00">7</text>
</g>
<!-- 4&#45;&gt;7 -->
<g id="edge10" class="edge">
<title>4&#45;&gt;7</title>
<path fill="none" stroke="black" d="M27,-1692.2C27,-1699.9 27,-1709 27,-1717.6"/>
<polygon fill="black" stroke="black" points="23.5001,-1717.6 27,-1727.6 30.5001,-1717.6 23.5001,-1717.6"/>
</g>
<!-- 7&#45;&gt;2 -->
<g id="edge11" class="edge">
<title>7&#45;&gt;2</title>
<path fill="none" stroke="black" d="M27,-1764.2C27,-1771.9 27,-1781 27,-1789.6"/>
<polygon fill="black" stroke="black" points="23.5001,-1789.6 27,-1799.6 30.5001,-1789.6 23.5001,-1789.6"/>
</g>
<!-- 5 -->
<g id="node16" class="node">
<title>5</title>
<ellipse fill="none" stroke="black" cx="27" cy="-18" rx="27" ry="18"/>
<text text-anchor="middle" x="27" y="-14.3" font-family="Times,serif" font-size="14.00">5</text>
</g>
<!-- 23 -->
<g id="node17" class="node">
<title>23</title>
<ellipse fill="none" stroke="black" cx="27" cy="-90" rx="27" ry="18"/>
<text text-anchor="middle" x="27" y="-86.3" font-family="Times,serif" font-size="14.00">23</text>
</g>
<!-- 5&#45;&gt;23 -->
<g id="edge12" class="edge">
<title>5&#45;&gt;23</title>
<path fill="none" stroke="black" d="M27,-36.169C27,-43.869 27,-53.026 27,-61.583"/>
<polygon fill="black" stroke="black" points="23.5001,-61.587 27,-71.587 30.5001,-61.587 23.5001,-61.587"/>
</g>
<!-- 22 -->
<g id="node18" class="node">
<title>22</title>
<ellipse fill="none" stroke="black" cx="27" cy="-162" rx="27" ry="18"/>
<text text-anchor="middle" x="27" y="-158.3" font-family="Times,serif" font-size="14.00">22</text>
</g>
<!-- 23&#45;&gt;22 -->
<g id="edge13" class="edge">
<title>23&#45;&gt;22</title>
<path fill="none" stroke="black" d="M27,-108.17C27,-115.87 27,-125.03 27,-133.58"/>
<polygon fill="black" stroke="black" points="23.5001,-133.59 27,-143.59 30.5001,-133.59 23.5001,-133.59"/>
</g>
<!-- 19 -->
<g id="node19" class="node">
<title>19</title>
<ellipse fill="none" stroke="black" cx="27" cy="-234" rx="27" ry="18"/>
<text text-anchor="middle" x="27" y="-230.3" font-family="Times,serif" font-size="14.00">19</text>
</g>
<!-- 22&#45;&gt;19 -->
<g id="edge14" class="edge">
<title>22&#45;&gt;19</title>
<path fill="none" stroke="black" d="M27,-180.17C27,-187.87 27,-197.03 27,-205.58"/>
<polygon fill="black" stroke="black" points="23.5001,-205.59 27,-215.59 30.5001,-205.59 23.5001,-205.59"/>
</g>
<!-- 30 -->
<g id="node32" class="node">
<title>30</title>
<ellipse fill="none" stroke="black" cx="27" cy="-306" rx="27" ry="18"/>
<text text-anchor="middle" x="27" y="-302.3" font-family="Times,serif" font-size="14.00">30</text>
</g>
<!-- 19&#45;&gt;30 -->
<g id="edge29" class="edge">
<title>19&#45;&gt;30</title>
<path fill="none" stroke="black" d="M27,-252.17C27,-259.87 27,-269.03 27,-277.58"/>
<polygon fill="black" stroke="black" points="23.5001,-277.59 27,-287.59 30.5001,-277.59 23.5001,-277.59"/>
</g>
<!-- 6 -->
<g id="node20" class="node">
<title>6</title>
<ellipse fill="none" stroke="black" cx="27" cy="-954" rx="27" ry="18"/>
<text text-anchor="middle" x="27" y="-950.3" font-family="Times,serif" font-size="14.00">6</text>
</g>
<!-- 16 -->
<g id="node21" class="node">
<title>16</title>
<ellipse fill="none" stroke="black" cx="27" cy="-1026" rx="27" ry="18"/>
<text text-anchor="middle" x="27" y="-1022.3" font-family="Times,serif" font-size="14.00">16</text>
</g>
<!-- 6&#45;&gt;16 -->
<g id="edge15" class="edge">
<title>6&#45;&gt;16</title>
<path fill="none" stroke="black" d="M27,-972.17C27,-979.87 27,-989.03 27,-997.58"/>
<polygon fill="black" stroke="black" points="23.5001,-997.6 27,-1007.6 30.5001,-997.6 23.5001,-997.6"/>
</g>
<!-- 21 -->
<g id="node22" class="node">
<title>21</title>
<ellipse fill="none" stroke="black" cx="27" cy="-1098" rx="27" ry="18"/>
<text text-anchor="middle" x="27" y="-1094.3" font-family="Times,serif" font-size="14.00">21</text>
</g>
<!-- 16&#45;&gt;21 -->
<g id="edge16" class="edge">
<title>16&#45;&gt;21</title>
<path fill="none" stroke="black" d="M27,-1044.2C27,-1051.9 27,-1061 27,-1069.6"/>
<polygon fill="black" stroke="black" points="23.5001,-1069.6 27,-1079.6 30.5001,-1069.6 23.5001,-1069.6"/>
</g>
<!-- 27 -->
<g id="node23" class="node">
<title>27</title>
<ellipse fill="none" stroke="black" cx="27" cy="-1170" rx="27" ry="18"/>
<text text-anchor="middle" x="27" y="-1166.3" font-family="Times,serif" font-size="14.00">27</text>
</g>
<!-- 21&#45;&gt;27 -->
<g id="edge17" class="edge">
<title>21&#45;&gt;27</title>
<path fill="none" stroke="black" d="M27,-1116.2C27,-1123.9 27,-1133 27,-1141.6"/>
<polygon fill="black" stroke="black" points="23.5001,-1141.6 27,-1151.6 30.5001,-1141.6 23.5001,-1141.6"/>
</g>
<!-- 27&#45;&gt;3 -->
<g id="edge27" class="edge">
<title>27&#45;&gt;3</title>
<path fill="none" stroke="black" d="M27,-1188.2C27,-1195.9 27,-1205 27,-1213.6"/>
<polygon fill="black" stroke="black" points="23.5001,-1213.6 27,-1223.6 30.5001,-1213.6 23.5001,-1213.6"/>
</g>
<!-- 8&#45;&gt;6 -->
<g id="edge18" class="edge">
<title>8&#45;&gt;6</title>
<path fill="none" stroke="black" d="M27,-900.17C27,-907.87 27,-917.03 27,-925.58"/>
<polygon fill="black" stroke="black" points="23.5001,-925.59 27,-935.59 30.5001,-925.59 23.5001,-925.59"/>
</g>
<!-- 9 -->
<g id="node25" class="node">
<title>9</title>
<ellipse fill="none" stroke="black" cx="27" cy="-1602" rx="27" ry="18"/>
<text text-anchor="middle" x="27" y="-1598.3" font-family="Times,serif" font-size="14.00">9</text>
</g>
<!-- 9&#45;&gt;4 -->
<g id="edge19" class="edge">
<title>9&#45;&gt;4</title>
<path fill="none" stroke="black" d="M27,-1620.2C27,-1627.9 27,-1637 27,-1645.6"/>
<polygon fill="black" stroke="black" points="23.5001,-1645.6 27,-1655.6 30.5001,-1645.6 23.5001,-1645.6"/>
</g>
<!-- 26 -->
<g id="node27" class="node">
<title>26</title>
<ellipse fill="none" stroke="black" cx="27" cy="-2178" rx="27" ry="18"/>
<text text-anchor="middle" x="27" y="-2174.3" font-family="Times,serif" font-size="14.00">26</text>
</g>
<!-- 15&#45;&gt;26 -->
<g id="edge21" class="edge">
<title>15&#45;&gt;26</title>
<path fill="none" stroke="black" d="M27,-2124.2C27,-2131.9 27,-2141 27,-2149.6"/>
<polygon fill="black" stroke="black" points="23.5001,-2149.6 27,-2159.6 30.5001,-2149.6 23.5001,-2149.6"/>
</g>
<!-- 26&#45;&gt;0 -->
<g id="edge22" class="edge">
<title>26&#45;&gt;0</title>
<path fill="none" stroke="black" d="M27,-2196.2C27,-2203.9 27,-2213 27,-2221.6"/>
<polygon fill="black" stroke="black" points="23.5001,-2221.6 27,-2231.6 30.5001,-2221.6 23.5001,-2221.6"/>
</g>
<!-- 12 -->
<g id="node28" class="node">
<title>12</title>
<ellipse fill="none" stroke="black" cx="27" cy="-450" rx="27" ry="18"/>
<text text-anchor="middle" x="27" y="-446.3" font-family="Times,serif" font-size="14.00">12</text>
</g>
<!-- 18 -->
<g id="node29" class="node">
<title>18</title>
<ellipse fill="none" stroke="black" cx="27" cy="-522" rx="27" ry="18"/>
<text text-anchor="middle" x="27" y="-518.3" font-family="Times,serif" font-size="14.00">18</text>
</g>
<!-- 12&#45;&gt;18 -->
<g id="edge23" class="edge">
<title>12&#45;&gt;18</title>
<path fill="none" stroke="black" d="M27,-468.17C27,-475.87 27,-485.03 27,-493.58"/>
<polygon fill="black" stroke="black" points="23.5001,-493.59 27,-503.59 30.5001,-493.59 23.5001,-493.59"/>
</g>
<!-- 18&#45;&gt;1 -->
<g id="edge24" class="edge">
<title>18&#45;&gt;1</title>
<path fill="none" stroke="black" d="M27,-540.17C27,-547.87 27,-557.03 27,-565.58"/>
<polygon fill="black" stroke="black" points="23.5001,-565.59 27,-575.59 30.5001,-565.59 23.5001,-565.59"/>
</g>
<!-- 13 -->
<g id="node30" class="node">
<title>13</title>
<ellipse fill="none" stroke="black" cx="27" cy="-378" rx="27" ry="18"/>
<text text-anchor="middle" x="27" y="-374.3" font-family="Times,serif" font-size="14.00">13</text>
</g>
<!-- 13&#45;&gt;12 -->
<g id="edge25" class="edge">
<title>13&#45;&gt;12</title>
<path fill="none" stroke="black" d="M27,-396.17C27,-403.87 27,-413.03 27,-421.58"/>
<polygon fill="black" stroke="black" points="23.5001,-421.59 27,-431.59 30.5001,-421.59 23.5001,-421.59"/>
</g>
<!-- 28&#45;&gt;9 -->
<g id="edge31" class="edge">
<title>28&#45;&gt;9</title>
<path fill="none" stroke="black" d="M27,-1548.2C27,-1555.9 27,-1565 27,-1573.6"/>
<polygon fill="black" stroke="black" points="23.5001,-1573.6 27,-1583.6 30.5001,-1573.6 23.5001,-1573.6"/>
</g>
<!-- 30&#45;&gt;13 -->
<g id="edge30" class="edge">
<title>30&#45;&gt;13</title>
<path fill="none" stroke="black" d="M27,-324.17C27,-331.87 27,-341.03 27,-349.58"/>
<polygon fill="black" stroke="black" points="23.5001,-349.59 27,-359.59 30.5001,-349.59 23.5001,-349.59"/>
</g>
</g>
</svg>
