<?xml version="1.0" encoding="UTF-8" standalone="no"?>
<!DOCTYPE svg PUBLIC "-//W3C//DTD SVG 1.1//EN"
 "http://www.w3.org/Graphics/SVG/1.1/DTD/svg11.dtd">
<!-- Generated by graphviz version 2.39.20160710.1729 (20160710.1729)
 -->
<!-- Title: %3 Pages: 1 -->
<svg width="926pt" height="404pt"
 viewBox="0.00 0.00 926.00 404.00" xmlns="http://www.w3.org/2000/svg" xmlns:xlink="http://www.w3.org/1999/xlink">
<g id="graph0" class="graph" transform="scale(1 1) rotate(0) translate(4 400)">
<title>%3</title>
<polygon fill="white" stroke="transparent" points="-4,4 -4,-400 922,-400 922,4 -4,4"/>
<!-- 0 -->
<g id="node1" class="node">
<title>0</title>
<ellipse fill="none" stroke="black" cx="99" cy="-90" rx="27" ry="18"/>
<text text-anchor="middle" x="99" y="-86.3" font-family="Times,serif" font-size="14.00">0</text>
</g>
<!-- 1 -->
<g id="node2" class="node">
<title>1</title>
<ellipse fill="none" stroke="black" cx="279" cy="-90" rx="27" ry="18"/>
<text text-anchor="middle" x="279" y="-86.3" font-family="Times,serif" font-size="14.00">1</text>
</g>
<!-- 2 -->
<g id="node3" class="node">
<title>2</title>
<ellipse fill="none" stroke="black" cx="423" cy="-90" rx="27" ry="18"/>
<text text-anchor="middle" x="423" y="-86.3" font-family="Times,serif" font-size="14.00">2</text>
</g>
<!-- 3 -->
<g id="node4" class="node">
<title>3</title>
<ellipse fill="none" stroke="black" cx="531" cy="-18" rx="27" ry="18"/>
<text text-anchor="middle" x="531" y="-14.3" font-family="Times,serif" font-size="14.00">3</text>
</g>
<!-- 4 -->
<g id="node5" class="node">
<title>4</title>
<ellipse fill="none" stroke="black" cx="459" cy="-306" rx="27" ry="18"/>
<text text-anchor="middle" x="459" y="-302.3" font-family="Times,serif" font-size="14.00">4</text>
</g>
<!-- 5 -->
<g id="node6" class="node">
<title>5</title>
<ellipse fill="none" stroke="black" cx="639" cy="-378" rx="27" ry="18"/>
<text text-anchor="middle" x="639" y="-374.3" font-family="Times,serif" font-size="14.00">5</text>
</g>
<!-- 4&#45;&gt;5 -->
<g id="edge1" class="edge">
<title>4&#45;&gt;5</title>
<path fill="none" stroke="black" d="M480.53,-317.22C485.25,-319.56 490.26,-321.93 495,-324 532,-340.13 575.52,-356.04 604.95,-366.37"/>
<polygon fill="black" stroke="black" points="604.145,-369.796 614.74,-369.78 606.448,-363.185 604.145,-369.796"/>
</g>
<!-- 6 -->
<g id="node7" class="node">
<title>6</title>
<ellipse fill="none" stroke="black" cx="531" cy="-306" rx="27" ry="18"/>
<text text-anchor="middle" x="531" y="-302.3" font-family="Times,serif" font-size="14.00">6</text>
</g>
<!-- 6&#45;&gt;5 -->
<g id="edge2" class="edge">
<title>6&#45;&gt;5</title>
<path fill="none" stroke="black" d="M550.31,-318.87C567.36,-330.24 592.4,-346.93 611.53,-359.69"/>
<polygon fill="black" stroke="black" points="609.597,-362.608 619.86,-365.24 613.479,-356.783 609.597,-362.608"/>
</g>
<!-- 7 -->
<g id="node8" class="node">
<title>7</title>
<ellipse fill="none" stroke="black" cx="603" cy="-162" rx="27" ry="18"/>
<text text-anchor="middle" x="603" y="-158.3" font-family="Times,serif" font-size="14.00">7</text>
</g>
<!-- 13 -->
<g id="node9" class="node">
<title>13</title>
<ellipse fill="none" stroke="black" cx="675" cy="-234" rx="27" ry="18"/>
<text text-anchor="middle" x="675" y="-230.3" font-family="Times,serif" font-size="14.00">13</text>
</g>
<!-- 7&#45;&gt;13 -->
<g id="edge3" class="edge">
<title>7&#45;&gt;13</title>
<path fill="none" stroke="black" d="M618.27,-177.27C628.2,-187.2 641.32,-200.32 652.44,-211.44"/>
<polygon fill="black" stroke="black" points="650.204,-214.154 659.75,-218.75 655.154,-209.204 650.204,-214.154"/>
</g>
<!-- 15 -->
<g id="node10" class="node">
<title>15</title>
<ellipse fill="none" stroke="black" cx="675" cy="-306" rx="27" ry="18"/>
<text text-anchor="middle" x="675" y="-302.3" font-family="Times,serif" font-size="14.00">15</text>
</g>
<!-- 13&#45;&gt;15 -->
<g id="edge4" class="edge">
<title>13&#45;&gt;15</title>
<path fill="none" stroke="black" d="M675,-252.17C675,-259.87 675,-269.03 675,-277.58"/>
<polygon fill="black" stroke="black" points="671.5,-277.59 675,-287.59 678.5,-277.59 671.5,-277.59"/>
</g>
<!-- 15&#45;&gt;5 -->
<g id="edge5" class="edge">
<title>15&#45;&gt;5</title>
<path fill="none" stroke="black" d="M666.29,-323.43C662.04,-331.92 656.85,-342.31 652.13,-351.73"/>
<polygon fill="black" stroke="black" points="648.972,-350.22 647.63,-360.73 655.233,-353.351 648.972,-350.22"/>
</g>
<!-- 8 -->
<g id="node11" class="node">
<title>8</title>
<ellipse fill="none" stroke="black" cx="675" cy="-90" rx="27" ry="18"/>
<text text-anchor="middle" x="675" y="-86.3" font-family="Times,serif" font-size="14.00">8</text>
</g>
<!-- 26 -->
<g id="node12" class="node">
<title>26</title>
<ellipse fill="none" stroke="black" cx="747" cy="-162" rx="27" ry="18"/>
<text text-anchor="middle" x="747" y="-158.3" font-family="Times,serif" font-size="14.00">26</text>
</g>
<!-- 8&#45;&gt;26 -->
<g id="edge6" class="edge">
<title>8&#45;&gt;26</title>
<path fill="none" stroke="black" d="M690.27,-105.27C700.2,-115.2 713.32,-128.32 724.44,-139.44"/>
<polygon fill="black" stroke="black" points="722.204,-142.154 731.75,-146.75 727.154,-137.204 722.204,-142.154"/>
</g>
<!-- 26&#45;&gt;13 -->
<g id="edge7" class="edge">
<title>26&#45;&gt;13</title>
<path fill="none" stroke="black" d="M731.73,-177.27C721.8,-187.2 708.68,-200.32 697.56,-211.44"/>
<polygon fill="black" stroke="black" points="694.846,-209.204 690.25,-218.75 699.796,-214.154 694.846,-209.204"/>
</g>
<!-- 9 -->
<g id="node13" class="node">
<title>9</title>
<ellipse fill="none" stroke="black" cx="747" cy="-18" rx="27" ry="18"/>
<text text-anchor="middle" x="747" y="-14.3" font-family="Times,serif" font-size="14.00">9</text>
</g>
<!-- 27 -->
<g id="node14" class="node">
<title>27</title>
<ellipse fill="none" stroke="black" cx="747" cy="-90" rx="27" ry="18"/>
<text text-anchor="middle" x="747" y="-86.3" font-family="Times,serif" font-size="14.00">27</text>
</g>
<!-- 9&#45;&gt;27 -->
<g id="edge8" class="edge">
<title>9&#45;&gt;27</title>
<path fill="none" stroke="black" d="M747,-36.169C747,-43.869 747,-53.026 747,-61.583"/>
<polygon fill="black" stroke="black" points="743.5,-61.587 747,-71.587 750.5,-61.587 743.5,-61.587"/>
</g>
<!-- 27&#45;&gt;26 -->
<g id="edge9" class="edge">
<title>27&#45;&gt;26</title>
<path fill="none" stroke="black" d="M747,-108.17C747,-115.87 747,-125.03 747,-133.58"/>
<polygon fill="black" stroke="black" points="743.5,-133.59 747,-143.59 750.5,-133.59 743.5,-133.59"/>
</g>
<!-- 10 -->
<g id="node15" class="node">
<title>10</title>
<ellipse fill="none" stroke="black" cx="243" cy="-18" rx="27" ry="18"/>
<text text-anchor="middle" x="243" y="-14.3" font-family="Times,serif" font-size="14.00">10</text>
</g>
<!-- 10&#45;&gt;1 -->
<g id="edge10" class="edge">
<title>10&#45;&gt;1</title>
<path fill="none" stroke="black" d="M251.71,-35.429C255.96,-43.919 261.15,-54.307 265.87,-63.733"/>
<polygon fill="black" stroke="black" points="262.767,-65.3527 270.37,-72.731 269.027,-62.2216 262.767,-65.3527"/>
</g>
<!-- 11 -->
<g id="node16" class="node">
<title>11</title>
<ellipse fill="none" stroke="black" cx="603" cy="-306" rx="27" ry="18"/>
<text text-anchor="middle" x="603" y="-302.3" font-family="Times,serif" font-size="14.00">11</text>
</g>
<!-- 11&#45;&gt;5 -->
<g id="edge11" class="edge">
<title>11&#45;&gt;5</title>
<path fill="none" stroke="black" d="M611.71,-323.43C615.96,-331.92 621.15,-342.31 625.87,-351.73"/>
<polygon fill="black" stroke="black" points="622.767,-353.351 630.37,-360.73 629.028,-350.22 622.767,-353.351"/>
</g>
<!-- 12 -->
<g id="node17" class="node">
<title>12</title>
<ellipse fill="none" stroke="black" cx="27" cy="-18" rx="27" ry="18"/>
<text text-anchor="middle" x="27" y="-14.3" font-family="Times,serif" font-size="14.00">12</text>
</g>
<!-- 12&#45;&gt;0 -->
<g id="edge12" class="edge">
<title>12&#45;&gt;0</title>
<path fill="none" stroke="black" d="M42.269,-33.269C52.197,-43.197 65.315,-56.315 76.436,-67.436"/>
<polygon fill="black" stroke="black" points="74.207,-70.1568 83.753,-74.753 79.1568,-65.207 74.207,-70.1568"/>
</g>
<!-- 14 -->
<g id="node18" class="node">
<title>14</title>
<ellipse fill="none" stroke="black" cx="747" cy="-306" rx="27" ry="18"/>
<text text-anchor="middle" x="747" y="-302.3" font-family="Times,serif" font-size="14.00">14</text>
</g>
<!-- 14&#45;&gt;5 -->
<g id="edge13" class="edge">
<title>14&#45;&gt;5</title>
<path fill="none" stroke="black" d="M727.69,-318.87C710.64,-330.24 685.6,-346.93 666.47,-359.69"/>
<polygon fill="black" stroke="black" points="664.521,-356.783 658.14,-365.24 668.403,-362.608 664.521,-356.783"/>
</g>
<!-- 16 -->
<g id="node19" class="node">
<title>16</title>
<ellipse fill="none" stroke="black" cx="99" cy="-18" rx="27" ry="18"/>
<text text-anchor="middle" x="99" y="-14.3" font-family="Times,serif" font-size="14.00">16</text>
</g>
<!-- 16&#45;&gt;0 -->
<g id="edge14" class="edge">
<title>16&#45;&gt;0</title>
<path fill="none" stroke="black" d="M99,-36.169C99,-43.869 99,-53.026 99,-61.583"/>
<polygon fill="black" stroke="black" points="95.5001,-61.587 99,-71.587 102.5,-61.587 95.5001,-61.587"/>
</g>
<!-- 17 -->
<g id="node20" class="node">
<title>17</title>
<ellipse fill="none" stroke="black" cx="819" cy="-306" rx="27" ry="18"/>
<text text-anchor="middle" x="819" y="-302.3" font-family="Times,serif" font-size="14.00">17</text>
</g>
<!-- 17&#45;&gt;5 -->
<g id="edge15" class="edge">
<title>17&#45;&gt;5</title>
<path fill="none" stroke="black" d="M797.47,-317.22C792.75,-319.56 787.74,-321.93 783,-324 746,-340.13 702.48,-356.04 673.05,-366.37"/>
<polygon fill="black" stroke="black" points="671.552,-363.185 663.26,-369.78 673.855,-369.796 671.552,-363.185"/>
</g>
<!-- 18 -->
<g id="node21" class="node">
<title>18</title>
<ellipse fill="none" stroke="black" cx="171" cy="-18" rx="27" ry="18"/>
<text text-anchor="middle" x="171" y="-14.3" font-family="Times,serif" font-size="14.00">18</text>
</g>
<!-- 18&#45;&gt;0 -->
<g id="edge16" class="edge">
<title>18&#45;&gt;0</title>
<path fill="none" stroke="black" d="M155.73,-33.269C145.8,-43.197 132.68,-56.315 121.56,-67.436"/>
<polygon fill="black" stroke="black" points="118.842,-65.2048 114.25,-74.753 123.794,-70.1522 118.842,-65.2048"/>
</g>
<!-- 19 -->
<g id="node22" class="node">
<title>19</title>
<ellipse fill="none" stroke="black" cx="315" cy="-18" rx="27" ry="18"/>
<text text-anchor="middle" x="315" y="-14.3" font-family="Times,serif" font-size="14.00">19</text>
</g>
<!-- 19&#45;&gt;1 -->
<g id="edge17" class="edge">
<title>19&#45;&gt;1</title>
<path fill="none" stroke="black" d="M306.29,-35.429C302.04,-43.919 296.85,-54.307 292.13,-63.733"/>
<polygon fill="black" stroke="black" points="288.973,-62.2216 287.63,-72.731 295.233,-65.3527 288.973,-62.2216"/>
</g>
<!-- 20 -->
<g id="node23" class="node">
<title>20</title>
<ellipse fill="none" stroke="black" cx="387" cy="-18" rx="27" ry="18"/>
<text text-anchor="middle" x="387" y="-14.3" font-family="Times,serif" font-size="14.00">20</text>
</g>
<!-- 20&#45;&gt;2 -->
<g id="edge18" class="edge">
<title>20&#45;&gt;2</title>
<path fill="none" stroke="black" d="M395.71,-35.429C399.96,-43.919 405.15,-54.307 409.87,-63.733"/>
<polygon fill="black" stroke="black" points="406.767,-65.3527 414.37,-72.731 413.027,-62.2216 406.767,-65.3527"/>
</g>
<!-- 21 -->
<g id="node24" class="node">
<title>21</title>
<ellipse fill="none" stroke="black" cx="531" cy="-90" rx="27" ry="18"/>
<text text-anchor="middle" x="531" y="-86.3" font-family="Times,serif" font-size="14.00">21</text>
</g>
<!-- 21&#45;&gt;7 -->
<g id="edge19" class="edge">
<title>21&#45;&gt;7</title>
<path fill="none" stroke="black" d="M546.27,-105.27C556.2,-115.2 569.32,-128.32 580.44,-139.44"/>
<polygon fill="black" stroke="black" points="578.204,-142.154 587.75,-146.75 583.154,-137.204 578.204,-142.154"/>
</g>
<!-- 22 -->
<g id="node25" class="node">
<title>22</title>
<ellipse fill="none" stroke="black" cx="603" cy="-234" rx="27" ry="18"/>
<text text-anchor="middle" x="603" y="-230.3" font-family="Times,serif" font-size="14.00">22</text>
</g>
<!-- 22&#45;&gt;11 -->
<g id="edge20" class="edge">
<title>22&#45;&gt;11</title>
<path fill="none" stroke="black" d="M603,-252.17C603,-259.87 603,-269.03 603,-277.58"/>
<polygon fill="black" stroke="black" points="599.5,-277.59 603,-287.59 606.5,-277.59 599.5,-277.59"/>
</g>
<!-- 23 -->
<g id="node26" class="node">
<title>23</title>
<ellipse fill="none" stroke="black" cx="747" cy="-234" rx="27" ry="18"/>
<text text-anchor="middle" x="747" y="-230.3" font-family="Times,serif" font-size="14.00">23</text>
</g>
<!-- 23&#45;&gt;15 -->
<g id="edge21" class="edge">
<title>23&#45;&gt;15</title>
<path fill="none" stroke="black" d="M731.73,-249.27C721.8,-259.2 708.68,-272.32 697.56,-283.44"/>
<polygon fill="black" stroke="black" points="694.846,-281.204 690.25,-290.75 699.796,-286.154 694.846,-281.204"/>
</g>
<!-- 24 -->
<g id="node27" class="node">
<title>24</title>
<ellipse fill="none" stroke="black" cx="459" cy="-18" rx="27" ry="18"/>
<text text-anchor="middle" x="459" y="-14.3" font-family="Times,serif" font-size="14.00">24</text>
</g>
<!-- 24&#45;&gt;2 -->
<g id="edge22" class="edge">
<title>24&#45;&gt;2</title>
<path fill="none" stroke="black" d="M450.29,-35.429C446.04,-43.919 440.85,-54.307 436.13,-63.733"/>
<polygon fill="black" stroke="black" points="432.973,-62.2216 431.63,-72.731 439.233,-65.3527 432.973,-62.2216"/>
</g>
<!-- 25 -->
<g id="node28" class="node">
<title>25</title>
<ellipse fill="none" stroke="black" cx="603" cy="-90" rx="27" ry="18"/>
<text text-anchor="middle" x="603" y="-86.3" font-family="Times,serif" font-size="14.00">25</text>
</g>
<!-- 25&#45;&gt;7 -->
<g id="edge23" class="edge">
<title>25&#45;&gt;7</title>
<path fill="none" stroke="black" d="M603,-108.17C603,-115.87 603,-125.03 603,-133.58"/>
<polygon fill="black" stroke="black" points="599.5,-133.59 603,-143.59 606.5,-133.59 599.5,-133.59"/>
</g>
<!-- 28 -->
<g id="node29" class="node">
<title>28</title>
<ellipse fill="none" stroke="black" cx="603" cy="-18" rx="27" ry="18"/>
<text text-anchor="middle" x="603" y="-14.3" font-family="Times,serif" font-size="14.00">28</text>
</g>
<!-- 28&#45;&gt;25 -->
<g id="edge24" class="edge">
<title>28&#45;&gt;25</title>
<path fill="none" stroke="black" d="M603,-36.169C603,-43.869 603,-53.026 603,-61.583"/>
<polygon fill="black" stroke="black" points="599.5,-61.587 603,-71.587 606.5,-61.587 599.5,-61.587"/>
</g>
<!-- 29 -->
<g id="node30" class="node">
<title>29</title>
<ellipse fill="none" stroke="black" cx="819" cy="-90" rx="27" ry="18"/>
<text text-anchor="middle" x="819" y="-86.3" font-family="Times,serif" font-size="14.00">29</text>
</g>
<!-- 29&#45;&gt;26 -->
<g id="edge25" class="edge">
<title>29&#45;&gt;26</title>
<path fill="none" stroke="black" d="M803.73,-105.27C793.8,-115.2 780.68,-128.32 769.56,-139.44"/>
<polygon fill="black" stroke="black" points="766.846,-137.204 762.25,-146.75 771.796,-142.154 766.846,-137.204"/>
</g>
<!-- 30 -->
<g id="node31" class="node">
<title>30</title>
<ellipse fill="none" stroke="black" cx="891" cy="-90" rx="27" ry="18"/>
<text text-anchor="middle" x="891" y="-86.3" font-family="Times,serif" font-size="14.00">30</text>
</g>
<!-- 30&#45;&gt;26 -->
<g id="edge26" class="edge">
<title>30&#45;&gt;26</title>
<path fill="none" stroke="black" d="M869.13,-100.94C844.78,-113.11 805.24,-132.88 777.77,-146.61"/>
<polygon fill="black" stroke="black" points="775.976,-143.594 768.6,-151.2 779.109,-149.854 775.976,-143.594"/>
</g>
<!-- 31 -->
<g id="node32" class="node">
<title>31</title>
<ellipse fill="none" stroke="black" cx="891" cy="-18" rx="27" ry="18"/>
<text text-anchor="middle" x="891" y="-14.3" font-family="Times,serif" font-size="14.00">31</text>
</g>
<!-- 31&#45;&gt;30 -->
<g id="edge27" class="edge">
<title>31&#45;&gt;30</title>
<path fill="none" stroke="black" d="M891,-36.169C891,-43.869 891,-53.026 891,-61.583"/>
<polygon fill="black" stroke="black" points="887.5,-61.587 891,-71.587 894.5,-61.587 887.5,-61.587"/>
</g>
</g>
</svg>
