<?xml version="1.0" encoding="UTF-8" standalone="no"?>
<!DOCTYPE svg PUBLIC "-//W3C//DTD SVG 1.1//EN"
 "http://www.w3.org/Graphics/SVG/1.1/DTD/svg11.dtd">
<!-- Generated by graphviz version 2.39.20160710.1729 (20160710.1729)
 -->
<!-- Title: %3 Pages: 1 -->
<svg width="908pt" height="584pt"
 viewBox="0.00 0.00 908.00 584.00" xmlns="http://www.w3.org/2000/svg" xmlns:xlink="http://www.w3.org/1999/xlink">
<g id="graph0" class="graph" transform="scale(1 1) rotate(0) translate(4 580)">
<title>%3</title>
<polygon fill="white" stroke="transparent" points="-4,4 -4,-580 904,-580 904,4 -4,4"/>
<!-- 0 -->
<g id="node1" class="node">
<title>0</title>
<ellipse fill="black" stroke="black" cx="90" cy="-126" rx="18" ry="18"/>
</g>
<!-- 1 -->
<g id="node2" class="node">
<title>1</title>
<ellipse fill="black" stroke="black" cx="270" cy="-126" rx="18" ry="18"/>
</g>
<!-- 2 -->
<g id="node3" class="node">
<title>2</title>
<ellipse fill="black" stroke="black" cx="414" cy="-126" rx="18" ry="18"/>
</g>
<!-- 3 -->
<g id="node4" class="node">
<title>3</title>
<ellipse fill="black" stroke="black" cx="522" cy="-18" rx="18" ry="18"/>
</g>
<!-- 4 -->
<g id="node5" class="node">
<title>4</title>
<ellipse fill="black" stroke="black" cx="450" cy="-450" rx="18" ry="18"/>
</g>
<!-- 5 -->
<g id="node6" class="node">
<title>5</title>
<ellipse fill="black" stroke="black" cx="630" cy="-558" rx="18" ry="18"/>
</g>
<!-- 4&#45;&gt;5 -->
<g id="edge1" class="edge">
<title>4&#45;&gt;5</title>
<path fill="none" stroke="black" stroke-width="6" d="M470.3,-462.18C502.25,-481.35 564.41,-518.65 601.05,-540.63"/>
<polygon fill="black" stroke="black" stroke-width="6" points="598.504,-545.225 609.78,-545.87 603.908,-536.222 598.504,-545.225"/>
</g>
<!-- 6 -->
<g id="node7" class="node">
<title>6</title>
<ellipse fill="black" stroke="black" cx="522" cy="-450" rx="18" ry="18"/>
</g>
<!-- 6&#45;&gt;5 -->
<g id="edge2" class="edge">
<title>6&#45;&gt;5</title>
<path fill="none" stroke="black" stroke-width="6" d="M537.02,-465.02C555.29,-483.29 586.32,-514.32 607.46,-535.46"/>
<polygon fill="black" stroke="black" stroke-width="6" points="603.977,-539.401 614.76,-542.76 611.401,-531.977 603.977,-539.401"/>
</g>
<!-- 7 -->
<g id="node8" class="node">
<title>7</title>
<ellipse fill="black" stroke="black" cx="594" cy="-234" rx="18" ry="18"/>
</g>
<!-- 13 -->
<g id="node9" class="node">
<title>13</title>
<ellipse fill="black" stroke="black" cx="666" cy="-342" rx="18" ry="18"/>
</g>
<!-- 7&#45;&gt;13 -->
<g id="edge3" class="edge">
<title>7&#45;&gt;13</title>
<path fill="none" stroke="black" stroke-width="6" d="M605.25,-250.88C617.03,-268.55 635.67,-296.51 649.2,-316.8"/>
<polygon fill="black" stroke="black" stroke-width="6" points="644.913,-319.834 654.83,-325.24 653.648,-314.008 644.913,-319.834"/>
</g>
<!-- 15 -->
<g id="node10" class="node">
<title>15</title>
<ellipse fill="black" stroke="black" cx="666" cy="-450" rx="18" ry="18"/>
</g>
<!-- 13&#45;&gt;15 -->
<g id="edge4" class="edge">
<title>13&#45;&gt;15</title>
<path fill="none" stroke="black" stroke-width="6" d="M666,-360.32C666,-377.18 666,-402.43 666,-421.85"/>
<polygon fill="black" stroke="black" stroke-width="6" points="660.75,-421.95 666,-431.95 671.25,-421.95 660.75,-421.95"/>
</g>
<!-- 15&#45;&gt;5 -->
<g id="edge5" class="edge">
<title>15&#45;&gt;5</title>
<path fill="none" stroke="black" stroke-width="6" d="M660.06,-467.83C654.38,-484.87 645.73,-510.81 639.17,-530.49"/>
<polygon fill="black" stroke="black" stroke-width="6" points="634.135,-528.992 635.95,-540.14 644.095,-532.316 634.135,-528.992"/>
</g>
<!-- 8 -->
<g id="node11" class="node">
<title>8</title>
<ellipse fill="black" stroke="black" cx="666" cy="-126" rx="18" ry="18"/>
</g>
<!-- 26 -->
<g id="node12" class="node">
<title>26</title>
<ellipse fill="black" stroke="black" cx="738" cy="-234" rx="18" ry="18"/>
</g>
<!-- 8&#45;&gt;26 -->
<g id="edge6" class="edge">
<title>8&#45;&gt;26</title>
<path fill="none" stroke="black" stroke-width="6" d="M677.25,-142.88C689.03,-160.55 707.67,-188.51 721.2,-208.8"/>
<polygon fill="black" stroke="black" stroke-width="6" points="716.913,-211.834 726.83,-217.24 725.648,-206.008 716.913,-211.834"/>
</g>
<!-- 26&#45;&gt;13 -->
<g id="edge7" class="edge">
<title>26&#45;&gt;13</title>
<path fill="none" stroke="black" stroke-width="6" d="M726.75,-250.88C714.97,-268.55 696.33,-296.51 682.8,-316.8"/>
<polygon fill="black" stroke="black" stroke-width="6" points="678.352,-314.008 677.17,-325.24 687.087,-319.834 678.352,-314.008"/>
</g>
<!-- 9 -->
<g id="node13" class="node">
<title>9</title>
<ellipse fill="black" stroke="black" cx="738" cy="-18" rx="18" ry="18"/>
</g>
<!-- 27 -->
<g id="node14" class="node">
<title>27</title>
<ellipse fill="black" stroke="black" cx="738" cy="-126" rx="18" ry="18"/>
</g>
<!-- 9&#45;&gt;27 -->
<g id="edge8" class="edge">
<title>9&#45;&gt;27</title>
<path fill="none" stroke="black" stroke-width="6" d="M738,-36.321C738,-53.179 738,-78.435 738,-97.853"/>
<polygon fill="black" stroke="black" stroke-width="6" points="732.75,-97.9499 738,-107.95 743.25,-97.9501 732.75,-97.9499"/>
</g>
<!-- 27&#45;&gt;26 -->
<g id="edge9" class="edge">
<title>27&#45;&gt;26</title>
<path fill="none" stroke="black" stroke-width="6" d="M738,-144.32C738,-161.18 738,-186.43 738,-205.85"/>
<polygon fill="black" stroke="black" stroke-width="6" points="732.75,-205.95 738,-215.95 743.25,-205.95 732.75,-205.95"/>
</g>
<!-- 10 -->
<g id="node15" class="node">
<title>10</title>
<ellipse fill="black" stroke="black" cx="234" cy="-18" rx="18" ry="18"/>
</g>
<!-- 10&#45;&gt;1 -->
<g id="edge10" class="edge">
<title>10&#45;&gt;1</title>
<path fill="none" stroke="black" stroke-width="6" d="M239.94,-35.834C245.62,-52.874 254.27,-78.807 260.83,-98.494"/>
<polygon fill="black" stroke="black" stroke-width="6" points="255.904,-100.317 264.05,-108.14 265.863,-96.9921 255.904,-100.317"/>
</g>
<!-- 11 -->
<g id="node16" class="node">
<title>11</title>
<ellipse fill="black" stroke="black" cx="594" cy="-450" rx="18" ry="18"/>
</g>
<!-- 11&#45;&gt;5 -->
<g id="edge11" class="edge">
<title>11&#45;&gt;5</title>
<path fill="none" stroke="black" stroke-width="6" d="M599.94,-467.83C605.62,-484.87 614.27,-510.81 620.83,-530.49"/>
<polygon fill="black" stroke="black" stroke-width="6" points="615.905,-532.316 624.05,-540.14 625.865,-528.992 615.905,-532.316"/>
</g>
<!-- 12 -->
<g id="node17" class="node">
<title>12</title>
<ellipse fill="black" stroke="black" cx="18" cy="-18" rx="18" ry="18"/>
</g>
<!-- 12&#45;&gt;0 -->
<g id="edge12" class="edge">
<title>12&#45;&gt;0</title>
<path fill="none" stroke="black" stroke-width="6" d="M29.25,-34.875C41.033,-52.549 59.671,-80.507 73.198,-100.8"/>
<polygon fill="black" stroke="black" stroke-width="6" points="68.9118,-103.835 78.829,-109.24 77.6462,-98.0077 68.9118,-103.835"/>
</g>
<!-- 14 -->
<g id="node18" class="node">
<title>14</title>
<ellipse fill="black" stroke="black" cx="738" cy="-450" rx="18" ry="18"/>
</g>
<!-- 14&#45;&gt;5 -->
<g id="edge13" class="edge">
<title>14&#45;&gt;5</title>
<path fill="none" stroke="black" stroke-width="6" d="M722.98,-465.02C704.71,-483.29 673.68,-514.32 652.54,-535.46"/>
<polygon fill="black" stroke="black" stroke-width="6" points="648.599,-531.977 645.24,-542.76 656.023,-539.401 648.599,-531.977"/>
</g>
<!-- 16 -->
<g id="node19" class="node">
<title>16</title>
<ellipse fill="black" stroke="black" cx="90" cy="-18" rx="18" ry="18"/>
</g>
<!-- 16&#45;&gt;0 -->
<g id="edge14" class="edge">
<title>16&#45;&gt;0</title>
<path fill="none" stroke="black" stroke-width="6" d="M90,-36.321C90,-53.179 90,-78.435 90,-97.853"/>
<polygon fill="black" stroke="black" stroke-width="6" points="84.7501,-97.9499 90,-107.95 95.2501,-97.9501 84.7501,-97.9499"/>
</g>
<!-- 17 -->
<g id="node20" class="node">
<title>17</title>
<ellipse fill="black" stroke="black" cx="810" cy="-450" rx="18" ry="18"/>
</g>
<!-- 17&#45;&gt;5 -->
<g id="edge15" class="edge">
<title>17&#45;&gt;5</title>
<path fill="none" stroke="black" stroke-width="6" d="M789.7,-462.18C757.75,-481.35 695.59,-518.65 658.95,-540.63"/>
<polygon fill="black" stroke="black" stroke-width="6" points="656.092,-536.222 650.22,-545.87 661.496,-545.225 656.092,-536.222"/>
</g>
<!-- 18 -->
<g id="node21" class="node">
<title>18</title>
<ellipse fill="black" stroke="black" cx="162" cy="-18" rx="18" ry="18"/>
</g>
<!-- 18&#45;&gt;0 -->
<g id="edge16" class="edge">
<title>18&#45;&gt;0</title>
<path fill="none" stroke="black" stroke-width="6" d="M150.75,-34.875C138.97,-52.549 120.33,-80.507 106.8,-100.8"/>
<polygon fill="black" stroke="black" stroke-width="6" points="102.352,-98.0076 101.17,-109.24 111.087,-103.834 102.352,-98.0076"/>
</g>
<!-- 19 -->
<g id="node22" class="node">
<title>19</title>
<ellipse fill="black" stroke="black" cx="306" cy="-18" rx="18" ry="18"/>
</g>
<!-- 19&#45;&gt;1 -->
<g id="edge17" class="edge">
<title>19&#45;&gt;1</title>
<path fill="none" stroke="black" stroke-width="6" d="M300.06,-35.834C294.38,-52.874 285.73,-78.807 279.17,-98.494"/>
<polygon fill="black" stroke="black" stroke-width="6" points="274.137,-96.9921 275.95,-108.14 284.096,-100.317 274.137,-96.9921"/>
</g>
<!-- 20 -->
<g id="node23" class="node">
<title>20</title>
<ellipse fill="black" stroke="black" cx="378" cy="-18" rx="18" ry="18"/>
</g>
<!-- 20&#45;&gt;2 -->
<g id="edge18" class="edge">
<title>20&#45;&gt;2</title>
<path fill="none" stroke="black" stroke-width="6" d="M383.94,-35.834C389.62,-52.874 398.27,-78.807 404.83,-98.494"/>
<polygon fill="black" stroke="black" stroke-width="6" points="399.904,-100.317 408.05,-108.14 409.863,-96.9921 399.904,-100.317"/>
</g>
<!-- 21 -->
<g id="node24" class="node">
<title>21</title>
<ellipse fill="black" stroke="black" cx="522" cy="-126" rx="18" ry="18"/>
</g>
<!-- 21&#45;&gt;7 -->
<g id="edge19" class="edge">
<title>21&#45;&gt;7</title>
<path fill="none" stroke="black" stroke-width="6" d="M533.25,-142.88C545.03,-160.55 563.67,-188.51 577.2,-208.8"/>
<polygon fill="black" stroke="black" stroke-width="6" points="572.913,-211.834 582.83,-217.24 581.648,-206.008 572.913,-211.834"/>
</g>
<!-- 22 -->
<g id="node25" class="node">
<title>22</title>
<ellipse fill="black" stroke="black" cx="594" cy="-342" rx="18" ry="18"/>
</g>
<!-- 22&#45;&gt;11 -->
<g id="edge20" class="edge">
<title>22&#45;&gt;11</title>
<path fill="none" stroke="black" stroke-width="6" d="M594,-360.32C594,-377.18 594,-402.43 594,-421.85"/>
<polygon fill="black" stroke="black" stroke-width="6" points="588.75,-421.95 594,-431.95 599.25,-421.95 588.75,-421.95"/>
</g>
<!-- 23 -->
<g id="node26" class="node">
<title>23</title>
<ellipse fill="black" stroke="black" cx="738" cy="-342" rx="18" ry="18"/>
</g>
<!-- 23&#45;&gt;15 -->
<g id="edge21" class="edge">
<title>23&#45;&gt;15</title>
<path fill="none" stroke="black" stroke-width="6" d="M726.75,-358.88C714.97,-376.55 696.33,-404.51 682.8,-424.8"/>
<polygon fill="black" stroke="black" stroke-width="6" points="678.352,-422.008 677.17,-433.24 687.087,-427.834 678.352,-422.008"/>
</g>
<!-- 24 -->
<g id="node27" class="node">
<title>24</title>
<ellipse fill="black" stroke="black" cx="450" cy="-18" rx="18" ry="18"/>
</g>
<!-- 24&#45;&gt;2 -->
<g id="edge22" class="edge">
<title>24&#45;&gt;2</title>
<path fill="none" stroke="black" stroke-width="6" d="M444.06,-35.834C438.38,-52.874 429.73,-78.807 423.17,-98.494"/>
<polygon fill="black" stroke="black" stroke-width="6" points="418.137,-96.9921 419.95,-108.14 428.096,-100.317 418.137,-96.9921"/>
</g>
<!-- 25 -->
<g id="node28" class="node">
<title>25</title>
<ellipse fill="black" stroke="black" cx="594" cy="-126" rx="18" ry="18"/>
</g>
<!-- 25&#45;&gt;7 -->
<g id="edge23" class="edge">
<title>25&#45;&gt;7</title>
<path fill="none" stroke="black" stroke-width="6" d="M594,-144.32C594,-161.18 594,-186.43 594,-205.85"/>
<polygon fill="black" stroke="black" stroke-width="6" points="588.75,-205.95 594,-215.95 599.25,-205.95 588.75,-205.95"/>
</g>
<!-- 28 -->
<g id="node29" class="node">
<title>28</title>
<ellipse fill="black" stroke="black" cx="594" cy="-18" rx="18" ry="18"/>
</g>
<!-- 28&#45;&gt;25 -->
<g id="edge24" class="edge">
<title>28&#45;&gt;25</title>
<path fill="none" stroke="black" stroke-width="6" d="M594,-36.321C594,-53.179 594,-78.435 594,-97.853"/>
<polygon fill="black" stroke="black" stroke-width="6" points="588.75,-97.9499 594,-107.95 599.25,-97.9501 588.75,-97.9499"/>
</g>
<!-- 29 -->
<g id="node30" class="node">
<title>29</title>
<ellipse fill="black" stroke="black" cx="810" cy="-126" rx="18" ry="18"/>
</g>
<!-- 29&#45;&gt;26 -->
<g id="edge25" class="edge">
<title>29&#45;&gt;26</title>
<path fill="none" stroke="black" stroke-width="6" d="M798.75,-142.88C786.97,-160.55 768.33,-188.51 754.8,-208.8"/>
<polygon fill="black" stroke="black" stroke-width="6" points="750.352,-206.008 749.17,-217.24 759.087,-211.834 750.352,-206.008"/>
</g>
<!-- 30 -->
<g id="node31" class="node">
<title>30</title>
<ellipse fill="black" stroke="black" cx="882" cy="-126" rx="18" ry="18"/>
</g>
<!-- 30&#45;&gt;26 -->
<g id="edge26" class="edge">
<title>30&#45;&gt;26</title>
<path fill="none" stroke="black" stroke-width="6" d="M864.05,-139.46C838.94,-158.3 793.14,-192.64 764.21,-214.34"/>
<polygon fill="black" stroke="black" stroke-width="6" points="761.02,-210.17 756.17,-220.37 767.32,-218.57 761.02,-210.17"/>
</g>
<!-- 31 -->
<g id="node32" class="node">
<title>31</title>
<ellipse fill="black" stroke="black" cx="882" cy="-18" rx="18" ry="18"/>
</g>
<!-- 31&#45;&gt;30 -->
<g id="edge27" class="edge">
<title>31&#45;&gt;30</title>
<path fill="none" stroke="black" stroke-width="6" d="M882,-36.321C882,-53.179 882,-78.435 882,-97.853"/>
<polygon fill="black" stroke="black" stroke-width="6" points="876.75,-97.9499 882,-107.95 887.25,-97.9501 876.75,-97.9499"/>
</g>
</g>
</svg>
