<?xml version="1.0" encoding="UTF-8" standalone="no"?>
<!DOCTYPE svg PUBLIC "-//W3C//DTD SVG 1.1//EN"
 "http://www.w3.org/Graphics/SVG/1.1/DTD/svg11.dtd">
<!-- Generated by graphviz version 2.39.20160710.1729 (20160710.1729)
 -->
<!-- Title: %3 Pages: 1 -->
<svg width="217pt" height="1484pt"
 viewBox="0.00 0.00 216.62 1484.00" xmlns="http://www.w3.org/2000/svg" xmlns:xlink="http://www.w3.org/1999/xlink">
<g id="graph0" class="graph" transform="scale(1 1) rotate(0) translate(14.6217 1480)">
<title>%3</title>
<polygon fill="white" stroke="transparent" points="-14.6217,4 -14.6217,-1480 202,-1480 202,4 -14.6217,4"/>
<!-- 4 -->
<g id="node1" class="node">
<title>4</title>
<ellipse fill="none" stroke="black" cx="27" cy="-1098" rx="27" ry="18"/>
<text text-anchor="middle" x="27" y="-1094.3" font-family="Times,serif" font-size="14.00">4</text>
</g>
<!-- 7 -->
<g id="node2" class="node">
<title>7</title>
<ellipse fill="none" stroke="black" cx="27" cy="-1170" rx="27" ry="18"/>
<text text-anchor="middle" x="27" y="-1166.3" font-family="Times,serif" font-size="14.00">7</text>
</g>
<!-- 4&#45;&gt;7 -->
<g id="edge1" class="edge">
<title>4&#45;&gt;7</title>
<path fill="none" stroke="black" d="M27,-1116.2C27,-1123.9 27,-1133 27,-1141.6"/>
<polygon fill="black" stroke="black" points="23.5001,-1141.6 27,-1151.6 30.5001,-1141.6 23.5001,-1141.6"/>
</g>
<!-- 15 -->
<g id="node3" class="node">
<title>15</title>
<ellipse fill="none" stroke="black" cx="27" cy="-1386" rx="27" ry="18"/>
<text text-anchor="middle" x="27" y="-1382.3" font-family="Times,serif" font-size="14.00">15</text>
</g>
<!-- 4&#45;&gt;15 -->
<g id="edge2" class="edge">
<title>4&#45;&gt;15</title>
<path fill="none" stroke="green" d="M18.0222,-1115.15C11.1162,-1129.36 2.14221,-1150.32 -1.59899,-1169.84 -13.6504,-1232.69 -13.5997,-1250.97 -1.59888,-1313.83 1.41116,-1329.59 7.80998,-1346.31 13.7932,-1359.68"/>
<polygon fill="green" stroke="green" points="10.6283,-1361.18 18.022,-1368.76 16.9742,-1358.22 10.6283,-1361.18"/>
</g>
<!-- 11 -->
<g id="node4" class="node">
<title>11</title>
<ellipse fill="none" stroke="black" cx="27" cy="-1242" rx="27" ry="18"/>
<text text-anchor="middle" x="27" y="-1238.3" font-family="Times,serif" font-size="14.00">11</text>
</g>
<!-- 7&#45;&gt;11 -->
<g id="edge3" class="edge">
<title>7&#45;&gt;11</title>
<path fill="none" stroke="black" d="M27,-1188.2C27,-1195.9 27,-1205 27,-1213.6"/>
<polygon fill="black" stroke="black" points="23.5001,-1213.6 27,-1223.6 30.5001,-1213.6 23.5001,-1213.6"/>
</g>
<!-- 1D -->
<g id="node5" class="node">
<title>1D</title>
<ellipse fill="none" stroke="black" cx="171" cy="-522" rx="27" ry="18"/>
<text text-anchor="middle" x="171" y="-518.3" font-family="Times,serif" font-size="14.00">1D</text>
</g>
<!-- 7&#45;&gt;1D -->
<g id="edge4" class="edge">
<title>7&#45;&gt;1D</title>
<path fill="none" stroke="red" d="M35.0973,-1152.62C41.4924,-1138.27 50.2089,-1117.22 55.5998,-1098.08 117.222,-879.257 80.818,-812.832 142.4,-593.999 146.697,-578.73 153.105,-562.249 158.767,-548.913"/>
<polygon fill="red" stroke="red" points="162.125,-549.966 162.903,-539.4 155.706,-547.174 162.125,-549.966"/>
</g>
<!-- 26 -->
<g id="node23" class="node">
<title>26</title>
<ellipse fill="none" stroke="black" cx="27" cy="-1458" rx="27" ry="18"/>
<text text-anchor="middle" x="27" y="-1454.3" font-family="Times,serif" font-size="14.00">26</text>
</g>
<!-- 15&#45;&gt;26 -->
<g id="edge24" class="edge">
<title>15&#45;&gt;26</title>
<path fill="none" stroke="black" d="M27,-1404.2C27,-1411.9 27,-1421 27,-1429.6"/>
<polygon fill="black" stroke="black" points="23.5001,-1429.6 27,-1439.6 30.5001,-1429.6 23.5001,-1429.6"/>
</g>
<!-- A -->
<g id="node24" class="node">
<title>A</title>
<ellipse fill="none" stroke="black" cx="171" cy="-738" rx="27" ry="18"/>
<text text-anchor="middle" x="171" y="-734.3" font-family="Times,serif" font-size="14.00">A</text>
</g>
<!-- 15&#45;&gt;A -->
<g id="edge25" class="edge">
<title>15&#45;&gt;A</title>
<path fill="none" stroke="red" d="M34.9597,-1368.6C41.2749,-1354.25 49.951,-1333.22 55.5989,-1314.17 116.732,-1108.04 155.424,-850.787 167.19,-766.307"/>
<polygon fill="red" stroke="red" points="170.683,-766.596 168.581,-756.212 163.748,-765.64 170.683,-766.596"/>
</g>
<!-- 11&#45;&gt;15 -->
<g id="edge6" class="edge">
<title>11&#45;&gt;15</title>
<path fill="none" stroke="green" d="M16.1967,-1258.67C8.10313,-1272.78 -1.58232,-1293.83 -1.59888,-1313.83 -1.61225,-1329.99 4.6602,-1346.84 11.3334,-1360.19"/>
<polygon fill="green" stroke="green" points="8.37159,-1362.08 16.1793,-1369.24 14.5418,-1358.77 8.37159,-1362.08"/>
</g>
<!-- 31 -->
<g id="node6" class="node">
<title>31</title>
<ellipse fill="none" stroke="black" cx="27" cy="-1314" rx="27" ry="18"/>
<text text-anchor="middle" x="27" y="-1310.3" font-family="Times,serif" font-size="14.00">31</text>
</g>
<!-- 11&#45;&gt;31 -->
<g id="edge5" class="edge">
<title>11&#45;&gt;31</title>
<path fill="none" stroke="black" d="M27,-1260.2C27,-1267.9 27,-1277 27,-1285.6"/>
<polygon fill="black" stroke="black" points="23.5001,-1285.6 27,-1295.6 30.5001,-1285.6 23.5001,-1285.6"/>
</g>
<!-- C -->
<g id="node30" class="node">
<title>C</title>
<ellipse fill="none" stroke="black" cx="171" cy="-594" rx="27" ry="18"/>
<text text-anchor="middle" x="171" y="-590.3" font-family="Times,serif" font-size="14.00">C</text>
</g>
<!-- 1D&#45;&gt;C -->
<g id="edge62" class="edge">
<title>1D&#45;&gt;C</title>
<path fill="none" stroke="black" d="M171,-540.17C171,-547.87 171,-557.03 171,-565.58"/>
<polygon fill="black" stroke="black" points="167.5,-565.59 171,-575.59 174.5,-565.59 167.5,-565.59"/>
</g>
<!-- 1H -->
<g id="node34" class="node">
<title>1H</title>
<ellipse fill="none" stroke="black" cx="171" cy="-450" rx="27" ry="18"/>
<text text-anchor="middle" x="171" y="-446.3" font-family="Times,serif" font-size="14.00">1H</text>
</g>
<!-- 1D&#45;&gt;1H -->
<g id="edge61" class="edge">
<title>1D&#45;&gt;1H</title>
<path fill="none" stroke="black" d="M176.9,-504.41C177.71,-496.41 177.94,-486.76 177.59,-477.82"/>
<polygon fill="black" stroke="black" points="181.079,-477.544 176.92,-467.8 174.095,-478.011 181.079,-477.544"/>
</g>
<!-- 31&#45;&gt;15 -->
<g id="edge18" class="edge">
<title>31&#45;&gt;15</title>
<path fill="none" stroke="black" d="M27,-1332.2C27,-1339.9 27,-1349 27,-1357.6"/>
<polygon fill="black" stroke="black" points="23.5001,-1357.6 27,-1367.6 30.5001,-1357.6 23.5001,-1357.6"/>
</g>
<!-- 2G -->
<g id="node18" class="node">
<title>2G</title>
<ellipse fill="none" stroke="black" cx="171" cy="-666" rx="27" ry="18"/>
<text text-anchor="middle" x="171" y="-662.3" font-family="Times,serif" font-size="14.00">2G</text>
</g>
<!-- 31&#45;&gt;2G -->
<g id="edge19" class="edge">
<title>31&#45;&gt;2G</title>
<path fill="none" stroke="red" d="M35.0974,-1296.62C41.4926,-1282.27 50.2092,-1261.23 55.5997,-1242.09 117.229,-1023.26 80.8085,-956.826 142.4,-737.985 146.697,-722.718 153.105,-706.24 158.766,-692.907"/>
<polygon fill="red" stroke="red" points="162.124,-693.962 162.903,-683.396 155.705,-691.17 162.124,-693.962"/>
</g>
<!-- 5 -->
<g id="node7" class="node">
<title>5</title>
<ellipse fill="none" stroke="black" cx="27" cy="-18" rx="27" ry="18"/>
<text text-anchor="middle" x="27" y="-14.3" font-family="Times,serif" font-size="14.00">5</text>
</g>
<!-- 23 -->
<g id="node8" class="node">
<title>23</title>
<ellipse fill="none" stroke="black" cx="27" cy="-90" rx="27" ry="18"/>
<text text-anchor="middle" x="27" y="-86.3" font-family="Times,serif" font-size="14.00">23</text>
</g>
<!-- 5&#45;&gt;23 -->
<g id="edge7" class="edge">
<title>5&#45;&gt;23</title>
<path fill="none" stroke="black" d="M27,-36.169C27,-43.869 27,-53.026 27,-61.583"/>
<polygon fill="black" stroke="black" points="23.5001,-61.587 27,-71.587 30.5001,-61.587 23.5001,-61.587"/>
</g>
<!-- 22 -->
<g id="node9" class="node">
<title>22</title>
<ellipse fill="none" stroke="black" cx="27" cy="-162" rx="27" ry="18"/>
<text text-anchor="middle" x="27" y="-158.3" font-family="Times,serif" font-size="14.00">22</text>
</g>
<!-- 23&#45;&gt;22 -->
<g id="edge8" class="edge">
<title>23&#45;&gt;22</title>
<path fill="none" stroke="black" d="M27,-108.17C27,-115.87 27,-125.03 27,-133.58"/>
<polygon fill="black" stroke="black" points="23.5001,-133.59 27,-143.59 30.5001,-133.59 23.5001,-133.59"/>
</g>
<!-- 13 -->
<g id="node10" class="node">
<title>13</title>
<ellipse fill="none" stroke="black" cx="27" cy="-306" rx="27" ry="18"/>
<text text-anchor="middle" x="27" y="-302.3" font-family="Times,serif" font-size="14.00">13</text>
</g>
<!-- 23&#45;&gt;13 -->
<g id="edge9" class="edge">
<title>23&#45;&gt;13</title>
<path fill="none" stroke="green" d="M18.0217,-107.184C11.1154,-121.425 2.14096,-142.425 -1.59996,-161.969 -7.60723,-193.353 -7.59429,-202.478 -1.59932,-233.865 1.4108,-249.624 7.80972,-266.332 13.793,-279.695"/>
<polygon fill="green" stroke="green" points="10.6265,-281.187 18.0219,-288.774 16.9718,-278.231 10.6265,-281.187"/>
</g>
<!-- 22&#45;&gt;13 -->
<g id="edge10" class="edge">
<title>22&#45;&gt;13</title>
<path fill="none" stroke="green" d="M16.1946,-178.683C8.09979,-192.794 -1.5864,-213.857 -1.59932,-233.865 -1.60974,-250.017 4.663,-266.863 11.3357,-280.209"/>
<polygon fill="green" stroke="green" points="8.372,-282.089 16.181,-289.249 14.5416,-278.782 8.372,-282.089"/>
</g>
<!-- 30 -->
<g id="node11" class="node">
<title>30</title>
<ellipse fill="none" stroke="black" cx="27" cy="-234" rx="27" ry="18"/>
<text text-anchor="middle" x="27" y="-230.3" font-family="Times,serif" font-size="14.00">30</text>
</g>
<!-- 22&#45;&gt;30 -->
<g id="edge11" class="edge">
<title>22&#45;&gt;30</title>
<path fill="none" stroke="black" d="M27,-180.17C27,-187.87 27,-197.03 27,-205.58"/>
<polygon fill="black" stroke="black" points="23.5001,-205.59 27,-215.59 30.5001,-205.59 23.5001,-205.59"/>
</g>
<!-- B -->
<g id="node26" class="node">
<title>B</title>
<ellipse fill="none" stroke="black" cx="99" cy="-162" rx="27" ry="18"/>
<text text-anchor="middle" x="99" y="-158.3" font-family="Times,serif" font-size="14.00">B</text>
</g>
<!-- 13&#45;&gt;B -->
<g id="edge35" class="edge">
<title>13&#45;&gt;B</title>
<path fill="none" stroke="red" d="M35.5421,-288.916C47.9248,-264.15 70.9784,-218.043 85.6266,-188.747"/>
<polygon fill="red" stroke="red" points="88.9028,-190.021 90.2445,-179.511 82.6418,-186.89 88.9028,-190.021"/>
</g>
<!-- 25 -->
<g id="node28" class="node">
<title>25</title>
<ellipse fill="none" stroke="black" cx="27" cy="-378" rx="27" ry="18"/>
<text text-anchor="middle" x="27" y="-374.3" font-family="Times,serif" font-size="14.00">25</text>
</g>
<!-- 13&#45;&gt;25 -->
<g id="edge36" class="edge">
<title>13&#45;&gt;25</title>
<path fill="none" stroke="black" d="M27,-324.17C27,-331.87 27,-341.03 27,-349.58"/>
<polygon fill="black" stroke="black" points="23.5001,-349.59 27,-359.59 30.5001,-349.59 23.5001,-349.59"/>
</g>
<!-- 30&#45;&gt;13 -->
<g id="edge49" class="edge">
<title>30&#45;&gt;13</title>
<path fill="none" stroke="black" d="M27,-252.17C27,-259.87 27,-269.03 27,-277.58"/>
<polygon fill="black" stroke="black" points="23.5001,-277.59 27,-287.59 30.5001,-277.59 23.5001,-277.59"/>
</g>
<!-- F -->
<g id="node25" class="node">
<title>F</title>
<ellipse fill="none" stroke="black" cx="99" cy="-90" rx="27" ry="18"/>
<text text-anchor="middle" x="99" y="-86.3" font-family="Times,serif" font-size="14.00">F</text>
</g>
<!-- 30&#45;&gt;F -->
<g id="edge48" class="edge">
<title>30&#45;&gt;F</title>
<path fill="none" stroke="red" d="M35.5421,-216.916C47.9248,-192.15 70.9784,-146.043 85.6266,-116.747"/>
<polygon fill="red" stroke="red" points="88.9028,-118.021 90.2445,-107.511 82.6418,-114.89 88.9028,-118.021"/>
</g>
<!-- 6 -->
<g id="node12" class="node">
<title>6</title>
<ellipse fill="none" stroke="black" cx="27" cy="-594" rx="27" ry="18"/>
<text text-anchor="middle" x="27" y="-590.3" font-family="Times,serif" font-size="14.00">6</text>
</g>
<!-- 6&#45;&gt;15 -->
<g id="edge13" class="edge">
<title>6&#45;&gt;15</title>
<path fill="none" stroke="green" d="M35.978,-611.237C42.8841,-625.52 51.8582,-646.582 55.5988,-666.176 61.5874,-697.546 55.5997,-706.096 55.6,-738.032 55.6017,-962.057 55.6011,-1018.06 55.5997,-1242.09 55.5995,-1274.13 61.6329,-1282.71 55.5989,-1314.17 52.6176,-1329.72 46.3134,-1346.19 40.3808,-1359.43"/>
<polygon fill="green" stroke="green" points="37.0388,-1358.31 35.9777,-1368.85 43.381,-1361.27 37.0388,-1358.31"/>
</g>
<!-- 21 -->
<g id="node13" class="node">
<title>21</title>
<ellipse fill="none" stroke="black" cx="27" cy="-666" rx="27" ry="18"/>
<text text-anchor="middle" x="27" y="-662.3" font-family="Times,serif" font-size="14.00">21</text>
</g>
<!-- 6&#45;&gt;21 -->
<g id="edge12" class="edge">
<title>6&#45;&gt;21</title>
<path fill="none" stroke="black" d="M27,-612.17C27,-619.87 27,-629.03 27,-637.58"/>
<polygon fill="black" stroke="black" points="23.5001,-637.59 27,-647.59 30.5001,-637.59 23.5001,-637.59"/>
</g>
<!-- 27 -->
<g id="node14" class="node">
<title>27</title>
<ellipse fill="none" stroke="black" cx="27" cy="-738" rx="27" ry="18"/>
<text text-anchor="middle" x="27" y="-734.3" font-family="Times,serif" font-size="14.00">27</text>
</g>
<!-- 21&#45;&gt;27 -->
<g id="edge14" class="edge">
<title>21&#45;&gt;27</title>
<path fill="none" stroke="black" d="M27,-684.17C27,-691.87 27,-701.03 27,-709.58"/>
<polygon fill="black" stroke="black" points="23.5001,-709.59 27,-719.59 30.5001,-709.59 23.5001,-709.59"/>
</g>
<!-- 1G -->
<g id="node15" class="node">
<title>1G</title>
<ellipse fill="none" stroke="black" cx="171" cy="-234" rx="27" ry="18"/>
<text text-anchor="middle" x="171" y="-230.3" font-family="Times,serif" font-size="14.00">1G</text>
</g>
<!-- 21&#45;&gt;1G -->
<g id="edge15" class="edge">
<title>21&#45;&gt;1G</title>
<path fill="none" stroke="red" d="M34.4781,-648.408C40.514,-633.93 49.0495,-612.806 55.6,-594.012 99.6221,-467.705 98.3364,-432.137 142.401,-305.846 147.617,-290.896 154.097,-274.473 159.569,-261.106"/>
<polygon fill="red" stroke="red" points="162.931,-262.134 163.52,-251.555 156.463,-259.458 162.931,-262.134"/>
</g>
<!-- 2D -->
<g id="node16" class="node">
<title>2D</title>
<ellipse fill="none" stroke="black" cx="135" cy="-18" rx="27" ry="18"/>
<text text-anchor="middle" x="135" y="-14.3" font-family="Times,serif" font-size="14.00">2D</text>
</g>
<!-- 27&#45;&gt;2D -->
<g id="edge16" class="edge">
<title>27&#45;&gt;2D</title>
<path fill="none" stroke="red" d="M35.2444,-720.685C41.7248,-706.377 50.4842,-685.37 55.5988,-666.176 113.862,-447.528 105.776,-387.391 127.599,-162.168 131.478,-122.132 133.402,-75.6306 134.298,-46.507"/>
<polygon fill="red" stroke="red" points="137.804,-46.3421 134.593,-36.2457 130.807,-46.141 137.804,-46.3421"/>
</g>
<!-- 17 -->
<g id="node17" class="node">
<title>17</title>
<ellipse fill="none" stroke="black" cx="27" cy="-810" rx="27" ry="18"/>
<text text-anchor="middle" x="27" y="-806.3" font-family="Times,serif" font-size="14.00">17</text>
</g>
<!-- 27&#45;&gt;17 -->
<g id="edge17" class="edge">
<title>27&#45;&gt;17</title>
<path fill="none" stroke="black" d="M27,-756.17C27,-763.87 27,-773.03 27,-781.58"/>
<polygon fill="black" stroke="black" points="23.5001,-781.59 27,-791.59 30.5001,-781.59 23.5001,-781.59"/>
</g>
<!-- 1E -->
<g id="node27" class="node">
<title>1E</title>
<ellipse fill="none" stroke="black" cx="171" cy="-162" rx="27" ry="18"/>
<text text-anchor="middle" x="171" y="-158.3" font-family="Times,serif" font-size="14.00">1E</text>
</g>
<!-- 1G&#45;&gt;1E -->
<g id="edge55" class="edge">
<title>1G&#45;&gt;1E</title>
<path fill="none" stroke="black" d="M176.9,-216.41C177.71,-208.41 177.94,-198.76 177.59,-189.82"/>
<polygon fill="black" stroke="black" points="181.079,-189.544 176.92,-179.8 174.095,-190.011 181.079,-189.544"/>
</g>
<!-- 2I -->
<g id="node33" class="node">
<title>2I</title>
<ellipse fill="none" stroke="black" cx="171" cy="-306" rx="27" ry="18"/>
<text text-anchor="middle" x="171" y="-302.3" font-family="Times,serif" font-size="14.00">2I</text>
</g>
<!-- 1G&#45;&gt;2I -->
<g id="edge56" class="edge">
<title>1G&#45;&gt;2I</title>
<path fill="none" stroke="black" d="M171,-252.17C171,-259.87 171,-269.03 171,-277.58"/>
<polygon fill="black" stroke="black" points="167.5,-277.59 171,-287.59 174.5,-277.59 167.5,-277.59"/>
</g>
<!-- 2H -->
<g id="node20" class="node">
<title>2H</title>
<ellipse fill="none" stroke="black" cx="171" cy="-90" rx="27" ry="18"/>
<text text-anchor="middle" x="171" y="-86.3" font-family="Times,serif" font-size="14.00">2H</text>
</g>
<!-- 2D&#45;&gt;2H -->
<g id="edge27" class="edge">
<title>2D&#45;&gt;2H</title>
<path fill="none" stroke="black" d="M138.13,-36.169C141.69,-45.008 146.91,-55.767 152.22,-65.335"/>
<polygon fill="black" stroke="black" points="149.238,-67.169 157.3,-74.043 155.284,-63.6417 149.238,-67.169"/>
</g>
<!-- 2D&#45;&gt;F -->
<g id="edge26" class="edge">
<title>2D&#45;&gt;F</title>
<path fill="none" stroke="black" d="M121.51,-33.623C116.29,-42.06 110.66,-52.724 106.17,-62.501"/>
<polygon fill="black" stroke="black" points="102.877,-61.2982 102.12,-71.866 109.302,-64.0768 102.877,-61.2982"/>
</g>
<!-- 17&#45;&gt;15 -->
<g id="edge42" class="edge">
<title>17&#45;&gt;15</title>
<path fill="none" stroke="green" d="M18.0219,-827.169C11.1157,-841.397 2.14139,-862.38 -1.59969,-881.909 -1.60057,-881.914 -1.60021,-1162.01 -1.59971,-1241.91 -1.59952,-1273.87 -7.59246,-1282.43 -1.59888,-1313.83 1.41116,-1329.59 7.80998,-1346.31 13.7932,-1359.68"/>
<polygon fill="green" stroke="green" points="10.6283,-1361.18 18.022,-1368.76 16.9742,-1358.22 10.6283,-1361.18"/>
</g>
<!-- 29 -->
<g id="node31" class="node">
<title>29</title>
<ellipse fill="none" stroke="black" cx="27" cy="-882" rx="27" ry="18"/>
<text text-anchor="middle" x="27" y="-878.3" font-family="Times,serif" font-size="14.00">29</text>
</g>
<!-- 17&#45;&gt;29 -->
<g id="edge43" class="edge">
<title>17&#45;&gt;29</title>
<path fill="none" stroke="black" d="M27,-828.17C27,-835.87 27,-845.03 27,-853.58"/>
<polygon fill="black" stroke="black" points="23.5001,-853.59 27,-863.59 30.5001,-853.59 23.5001,-853.59"/>
</g>
<!-- 2G&#45;&gt;A -->
<g id="edge57" class="edge">
<title>2G&#45;&gt;A</title>
<path fill="none" stroke="black" d="M165.08,-683.8C164.28,-691.82 164.06,-701.48 164.42,-710.4"/>
<polygon fill="black" stroke="black" points="160.93,-710.67 165.1,-720.41 167.914,-710.196 160.93,-710.67"/>
</g>
<!-- 2G&#45;&gt;C -->
<g id="edge58" class="edge">
<title>2G&#45;&gt;C</title>
<path fill="none" stroke="black" d="M176.9,-648.41C177.71,-640.41 177.94,-630.76 177.59,-621.82"/>
<polygon fill="black" stroke="black" points="181.079,-621.544 176.92,-611.8 174.095,-622.011 181.079,-621.544"/>
</g>
<!-- 8 -->
<g id="node19" class="node">
<title>8</title>
<ellipse fill="none" stroke="black" cx="27" cy="-522" rx="27" ry="18"/>
<text text-anchor="middle" x="27" y="-518.3" font-family="Times,serif" font-size="14.00">8</text>
</g>
<!-- 8&#45;&gt;6 -->
<g id="edge20" class="edge">
<title>8&#45;&gt;6</title>
<path fill="none" stroke="black" d="M27,-540.17C27,-547.87 27,-557.03 27,-565.58"/>
<polygon fill="black" stroke="black" points="23.5001,-565.59 27,-575.59 30.5001,-565.59 23.5001,-565.59"/>
</g>
<!-- 8&#45;&gt;2H -->
<g id="edge21" class="edge">
<title>8&#45;&gt;2H</title>
<path fill="none" stroke="red" d="M34.4815,-504.448C40.5193,-490.002 49.0554,-468.924 55.599,-450.166 99.6819,-323.798 98.3129,-288.182 142.401,-161.815 147.615,-146.871 154.095,-130.455 159.567,-117.094"/>
<polygon fill="red" stroke="red" points="162.928,-118.126 163.518,-107.547 156.46,-115.449 162.928,-118.126"/>
</g>
<!-- 2H&#45;&gt;2D -->
<g id="edge30" class="edge">
<title>2H&#45;&gt;2D</title>
<path fill="none" stroke="black" d="M167.88,-71.866C164.29,-62.935 159,-52.038 153.62,-42.388"/>
<polygon fill="black" stroke="black" points="156.562,-40.4855 148.49,-33.623 150.521,-44.0214 156.562,-40.4855"/>
</g>
<!-- 2H&#45;&gt;1E -->
<g id="edge31" class="edge">
<title>2H&#45;&gt;1E</title>
<path fill="none" stroke="black" d="M165.08,-107.8C164.28,-115.82 164.06,-125.48 164.42,-134.4"/>
<polygon fill="black" stroke="black" points="160.93,-134.67 165.1,-144.41 167.914,-134.196 160.93,-134.67"/>
</g>
<!-- 9 -->
<g id="node21" class="node">
<title>9</title>
<ellipse fill="none" stroke="black" cx="27" cy="-1026" rx="27" ry="18"/>
<text text-anchor="middle" x="27" y="-1022.3" font-family="Times,serif" font-size="14.00">9</text>
</g>
<!-- 9&#45;&gt;4 -->
<g id="edge22" class="edge">
<title>9&#45;&gt;4</title>
<path fill="none" stroke="black" d="M27,-1044.2C27,-1051.9 27,-1061 27,-1069.6"/>
<polygon fill="black" stroke="black" points="23.5001,-1069.6 27,-1079.6 30.5001,-1069.6 23.5001,-1069.6"/>
</g>
<!-- 2E -->
<g id="node22" class="node">
<title>2E</title>
<ellipse fill="none" stroke="black" cx="171" cy="-378" rx="27" ry="18"/>
<text text-anchor="middle" x="171" y="-374.3" font-family="Times,serif" font-size="14.00">2E</text>
</g>
<!-- 9&#45;&gt;2E -->
<g id="edge23" class="edge">
<title>9&#45;&gt;2E</title>
<path fill="none" stroke="red" d="M35.0976,-1008.63C41.4929,-994.28 50.2095,-973.241 55.5996,-954.104 117.242,-735.254 80.7848,-668.806 142.4,-449.948 146.696,-434.688 153.104,-418.219 158.766,-404.892"/>
<polygon fill="red" stroke="red" points="162.121,-405.953 162.903,-395.387 155.703,-403.159 162.121,-405.953"/>
</g>
<!-- 2E&#45;&gt;2I -->
<g id="edge51" class="edge">
<title>2E&#45;&gt;2I</title>
<path fill="none" stroke="black" d="M176.9,-360.41C177.71,-352.41 177.94,-342.76 177.59,-333.82"/>
<polygon fill="black" stroke="black" points="181.079,-333.544 176.92,-323.8 174.095,-334.011 181.079,-333.544"/>
</g>
<!-- 2E&#45;&gt;1H -->
<g id="edge52" class="edge">
<title>2E&#45;&gt;1H</title>
<path fill="none" stroke="black" d="M165.08,-395.8C164.28,-403.82 164.06,-413.48 164.42,-422.4"/>
<polygon fill="black" stroke="black" points="160.93,-422.67 165.1,-432.41 167.914,-422.196 160.93,-422.67"/>
</g>
<!-- 26&#45;&gt;C -->
<g id="edge41" class="edge">
<title>26&#45;&gt;C</title>
<path fill="none" stroke="red" d="M35.3566,-1440.69C41.9022,-1426.37 50.6946,-1405.34 55.5998,-1386.07 135.11,-1073.63 62.8573,-978.317 142.4,-665.886 146.309,-650.535 152.686,-634.071 158.428,-620.778"/>
<polygon fill="red" stroke="red" points="161.777,-621.861 162.643,-611.301 155.381,-619.016 161.777,-621.861"/>
</g>
<!-- A&#45;&gt;2G -->
<g id="edge59" class="edge">
<title>A&#45;&gt;2G</title>
<path fill="none" stroke="black" d="M176.9,-720.41C177.71,-712.41 177.94,-702.76 177.59,-693.82"/>
<polygon fill="black" stroke="black" points="181.079,-693.544 176.92,-683.8 174.095,-694.011 181.079,-693.544"/>
</g>
<!-- F&#45;&gt;2D -->
<g id="edge28" class="edge">
<title>F&#45;&gt;2D</title>
<path fill="none" stroke="black" d="M112.7,-74.043C117.87,-65.64 123.42,-55.099 127.86,-45.432"/>
<polygon fill="black" stroke="black" points="131.109,-46.7365 131.87,-36.169 124.685,-43.9555 131.109,-46.7365"/>
</g>
<!-- F&#45;&gt;B -->
<g id="edge29" class="edge">
<title>F&#45;&gt;B</title>
<path fill="none" stroke="black" d="M93.084,-107.8C92.28,-115.82 92.057,-125.48 92.416,-134.4"/>
<polygon fill="black" stroke="black" points="88.9265,-134.674 93.105,-144.41 95.91,-134.193 88.9265,-134.674"/>
</g>
<!-- B&#45;&gt;F -->
<g id="edge32" class="edge">
<title>B&#45;&gt;F</title>
<path fill="none" stroke="black" d="M104.9,-144.41C105.71,-136.41 105.94,-126.76 105.59,-117.82"/>
<polygon fill="black" stroke="black" points="109.079,-117.544 104.92,-107.8 102.095,-118.011 109.079,-117.544"/>
</g>
<!-- 1E&#45;&gt;1G -->
<g id="edge34" class="edge">
<title>1E&#45;&gt;1G</title>
<path fill="none" stroke="black" d="M165.08,-179.8C164.28,-187.82 164.06,-197.48 164.42,-206.4"/>
<polygon fill="black" stroke="black" points="160.93,-206.67 165.1,-216.41 167.914,-206.196 160.93,-206.67"/>
</g>
<!-- 1E&#45;&gt;2H -->
<g id="edge33" class="edge">
<title>1E&#45;&gt;2H</title>
<path fill="none" stroke="black" d="M176.9,-144.41C177.71,-136.41 177.94,-126.76 177.59,-117.82"/>
<polygon fill="black" stroke="black" points="181.079,-117.544 176.92,-107.8 174.095,-118.011 181.079,-117.544"/>
</g>
<!-- 25&#45;&gt;1E -->
<g id="edge37" class="edge">
<title>25&#45;&gt;1E</title>
<path fill="none" stroke="red" d="M38.0603,-361.409C63.137,-323.795 124.44,-231.84 154.218,-187.172"/>
<polygon fill="red" stroke="red" points="157.267,-188.909 159.902,-178.647 151.443,-185.026 157.267,-188.909"/>
</g>
<!-- 14 -->
<g id="node29" class="node">
<title>14</title>
<ellipse fill="none" stroke="black" cx="27" cy="-450" rx="27" ry="18"/>
<text text-anchor="middle" x="27" y="-446.3" font-family="Times,serif" font-size="14.00">14</text>
</g>
<!-- 25&#45;&gt;14 -->
<g id="edge38" class="edge">
<title>25&#45;&gt;14</title>
<path fill="none" stroke="black" d="M27,-396.17C27,-403.87 27,-413.03 27,-421.58"/>
<polygon fill="black" stroke="black" points="23.5001,-421.59 27,-431.59 30.5001,-421.59 23.5001,-421.59"/>
</g>
<!-- 14&#45;&gt;15 -->
<g id="edge40" class="edge">
<title>14&#45;&gt;15</title>
<path fill="none" stroke="green" d="M18.0218,-467.179C11.1155,-481.415 2.14115,-502.409 -1.5999,-521.947 -7.6211,-553.394 -1.59998,-561.97 -1.6,-593.988 -1.60016,-881.955 -1.6015,-953.946 -1.59971,-1241.91 -1.59952,-1273.87 -7.59246,-1282.43 -1.59888,-1313.83 1.41116,-1329.59 7.80998,-1346.31 13.7932,-1359.68"/>
<polygon fill="green" stroke="green" points="10.6283,-1361.18 18.022,-1368.76 16.9742,-1358.22 10.6283,-1361.18"/>
</g>
<!-- 14&#45;&gt;8 -->
<g id="edge39" class="edge">
<title>14&#45;&gt;8</title>
<path fill="none" stroke="black" d="M27,-468.17C27,-475.87 27,-485.03 27,-493.58"/>
<polygon fill="black" stroke="black" points="23.5001,-493.59 27,-503.59 30.5001,-493.59 23.5001,-493.59"/>
</g>
<!-- C&#45;&gt;2G -->
<g id="edge60" class="edge">
<title>C&#45;&gt;2G</title>
<path fill="none" stroke="black" d="M165.08,-611.8C164.28,-619.82 164.06,-629.48 164.42,-638.4"/>
<polygon fill="black" stroke="black" points="160.93,-638.67 165.1,-648.41 167.914,-638.196 160.93,-638.67"/>
</g>
<!-- 28 -->
<g id="node32" class="node">
<title>28</title>
<ellipse fill="none" stroke="black" cx="27" cy="-954" rx="27" ry="18"/>
<text text-anchor="middle" x="27" y="-950.3" font-family="Times,serif" font-size="14.00">28</text>
</g>
<!-- 29&#45;&gt;28 -->
<g id="edge44" class="edge">
<title>29&#45;&gt;28</title>
<path fill="none" stroke="black" d="M27,-900.17C27,-907.87 27,-917.03 27,-925.58"/>
<polygon fill="black" stroke="black" points="23.5001,-925.59 27,-935.59 30.5001,-925.59 23.5001,-925.59"/>
</g>
<!-- 29&#45;&gt;2I -->
<g id="edge45" class="edge">
<title>29&#45;&gt;2I</title>
<path fill="none" stroke="red" d="M34.9567,-864.589C41.2702,-850.222 49.9455,-829.175 55.5995,-810.118 111.336,-622.26 86.6527,-565.709 142.401,-377.854 146.906,-362.674 153.33,-346.23 158.949,-332.909"/>
<polygon fill="red" stroke="red" points="162.301,-333.973 163.043,-323.404 155.872,-331.203 162.301,-333.973"/>
</g>
<!-- 28&#45;&gt;9 -->
<g id="edge46" class="edge">
<title>28&#45;&gt;9</title>
<path fill="none" stroke="black" d="M27,-972.17C27,-979.87 27,-989.03 27,-997.58"/>
<polygon fill="black" stroke="black" points="23.5001,-997.6 27,-1007.6 30.5001,-997.6 23.5001,-997.6"/>
</g>
<!-- 28&#45;&gt;1H -->
<g id="edge47" class="edge">
<title>28&#45;&gt;1H</title>
<path fill="none" stroke="red" d="M34.7619,-936.523C40.9624,-922.115 49.5808,-901.042 55.5997,-882.091 105.439,-725.164 92.5715,-678.868 142.4,-521.938 147.197,-506.83 153.644,-490.375 159.203,-477.019"/>
<polygon fill="red" stroke="red" points="162.564,-478.058 163.238,-467.485 156.117,-475.329 162.564,-478.058"/>
</g>
<!-- 2I&#45;&gt;2E -->
<g id="edge50" class="edge">
<title>2I&#45;&gt;2E</title>
<path fill="none" stroke="black" d="M165.08,-323.8C164.28,-331.82 164.06,-341.48 164.42,-350.4"/>
<polygon fill="black" stroke="black" points="160.93,-350.67 165.1,-360.41 167.914,-350.196 160.93,-350.67"/>
</g>
<!-- 1H&#45;&gt;1D -->
<g id="edge54" class="edge">
<title>1H&#45;&gt;1D</title>
<path fill="none" stroke="black" d="M165.08,-467.8C164.28,-475.82 164.06,-485.48 164.42,-494.4"/>
<polygon fill="black" stroke="black" points="160.93,-494.67 165.1,-504.41 167.914,-494.196 160.93,-494.67"/>
</g>
<!-- 1H&#45;&gt;2E -->
<g id="edge53" class="edge">
<title>1H&#45;&gt;2E</title>
<path fill="none" stroke="black" d="M176.9,-432.41C177.71,-424.41 177.94,-414.76 177.59,-405.82"/>
<polygon fill="black" stroke="black" points="181.079,-405.544 176.92,-395.8 174.095,-406.011 181.079,-405.544"/>
</g>
</g>
</svg>
