<?xml version="1.0" encoding="UTF-8" standalone="no"?>
<!DOCTYPE svg PUBLIC "-//W3C//DTD SVG 1.1//EN"
 "http://www.w3.org/Graphics/SVG/1.1/DTD/svg11.dtd">
<!-- Generated by graphviz version 2.39.20160710.1729 (20160710.1729)
 -->
<!-- Title: %3 Pages: 1 -->
<svg width="196pt" height="2204pt"
 viewBox="0.00 0.00 196.06 2204.00" xmlns="http://www.w3.org/2000/svg" xmlns:xlink="http://www.w3.org/1999/xlink">
<g id="graph0" class="graph" transform="scale(1 1) rotate(0) translate(12.0563 2200)">
<title>%3</title>
<polygon fill="white" stroke="transparent" points="-12.0563,4 -12.0563,-2200 184,-2200 184,4 -12.0563,4"/>
<!-- 4 -->
<g id="node1" class="node">
<title>4</title>
<ellipse fill="black" stroke="black" cx="18" cy="-1638" rx="18" ry="18"/>
</g>
<!-- 7 -->
<g id="node2" class="node">
<title>7</title>
<ellipse fill="black" stroke="black" cx="18" cy="-1746" rx="18" ry="18"/>
</g>
<!-- 4&#45;&gt;7 -->
<g id="edge1" class="edge">
<title>4&#45;&gt;7</title>
<path fill="none" stroke="black" stroke-width="6" d="M18,-1656.3C18,-1673.2 18,-1698.4 18,-1717.9"/>
<polygon fill="black" stroke="black" stroke-width="6" points="12.7501,-1717.9 18,-1727.9 23.2501,-1717.9 12.7501,-1717.9"/>
</g>
<!-- 15 -->
<g id="node3" class="node">
<title>15</title>
<ellipse fill="black" stroke="black" cx="18" cy="-2070" rx="18" ry="18"/>
</g>
<!-- 4&#45;&gt;15 -->
<g id="edge2" class="edge">
<title>4&#45;&gt;15</title>
<path fill="none" stroke="green" stroke-width="3" d="M13.748,-1655.8C8.90444,-1677.07 1.28767,-1713.81 -1.59931,-1745.84 -10.2175,-1841.44 -10.1911,-1866.22 -1.59923,-1961.83 0.881704,-1989.43 6.85575,-2020.53 11.561,-2042.28"/>
<polygon fill="green" stroke="green" stroke-width="3" points="8.16669,-2043.14 13.748,-2052.14 15.0008,-2041.62 8.16669,-2043.14"/>
</g>
<!-- 11 -->
<g id="node4" class="node">
<title>11</title>
<ellipse fill="black" stroke="black" cx="18" cy="-1854" rx="18" ry="18"/>
</g>
<!-- 7&#45;&gt;11 -->
<g id="edge3" class="edge">
<title>7&#45;&gt;11</title>
<path fill="none" stroke="black" stroke-width="6" d="M18,-1764.3C18,-1781.2 18,-1806.4 18,-1825.9"/>
<polygon fill="black" stroke="black" stroke-width="6" points="12.7501,-1825.9 18,-1835.9 23.2501,-1825.9 12.7501,-1825.9"/>
</g>
<!-- 1D -->
<g id="node5" class="node">
<title>1D</title>
<ellipse fill="blue" stroke="blue" cx="162" cy="-774" rx="18" ry="18"/>
</g>
<!-- 7&#45;&gt;1D -->
<g id="edge4" class="edge">
<title>7&#45;&gt;1D</title>
<path fill="none" stroke="red" stroke-width="3" d="M21.4903,-1728.09C25.6014,-1706.71 32.5141,-1669.86 37.5998,-1638.08 91.2102,-1303.09 88.8104,-1216.99 142.4,-881.999 146.772,-854.671 152.492,-823.59 156.623,-801.811"/>
<polygon fill="red" stroke="red" stroke-width="3" points="160.073,-802.403 158.51,-791.924 153.197,-801.09 160.073,-802.403"/>
</g>
<!-- 26 -->
<g id="node23" class="node">
<title>26</title>
<ellipse fill="black" stroke="black" cx="18" cy="-2178" rx="18" ry="18"/>
</g>
<!-- 15&#45;&gt;26 -->
<g id="edge24" class="edge">
<title>15&#45;&gt;26</title>
<path fill="none" stroke="black" stroke-width="6" d="M18,-2088.3C18,-2105.2 18,-2130.4 18,-2149.9"/>
<polygon fill="black" stroke="black" stroke-width="6" points="12.7501,-2149.9 18,-2159.9 23.2501,-2149.9 12.7501,-2149.9"/>
</g>
<!-- A -->
<g id="node24" class="node">
<title>A</title>
<ellipse fill="blue" stroke="blue" cx="162" cy="-1098" rx="18" ry="18"/>
</g>
<!-- 15&#45;&gt;A -->
<g id="edge25" class="edge">
<title>15&#45;&gt;A</title>
<path fill="none" stroke="red" stroke-width="3" d="M21.462,-2052.1C25.5459,-2030.74 32.4323,-1993.91 37.5992,-1962.17 90.9939,-1634.2 144.165,-1234.23 158.341,-1126.08"/>
<polygon fill="red" stroke="red" stroke-width="3" points="161.835,-1126.35 159.662,-1115.98 154.894,-1125.44 161.835,-1126.35"/>
</g>
<!-- 11&#45;&gt;15 -->
<g id="edge6" class="edge">
<title>11&#45;&gt;15</title>
<path fill="none" stroke="green" stroke-width="3" d="M12.8536,-1871.38C7.04976,-1892.55 -1.59009,-1929.48 -1.59923,-1961.83 -1.60711,-1989.71 4.77697,-2021 10.2601,-2042.72"/>
<polygon fill="green" stroke="green" stroke-width="3" points="6.91951,-2043.78 12.8474,-2052.56 13.6894,-2042 6.91951,-2043.78"/>
</g>
<!-- 31 -->
<g id="node6" class="node">
<title>31</title>
<ellipse fill="black" stroke="black" cx="18" cy="-1962" rx="18" ry="18"/>
</g>
<!-- 11&#45;&gt;31 -->
<g id="edge5" class="edge">
<title>11&#45;&gt;31</title>
<path fill="none" stroke="black" stroke-width="6" d="M18,-1872.3C18,-1889.2 18,-1914.4 18,-1933.9"/>
<polygon fill="black" stroke="black" stroke-width="6" points="12.7501,-1933.9 18,-1943.9 23.2501,-1933.9 12.7501,-1933.9"/>
</g>
<!-- C -->
<g id="node30" class="node">
<title>C</title>
<ellipse fill="blue" stroke="blue" cx="162" cy="-882" rx="18" ry="18"/>
</g>
<!-- 1D&#45;&gt;C -->
<g id="edge62" class="edge">
<title>1D&#45;&gt;C</title>
<path fill="none" stroke="blue" stroke-width="6" d="M162,-792.32C162,-809.18 162,-834.43 162,-853.85"/>
<polygon fill="blue" stroke="blue" stroke-width="6" points="156.75,-853.95 162,-863.95 167.25,-853.95 156.75,-853.95"/>
</g>
<!-- 1H -->
<g id="node34" class="node">
<title>1H</title>
<ellipse fill="blue" stroke="blue" cx="162" cy="-666" rx="18" ry="18"/>
</g>
<!-- 1D&#45;&gt;1H -->
<g id="edge61" class="edge">
<title>1D&#45;&gt;1H</title>
<path fill="none" stroke="blue" stroke-width="6" d="M167.17,-756.14C168.95,-739.25 169.23,-713.63 168,-694.02"/>
<polygon fill="blue" stroke="blue" stroke-width="6" points="173.215,-693.371 167.17,-683.83 162.749,-694.223 173.215,-693.371"/>
</g>
<!-- 31&#45;&gt;15 -->
<g id="edge18" class="edge">
<title>31&#45;&gt;15</title>
<path fill="none" stroke="black" stroke-width="6" d="M18,-1980.3C18,-1997.2 18,-2022.4 18,-2041.9"/>
<polygon fill="black" stroke="black" stroke-width="6" points="12.7501,-2041.9 18,-2051.9 23.2501,-2041.9 12.7501,-2041.9"/>
</g>
<!-- 2G -->
<g id="node18" class="node">
<title>2G</title>
<ellipse fill="blue" stroke="blue" cx="162" cy="-990" rx="18" ry="18"/>
</g>
<!-- 31&#45;&gt;2G -->
<g id="edge19" class="edge">
<title>31&#45;&gt;2G</title>
<path fill="none" stroke="red" stroke-width="3" d="M21.4904,-1944.09C25.6016,-1922.71 32.5143,-1885.86 37.5998,-1854.09 91.2138,-1519.09 88.8056,-1432.98 142.4,-1097.99 146.772,-1070.66 152.491,-1039.58 156.623,-1017.81"/>
<polygon fill="red" stroke="red" stroke-width="3" points="160.072,-1018.4 158.51,-1007.92 153.197,-1017.09 160.072,-1018.4"/>
</g>
<!-- 5 -->
<g id="node7" class="node">
<title>5</title>
<ellipse fill="black" stroke="black" cx="18" cy="-18" rx="18" ry="18"/>
</g>
<!-- 23 -->
<g id="node8" class="node">
<title>23</title>
<ellipse fill="black" stroke="black" cx="18" cy="-126" rx="18" ry="18"/>
</g>
<!-- 5&#45;&gt;23 -->
<g id="edge7" class="edge">
<title>5&#45;&gt;23</title>
<path fill="none" stroke="black" stroke-width="6" d="M18,-36.321C18,-53.179 18,-78.435 18,-97.853"/>
<polygon fill="black" stroke="black" stroke-width="6" points="12.7501,-97.9499 18,-107.95 23.2501,-97.9501 12.7501,-97.9499"/>
</g>
<!-- 22 -->
<g id="node9" class="node">
<title>22</title>
<ellipse fill="black" stroke="black" cx="18" cy="-234" rx="18" ry="18"/>
</g>
<!-- 23&#45;&gt;22 -->
<g id="edge8" class="edge">
<title>23&#45;&gt;22</title>
<path fill="none" stroke="black" stroke-width="6" d="M18,-144.32C18,-161.18 18,-186.43 18,-205.85"/>
<polygon fill="black" stroke="black" stroke-width="6" points="12.7501,-205.95 18,-215.95 23.2501,-205.95 12.7501,-205.95"/>
</g>
<!-- 13 -->
<g id="node10" class="node">
<title>13</title>
<ellipse fill="black" stroke="black" cx="18" cy="-450" rx="18" ry="18"/>
</g>
<!-- 23&#45;&gt;13 -->
<g id="edge9" class="edge">
<title>23&#45;&gt;13</title>
<path fill="none" stroke="green" stroke-width="3" d="M13.7478,-143.823C8.90401,-165.12 1.28693,-201.902 -1.59998,-233.969 -5.89981,-281.729 -5.893,-294.103 -1.59953,-341.865 0.88143,-369.463 6.85557,-400.551 11.5609,-422.286"/>
<polygon fill="green" stroke="green" stroke-width="3" points="8.16591,-423.144 13.748,-432.149 14.9999,-421.628 8.16591,-423.144"/>
</g>
<!-- 22&#45;&gt;13 -->
<g id="edge10" class="edge">
<title>22&#45;&gt;13</title>
<path fill="none" stroke="green" stroke-width="3" d="M12.8529,-251.386C7.04824,-272.559 -1.5924,-309.508 -1.59953,-341.865 -1.60567,-369.738 4.77826,-401.015 10.2609,-422.733"/>
<polygon fill="green" stroke="green" stroke-width="3" points="6.91953,-423.789 12.848,-432.57 13.6893,-422.009 6.91953,-423.789"/>
</g>
<!-- 30 -->
<g id="node11" class="node">
<title>30</title>
<ellipse fill="black" stroke="black" cx="18" cy="-342" rx="18" ry="18"/>
</g>
<!-- 22&#45;&gt;30 -->
<g id="edge11" class="edge">
<title>22&#45;&gt;30</title>
<path fill="none" stroke="black" stroke-width="6" d="M18,-252.32C18,-269.18 18,-294.43 18,-313.85"/>
<polygon fill="black" stroke="black" stroke-width="6" points="12.7501,-313.95 18,-323.95 23.2501,-313.95 12.7501,-313.95"/>
</g>
<!-- B -->
<g id="node26" class="node">
<title>B</title>
<ellipse fill="blue" stroke="blue" cx="90" cy="-234" rx="18" ry="18"/>
</g>
<!-- 13&#45;&gt;B -->
<g id="edge35" class="edge">
<title>13&#45;&gt;B</title>
<path fill="none" stroke="red" stroke-width="3" d="M23.7704,-432.689C36.3085,-395.075 66.1116,-305.665 81.0875,-260.737"/>
<polygon fill="red" stroke="red" stroke-width="3" points="84.4602,-261.687 84.3021,-251.094 77.8194,-259.474 84.4602,-261.687"/>
</g>
<!-- 25 -->
<g id="node28" class="node">
<title>25</title>
<ellipse fill="black" stroke="black" cx="18" cy="-558" rx="18" ry="18"/>
</g>
<!-- 13&#45;&gt;25 -->
<g id="edge36" class="edge">
<title>13&#45;&gt;25</title>
<path fill="none" stroke="black" stroke-width="6" d="M18,-468.32C18,-485.18 18,-510.43 18,-529.85"/>
<polygon fill="black" stroke="black" stroke-width="6" points="12.7501,-529.95 18,-539.95 23.2501,-529.95 12.7501,-529.95"/>
</g>
<!-- 30&#45;&gt;13 -->
<g id="edge49" class="edge">
<title>30&#45;&gt;13</title>
<path fill="none" stroke="black" stroke-width="6" d="M18,-360.32C18,-377.18 18,-402.43 18,-421.85"/>
<polygon fill="black" stroke="black" stroke-width="6" points="12.7501,-421.95 18,-431.95 23.2501,-421.95 12.7501,-421.95"/>
</g>
<!-- F -->
<g id="node25" class="node">
<title>F</title>
<ellipse fill="blue" stroke="blue" cx="90" cy="-126" rx="18" ry="18"/>
</g>
<!-- 30&#45;&gt;F -->
<g id="edge48" class="edge">
<title>30&#45;&gt;F</title>
<path fill="none" stroke="red" stroke-width="3" d="M23.7704,-324.689C36.3085,-287.075 66.1116,-197.665 81.0875,-152.737"/>
<polygon fill="red" stroke="red" stroke-width="3" points="84.4602,-153.687 84.3021,-143.094 77.8194,-151.474 84.4602,-153.687"/>
</g>
<!-- 6 -->
<g id="node12" class="node">
<title>6</title>
<ellipse fill="black" stroke="black" cx="18" cy="-882" rx="18" ry="18"/>
</g>
<!-- 6&#45;&gt;15 -->
<g id="edge13" class="edge">
<title>6&#45;&gt;15</title>
<path fill="none" stroke="green" stroke-width="3" d="M22.252,-899.858C27.0955,-921.196 34.7123,-958.05 37.5992,-990.176 41.8895,-1037.92 37.5998,-1050.1 37.6,-1098.03 37.6011,-1434.06 37.6008,-1518.06 37.5998,-1854.09 37.5997,-1902.13 41.9123,-1914.33 37.5992,-1962.17 35.1182,-1989.7 29.1442,-2020.69 24.439,-2042.37"/>
<polygon fill="green" stroke="green" stroke-width="3" points="21.0064,-2041.68 22.252,-2052.2 27.8395,-2043.2 21.0064,-2041.68"/>
</g>
<!-- 21 -->
<g id="node13" class="node">
<title>21</title>
<ellipse fill="black" stroke="black" cx="18" cy="-990" rx="18" ry="18"/>
</g>
<!-- 6&#45;&gt;21 -->
<g id="edge12" class="edge">
<title>6&#45;&gt;21</title>
<path fill="none" stroke="black" stroke-width="6" d="M18,-900.32C18,-917.18 18,-942.43 18,-961.85"/>
<polygon fill="black" stroke="black" stroke-width="6" points="12.7501,-961.95 18,-971.95 23.2501,-961.95 12.7501,-961.95"/>
</g>
<!-- 27 -->
<g id="node14" class="node">
<title>27</title>
<ellipse fill="black" stroke="black" cx="18" cy="-1098" rx="18" ry="18"/>
</g>
<!-- 21&#45;&gt;27 -->
<g id="edge14" class="edge">
<title>21&#45;&gt;27</title>
<path fill="none" stroke="black" stroke-width="6" d="M18,-1008.3C18,-1025.2 18,-1050.4 18,-1069.9"/>
<polygon fill="black" stroke="black" stroke-width="6" points="12.7501,-1069.9 18,-1079.9 23.2501,-1069.9 12.7501,-1069.9"/>
</g>
<!-- 1G -->
<g id="node15" class="node">
<title>1G</title>
<ellipse fill="blue" stroke="blue" cx="162" cy="-342" rx="18" ry="18"/>
</g>
<!-- 21&#45;&gt;1G -->
<g id="edge15" class="edge">
<title>21&#45;&gt;1G</title>
<path fill="none" stroke="red" stroke-width="3" d="M21.9263,-972.331C41.8187,-882.816 131.482,-479.331 155.864,-369.614"/>
<polygon fill="red" stroke="red" stroke-width="3" points="159.324,-370.174 158.077,-359.653 152.491,-368.655 159.324,-370.174"/>
</g>
<!-- 2D -->
<g id="node16" class="node">
<title>2D</title>
<ellipse fill="blue" stroke="blue" cx="126" cy="-18" rx="18" ry="18"/>
</g>
<!-- 27&#45;&gt;2D -->
<g id="edge16" class="edge">
<title>27&#45;&gt;2D</title>
<path fill="none" stroke="red" stroke-width="3" d="M21.7265,-1080.14C26.0648,-1058.82 33.1958,-1022.03 37.5992,-990.176 83.8223,-655.832 80.8306,-570.464 109.599,-234.168 115.356,-166.869 121.102,-87.6937 124.022,-46.3664"/>
<polygon fill="red" stroke="red" stroke-width="3" points="127.525,-46.4504 124.736,-36.2294 120.542,-45.959 127.525,-46.4504"/>
</g>
<!-- 17 -->
<g id="node17" class="node">
<title>17</title>
<ellipse fill="black" stroke="black" cx="18" cy="-1206" rx="18" ry="18"/>
</g>
<!-- 27&#45;&gt;17 -->
<g id="edge17" class="edge">
<title>27&#45;&gt;17</title>
<path fill="none" stroke="black" stroke-width="6" d="M18,-1116.3C18,-1133.2 18,-1158.4 18,-1177.9"/>
<polygon fill="black" stroke="black" stroke-width="6" points="12.7501,-1177.9 18,-1187.9 23.2501,-1177.9 12.7501,-1177.9"/>
</g>
<!-- 1E -->
<g id="node27" class="node">
<title>1E</title>
<ellipse fill="blue" stroke="blue" cx="162" cy="-234" rx="18" ry="18"/>
</g>
<!-- 1G&#45;&gt;1E -->
<g id="edge55" class="edge">
<title>1G&#45;&gt;1E</title>
<path fill="none" stroke="blue" stroke-width="6" d="M167.17,-324.14C168.95,-307.25 169.23,-281.63 168,-262.02"/>
<polygon fill="blue" stroke="blue" stroke-width="6" points="173.215,-261.371 167.17,-251.83 162.749,-262.223 173.215,-261.371"/>
</g>
<!-- 2I -->
<g id="node33" class="node">
<title>2I</title>
<ellipse fill="blue" stroke="blue" cx="162" cy="-450" rx="18" ry="18"/>
</g>
<!-- 1G&#45;&gt;2I -->
<g id="edge56" class="edge">
<title>1G&#45;&gt;2I</title>
<path fill="none" stroke="blue" stroke-width="6" d="M162,-360.32C162,-377.18 162,-402.43 162,-421.85"/>
<polygon fill="blue" stroke="blue" stroke-width="6" points="156.75,-421.95 162,-431.95 167.25,-421.95 156.75,-421.95"/>
</g>
<!-- 2H -->
<g id="node20" class="node">
<title>2H</title>
<ellipse fill="blue" stroke="blue" cx="162" cy="-126" rx="18" ry="18"/>
</g>
<!-- 2D&#45;&gt;2H -->
<g id="edge27" class="edge">
<title>2D&#45;&gt;2H</title>
<path fill="none" stroke="blue" stroke-width="6" d="M126.89,-36.321C130.93,-53.825 139.56,-80.383 147.49,-100.06"/>
<polygon fill="blue" stroke="blue" stroke-width="6" points="142.694,-102.199 151.42,-109.37 152.368,-98.1154 142.694,-102.199"/>
</g>
<!-- 2D&#45;&gt;F -->
<g id="edge26" class="edge">
<title>2D&#45;&gt;F</title>
<path fill="none" stroke="blue" stroke-width="6" d="M115.31,-34.875C107.81,-51.749 98.75,-77.996 93.33,-97.995"/>
<polygon fill="blue" stroke="blue" stroke-width="6" points="88.2118,-96.8209 90.862,-107.8 98.3942,-99.384 88.2118,-96.8209"/>
</g>
<!-- 17&#45;&gt;15 -->
<g id="edge42" class="edge">
<title>17&#45;&gt;15</title>
<path fill="none" stroke="green" stroke-width="3" d="M13.7479,-1223.81C8.90416,-1245.1 1.28718,-1281.86 -1.59979,-1313.91 -1.60039,-1313.92 -1.60014,-1734.01 -1.5998,-1853.91 -1.59967,-1901.87 -5.8919,-1914.06 -1.59923,-1961.83 0.881704,-1989.43 6.85575,-2020.53 11.561,-2042.28"/>
<polygon fill="green" stroke="green" stroke-width="3" points="8.16669,-2043.14 13.748,-2052.14 15.0008,-2041.62 8.16669,-2043.14"/>
</g>
<!-- 29 -->
<g id="node31" class="node">
<title>29</title>
<ellipse fill="black" stroke="black" cx="18" cy="-1314" rx="18" ry="18"/>
</g>
<!-- 17&#45;&gt;29 -->
<g id="edge43" class="edge">
<title>17&#45;&gt;29</title>
<path fill="none" stroke="black" stroke-width="6" d="M18,-1224.3C18,-1241.2 18,-1266.4 18,-1285.9"/>
<polygon fill="black" stroke="black" stroke-width="6" points="12.7501,-1285.9 18,-1295.9 23.2501,-1285.9 12.7501,-1285.9"/>
</g>
<!-- 2G&#45;&gt;A -->
<g id="edge57" class="edge">
<title>2G&#45;&gt;A</title>
<path fill="none" stroke="blue" stroke-width="6" d="M156.83,-1007.8C155.05,-1024.7 154.77,-1050.3 156,-1070"/>
<polygon fill="blue" stroke="blue" stroke-width="6" points="150.779,-1070.56 156.83,-1080.1 161.243,-1069.7 150.779,-1070.56"/>
</g>
<!-- 2G&#45;&gt;C -->
<g id="edge58" class="edge">
<title>2G&#45;&gt;C</title>
<path fill="none" stroke="blue" stroke-width="6" d="M167.17,-972.14C168.95,-955.25 169.23,-929.63 168,-910.02"/>
<polygon fill="blue" stroke="blue" stroke-width="6" points="173.215,-909.371 167.17,-899.83 162.749,-910.223 173.215,-909.371"/>
</g>
<!-- 8 -->
<g id="node19" class="node">
<title>8</title>
<ellipse fill="black" stroke="black" cx="18" cy="-774" rx="18" ry="18"/>
</g>
<!-- 8&#45;&gt;6 -->
<g id="edge20" class="edge">
<title>8&#45;&gt;6</title>
<path fill="none" stroke="black" stroke-width="6" d="M18,-792.32C18,-809.18 18,-834.43 18,-853.85"/>
<polygon fill="black" stroke="black" stroke-width="6" points="12.7501,-853.95 18,-863.95 23.2501,-853.95 12.7501,-853.95"/>
</g>
<!-- 8&#45;&gt;2H -->
<g id="edge21" class="edge">
<title>8&#45;&gt;2H</title>
<path fill="none" stroke="red" stroke-width="3" d="M21.9263,-756.331C41.8187,-666.816 131.482,-263.331 155.864,-153.614"/>
<polygon fill="red" stroke="red" stroke-width="3" points="159.324,-154.174 158.077,-143.653 152.491,-152.655 159.324,-154.174"/>
</g>
<!-- 2H&#45;&gt;2D -->
<g id="edge30" class="edge">
<title>2H&#45;&gt;2D</title>
<path fill="none" stroke="blue" stroke-width="6" d="M161.14,-107.8C157.13,-90.375 148.53,-63.896 140.62,-44.2"/>
<polygon fill="blue" stroke="blue" stroke-width="6" points="145.412,-42.0511 136.69,-34.875 135.736,-46.129 145.412,-42.0511"/>
</g>
<!-- 2H&#45;&gt;1E -->
<g id="edge31" class="edge">
<title>2H&#45;&gt;1E</title>
<path fill="none" stroke="blue" stroke-width="6" d="M156.83,-143.83C155.05,-160.72 154.77,-186.33 156,-205.95"/>
<polygon fill="blue" stroke="blue" stroke-width="6" points="150.785,-206.599 156.83,-216.14 161.251,-205.747 150.785,-206.599"/>
</g>
<!-- 9 -->
<g id="node21" class="node">
<title>9</title>
<ellipse fill="black" stroke="black" cx="18" cy="-1530" rx="18" ry="18"/>
</g>
<!-- 9&#45;&gt;4 -->
<g id="edge22" class="edge">
<title>9&#45;&gt;4</title>
<path fill="none" stroke="black" stroke-width="6" d="M18,-1548.3C18,-1565.2 18,-1590.4 18,-1609.9"/>
<polygon fill="black" stroke="black" stroke-width="6" points="12.7501,-1609.9 18,-1619.9 23.2501,-1609.9 12.7501,-1609.9"/>
</g>
<!-- 2E -->
<g id="node22" class="node">
<title>2E</title>
<ellipse fill="blue" stroke="blue" cx="162" cy="-558" rx="18" ry="18"/>
</g>
<!-- 9&#45;&gt;2E -->
<g id="edge23" class="edge">
<title>9&#45;&gt;2E</title>
<path fill="none" stroke="red" stroke-width="3" d="M21.4905,-1512.09C25.6018,-1490.72 32.5147,-1453.87 37.5997,-1422.1 91.2203,-1087.09 88.7934,-1000.97 142.4,-665.948 146.771,-638.632 152.491,-607.567 156.622,-585.798"/>
<polygon fill="red" stroke="red" stroke-width="3" points="160.071,-586.394 158.51,-575.915 153.196,-585.081 160.071,-586.394"/>
</g>
<!-- 2E&#45;&gt;2I -->
<g id="edge51" class="edge">
<title>2E&#45;&gt;2I</title>
<path fill="none" stroke="blue" stroke-width="6" d="M167.17,-540.14C168.95,-523.25 169.23,-497.63 168,-478.02"/>
<polygon fill="blue" stroke="blue" stroke-width="6" points="173.215,-477.371 167.17,-467.83 162.749,-478.223 173.215,-477.371"/>
</g>
<!-- 2E&#45;&gt;1H -->
<g id="edge52" class="edge">
<title>2E&#45;&gt;1H</title>
<path fill="none" stroke="blue" stroke-width="6" d="M156.83,-575.83C155.05,-592.72 154.77,-618.33 156,-637.95"/>
<polygon fill="blue" stroke="blue" stroke-width="6" points="150.785,-638.599 156.83,-648.14 161.251,-637.747 150.785,-638.599"/>
</g>
<!-- 26&#45;&gt;C -->
<g id="edge41" class="edge">
<title>26&#45;&gt;C</title>
<path fill="none" stroke="red" stroke-width="3" d="M21.7164,-2160.12C26.045,-2138.77 33.1667,-2101.95 37.5999,-2070.07 104.037,-1592.33 75.9466,-1467.62 142.4,-989.886 146.21,-962.502 152.005,-931.465 156.307,-909.734"/>
<polygon fill="red" stroke="red" stroke-width="3" points="159.75,-910.363 158.283,-899.871 152.887,-908.988 159.75,-910.363"/>
</g>
<!-- A&#45;&gt;2G -->
<g id="edge59" class="edge">
<title>A&#45;&gt;2G</title>
<path fill="none" stroke="blue" stroke-width="6" d="M167.17,-1080.1C168.95,-1063.2 169.23,-1037.6 168,-1018"/>
<polygon fill="blue" stroke="blue" stroke-width="6" points="173.214,-1017.34 167.17,-1007.8 162.748,-1018.19 173.214,-1017.34"/>
</g>
<!-- F&#45;&gt;2D -->
<g id="edge28" class="edge">
<title>F&#45;&gt;2D</title>
<path fill="none" stroke="blue" stroke-width="6" d="M100.58,-109.37C108.08,-92.547 117.17,-66.241 122.62,-46.167"/>
<polygon fill="blue" stroke="blue" stroke-width="6" points="127.748,-47.303 125.11,-36.321 117.568,-44.7286 127.748,-47.303"/>
</g>
<!-- F&#45;&gt;B -->
<g id="edge29" class="edge">
<title>F&#45;&gt;B</title>
<path fill="none" stroke="blue" stroke-width="6" d="M84.834,-143.83C83.053,-160.72 82.774,-186.33 83.997,-205.95"/>
<polygon fill="blue" stroke="blue" stroke-width="6" points="78.7827,-206.602 84.831,-216.14 89.2477,-205.745 78.7827,-206.602"/>
</g>
<!-- B&#45;&gt;F -->
<g id="edge32" class="edge">
<title>B&#45;&gt;F</title>
<path fill="none" stroke="blue" stroke-width="6" d="M95.17,-216.14C96.95,-199.25 97.23,-173.63 96,-154.02"/>
<polygon fill="blue" stroke="blue" stroke-width="6" points="101.215,-153.371 95.17,-143.83 90.7493,-154.223 101.215,-153.371"/>
</g>
<!-- 1E&#45;&gt;1G -->
<g id="edge34" class="edge">
<title>1E&#45;&gt;1G</title>
<path fill="none" stroke="blue" stroke-width="6" d="M156.83,-251.83C155.05,-268.72 154.77,-294.33 156,-313.95"/>
<polygon fill="blue" stroke="blue" stroke-width="6" points="150.785,-314.599 156.83,-324.14 161.251,-313.747 150.785,-314.599"/>
</g>
<!-- 1E&#45;&gt;2H -->
<g id="edge33" class="edge">
<title>1E&#45;&gt;2H</title>
<path fill="none" stroke="blue" stroke-width="6" d="M167.17,-216.14C168.95,-199.25 169.23,-173.63 168,-154.02"/>
<polygon fill="blue" stroke="blue" stroke-width="6" points="173.215,-153.371 167.17,-143.83 162.749,-154.223 173.215,-153.371"/>
</g>
<!-- 25&#45;&gt;1E -->
<g id="edge37" class="edge">
<title>25&#45;&gt;1E</title>
<path fill="none" stroke="red" stroke-width="3" d="M25.339,-541.487C48.7866,-488.73 122.018,-323.96 150.503,-259.869"/>
<polygon fill="red" stroke="red" stroke-width="3" points="153.813,-261.039 154.676,-250.479 147.416,-258.196 153.813,-261.039"/>
</g>
<!-- 14 -->
<g id="node29" class="node">
<title>14</title>
<ellipse fill="black" stroke="black" cx="18" cy="-666" rx="18" ry="18"/>
</g>
<!-- 25&#45;&gt;14 -->
<g id="edge38" class="edge">
<title>25&#45;&gt;14</title>
<path fill="none" stroke="black" stroke-width="6" d="M18,-576.32C18,-593.18 18,-618.43 18,-637.85"/>
<polygon fill="black" stroke="black" stroke-width="6" points="12.7501,-637.95 18,-647.95 23.2501,-637.95 12.7501,-637.95"/>
</g>
<!-- 14&#45;&gt;15 -->
<g id="edge40" class="edge">
<title>14&#45;&gt;15</title>
<path fill="none" stroke="green" stroke-width="3" d="M13.7479,-683.82C8.90409,-705.112 1.28705,-741.887 -1.59993,-773.947 -5.90651,-821.772 -1.59998,-833.97 -1.6,-881.988 -1.60011,-1313.95 -1.60103,-1421.95 -1.5998,-1853.91 -1.59967,-1901.87 -5.8919,-1914.06 -1.59923,-1961.83 0.881704,-1989.43 6.85575,-2020.53 11.561,-2042.28"/>
<polygon fill="green" stroke="green" stroke-width="3" points="8.16669,-2043.14 13.748,-2052.14 15.0008,-2041.62 8.16669,-2043.14"/>
</g>
<!-- 14&#45;&gt;8 -->
<g id="edge39" class="edge">
<title>14&#45;&gt;8</title>
<path fill="none" stroke="black" stroke-width="6" d="M18,-684.32C18,-701.18 18,-726.43 18,-745.85"/>
<polygon fill="black" stroke="black" stroke-width="6" points="12.7501,-745.95 18,-755.95 23.2501,-745.95 12.7501,-745.95"/>
</g>
<!-- C&#45;&gt;2G -->
<g id="edge60" class="edge">
<title>C&#45;&gt;2G</title>
<path fill="none" stroke="blue" stroke-width="6" d="M156.83,-899.83C155.05,-916.72 154.77,-942.33 156,-961.95"/>
<polygon fill="blue" stroke="blue" stroke-width="6" points="150.785,-962.599 156.83,-972.14 161.251,-961.747 150.785,-962.599"/>
</g>
<!-- 28 -->
<g id="node32" class="node">
<title>28</title>
<ellipse fill="black" stroke="black" cx="18" cy="-1422" rx="18" ry="18"/>
</g>
<!-- 29&#45;&gt;28 -->
<g id="edge44" class="edge">
<title>29&#45;&gt;28</title>
<path fill="none" stroke="black" stroke-width="6" d="M18,-1332.3C18,-1349.2 18,-1374.4 18,-1393.9"/>
<polygon fill="black" stroke="black" stroke-width="6" points="12.7501,-1393.9 18,-1403.9 23.2501,-1393.9 12.7501,-1393.9"/>
</g>
<!-- 29&#45;&gt;2I -->
<g id="edge45" class="edge">
<title>29&#45;&gt;2I</title>
<path fill="none" stroke="red" stroke-width="3" d="M21.3666,-1296.08C25.3587,-1274.68 32.157,-1237.83 37.5996,-1206.12 86.9761,-918.467 93.018,-845.504 142.401,-557.854 147.077,-530.613 152.756,-499.567 156.794,-477.802"/>
<polygon fill="red" stroke="red" stroke-width="3" points="160.244,-478.391 158.633,-467.92 153.363,-477.111 160.244,-478.391"/>
</g>
<!-- 28&#45;&gt;9 -->
<g id="edge46" class="edge">
<title>28&#45;&gt;9</title>
<path fill="none" stroke="black" stroke-width="6" d="M18,-1440.3C18,-1457.2 18,-1482.4 18,-1501.9"/>
<polygon fill="black" stroke="black" stroke-width="6" points="12.7501,-1501.9 18,-1511.9 23.2501,-1501.9 12.7501,-1501.9"/>
</g>
<!-- 28&#45;&gt;1H -->
<g id="edge47" class="edge">
<title>28&#45;&gt;1H</title>
<path fill="none" stroke="red" stroke-width="3" d="M21.4175,-1404.06C40.456,-1304.11 133.409,-816.105 156.7,-693.826"/>
<polygon fill="red" stroke="red" stroke-width="3" points="160.181,-694.253 158.614,-683.774 153.305,-692.943 160.181,-694.253"/>
</g>
<!-- 2I&#45;&gt;2E -->
<g id="edge50" class="edge">
<title>2I&#45;&gt;2E</title>
<path fill="none" stroke="blue" stroke-width="6" d="M156.83,-467.83C155.05,-484.72 154.77,-510.33 156,-529.95"/>
<polygon fill="blue" stroke="blue" stroke-width="6" points="150.785,-530.599 156.83,-540.14 161.251,-529.747 150.785,-530.599"/>
</g>
<!-- 1H&#45;&gt;1D -->
<g id="edge54" class="edge">
<title>1H&#45;&gt;1D</title>
<path fill="none" stroke="blue" stroke-width="6" d="M156.83,-683.83C155.05,-700.72 154.77,-726.33 156,-745.95"/>
<polygon fill="blue" stroke="blue" stroke-width="6" points="150.785,-746.599 156.83,-756.14 161.251,-745.747 150.785,-746.599"/>
</g>
<!-- 1H&#45;&gt;2E -->
<g id="edge53" class="edge">
<title>1H&#45;&gt;2E</title>
<path fill="none" stroke="blue" stroke-width="6" d="M167.17,-648.14C168.95,-631.25 169.23,-605.63 168,-586.02"/>
<polygon fill="blue" stroke="blue" stroke-width="6" points="173.215,-585.371 167.17,-575.83 162.749,-586.223 173.215,-585.371"/>
</g>
</g>
</svg>
