<?xml version="1.0" encoding="UTF-8" standalone="no"?>
<!DOCTYPE svg PUBLIC "-//W3C//DTD SVG 1.1//EN"
 "http://www.w3.org/Graphics/SVG/1.1/DTD/svg11.dtd">
<!-- Generated by graphviz version 2.39.20160710.1729 (20160710.1729)
 -->
<!-- Title: %3 Pages: 1 -->
<svg width="44pt" height="1016pt"
 viewBox="0.00 0.00 44.00 1016.00" xmlns="http://www.w3.org/2000/svg" xmlns:xlink="http://www.w3.org/1999/xlink">
<g id="graph0" class="graph" transform="scale(1 1) rotate(0) translate(4 1012)">
<title>%3</title>
<polygon fill="white" stroke="transparent" points="-4,4 -4,-1012 40,-1012 40,4 -4,4"/>
<!-- 0 -->
<g id="node1" class="node">
<title>0</title>
<ellipse fill="black" stroke="black" cx="18" cy="-666" rx="18" ry="18"/>
</g>
<!-- 11 -->
<g id="node2" class="node">
<title>11</title>
<ellipse fill="black" stroke="black" cx="18" cy="-774" rx="18" ry="18"/>
</g>
<!-- 0&#45;&gt;11 -->
<g id="edge1" class="edge">
<title>0&#45;&gt;11</title>
<path fill="none" stroke="black" stroke-width="6" d="M18,-684.32C18,-701.18 18,-726.43 18,-745.85"/>
<polygon fill="black" stroke="black" stroke-width="6" points="12.7501,-745.95 18,-755.95 23.2501,-745.95 12.7501,-745.95"/>
</g>
<!-- 6 -->
<g id="node3" class="node">
<title>6</title>
<ellipse fill="black" stroke="black" cx="18" cy="-882" rx="18" ry="18"/>
</g>
<!-- 11&#45;&gt;6 -->
<g id="edge2" class="edge">
<title>11&#45;&gt;6</title>
<path fill="none" stroke="black" stroke-width="6" d="M18,-792.32C18,-809.18 18,-834.43 18,-853.85"/>
<polygon fill="black" stroke="black" stroke-width="6" points="12.7501,-853.95 18,-863.95 23.2501,-853.95 12.7501,-853.95"/>
</g>
<!-- 7 -->
<g id="node4" class="node">
<title>7</title>
<ellipse fill="black" stroke="black" cx="18" cy="-990" rx="18" ry="18"/>
</g>
<!-- 6&#45;&gt;7 -->
<g id="edge3" class="edge">
<title>6&#45;&gt;7</title>
<path fill="none" stroke="black" stroke-width="6" d="M18,-900.32C18,-917.18 18,-942.43 18,-961.85"/>
<polygon fill="black" stroke="black" stroke-width="6" points="12.7501,-961.95 18,-971.95 23.2501,-961.95 12.7501,-961.95"/>
</g>
<!-- 9 -->
<g id="node5" class="node">
<title>9</title>
<ellipse fill="black" stroke="black" cx="18" cy="-558" rx="18" ry="18"/>
</g>
<!-- 9&#45;&gt;0 -->
<g id="edge4" class="edge">
<title>9&#45;&gt;0</title>
<path fill="none" stroke="black" stroke-width="6" d="M18,-576.32C18,-593.18 18,-618.43 18,-637.85"/>
<polygon fill="black" stroke="black" stroke-width="6" points="12.7501,-637.95 18,-647.95 23.2501,-637.95 12.7501,-637.95"/>
</g>
<!-- 10 -->
<g id="node6" class="node">
<title>10</title>
<ellipse fill="black" stroke="black" cx="18" cy="-342" rx="18" ry="18"/>
</g>
<!-- 12 -->
<g id="node7" class="node">
<title>12</title>
<ellipse fill="black" stroke="black" cx="18" cy="-450" rx="18" ry="18"/>
</g>
<!-- 10&#45;&gt;12 -->
<g id="edge5" class="edge">
<title>10&#45;&gt;12</title>
<path fill="none" stroke="black" stroke-width="6" d="M18,-360.32C18,-377.18 18,-402.43 18,-421.85"/>
<polygon fill="black" stroke="black" stroke-width="6" points="12.7501,-421.95 18,-431.95 23.2501,-421.95 12.7501,-421.95"/>
</g>
<!-- 12&#45;&gt;9 -->
<g id="edge6" class="edge">
<title>12&#45;&gt;9</title>
<path fill="none" stroke="black" stroke-width="6" d="M18,-468.32C18,-485.18 18,-510.43 18,-529.85"/>
<polygon fill="black" stroke="black" stroke-width="6" points="12.7501,-529.95 18,-539.95 23.2501,-529.95 12.7501,-529.95"/>
</g>
<!-- 13 -->
<g id="node8" class="node">
<title>13</title>
<ellipse fill="black" stroke="black" cx="18" cy="-126" rx="18" ry="18"/>
</g>
<!-- 15 -->
<g id="node9" class="node">
<title>15</title>
<ellipse fill="black" stroke="black" cx="18" cy="-234" rx="18" ry="18"/>
</g>
<!-- 13&#45;&gt;15 -->
<g id="edge7" class="edge">
<title>13&#45;&gt;15</title>
<path fill="none" stroke="black" stroke-width="6" d="M18,-144.32C18,-161.18 18,-186.43 18,-205.85"/>
<polygon fill="black" stroke="black" stroke-width="6" points="12.7501,-205.95 18,-215.95 23.2501,-205.95 12.7501,-205.95"/>
</g>
<!-- 15&#45;&gt;10 -->
<g id="edge8" class="edge">
<title>15&#45;&gt;10</title>
<path fill="none" stroke="black" stroke-width="6" d="M18,-252.32C18,-269.18 18,-294.43 18,-313.85"/>
<polygon fill="black" stroke="black" stroke-width="6" points="12.7501,-313.95 18,-323.95 23.2501,-313.95 12.7501,-313.95"/>
</g>
<!-- 14 -->
<g id="node10" class="node">
<title>14</title>
<ellipse fill="black" stroke="black" cx="18" cy="-18" rx="18" ry="18"/>
</g>
<!-- 14&#45;&gt;13 -->
<g id="edge9" class="edge">
<title>14&#45;&gt;13</title>
<path fill="none" stroke="black" stroke-width="6" d="M18,-36.321C18,-53.179 18,-78.435 18,-97.853"/>
<polygon fill="black" stroke="black" stroke-width="6" points="12.7501,-97.9499 18,-107.95 23.2501,-97.9501 12.7501,-97.9499"/>
</g>
</g>
</svg>
