<?xml version="1.0" encoding="UTF-8" standalone="no"?>
<!DOCTYPE svg PUBLIC "-//W3C//DTD SVG 1.1//EN"
 "http://www.w3.org/Graphics/SVG/1.1/DTD/svg11.dtd">
<!-- Generated by graphviz version 2.39.20160710.1729 (20160710.1729)
 -->
<!-- Title: %3 Pages: 1 -->
<svg width="62pt" height="692pt"
 viewBox="0.00 0.00 62.00 692.00" xmlns="http://www.w3.org/2000/svg" xmlns:xlink="http://www.w3.org/1999/xlink">
<g id="graph0" class="graph" transform="scale(1 1) rotate(0) translate(4 688)">
<title>%3</title>
<polygon fill="white" stroke="transparent" points="-4,4 -4,-688 58,-688 58,4 -4,4"/>
<!-- 0 -->
<g id="node1" class="node">
<title>0</title>
<ellipse fill="none" stroke="black" cx="27" cy="-450" rx="27" ry="18"/>
<text text-anchor="middle" x="27" y="-446.3" font-family="Times,serif" font-size="14.00">0</text>
</g>
<!-- 11 -->
<g id="node2" class="node">
<title>11</title>
<ellipse fill="none" stroke="black" cx="27" cy="-522" rx="27" ry="18"/>
<text text-anchor="middle" x="27" y="-518.3" font-family="Times,serif" font-size="14.00">11</text>
</g>
<!-- 0&#45;&gt;11 -->
<g id="edge1" class="edge">
<title>0&#45;&gt;11</title>
<path fill="none" stroke="black" d="M27,-468.17C27,-475.87 27,-485.03 27,-493.58"/>
<polygon fill="black" stroke="black" points="23.5001,-493.59 27,-503.59 30.5001,-493.59 23.5001,-493.59"/>
</g>
<!-- 6 -->
<g id="node3" class="node">
<title>6</title>
<ellipse fill="none" stroke="black" cx="27" cy="-594" rx="27" ry="18"/>
<text text-anchor="middle" x="27" y="-590.3" font-family="Times,serif" font-size="14.00">6</text>
</g>
<!-- 11&#45;&gt;6 -->
<g id="edge2" class="edge">
<title>11&#45;&gt;6</title>
<path fill="none" stroke="black" d="M27,-540.17C27,-547.87 27,-557.03 27,-565.58"/>
<polygon fill="black" stroke="black" points="23.5001,-565.59 27,-575.59 30.5001,-565.59 23.5001,-565.59"/>
</g>
<!-- 7 -->
<g id="node4" class="node">
<title>7</title>
<ellipse fill="none" stroke="black" cx="27" cy="-666" rx="27" ry="18"/>
<text text-anchor="middle" x="27" y="-662.3" font-family="Times,serif" font-size="14.00">7</text>
</g>
<!-- 6&#45;&gt;7 -->
<g id="edge3" class="edge">
<title>6&#45;&gt;7</title>
<path fill="none" stroke="black" d="M27,-612.17C27,-619.87 27,-629.03 27,-637.58"/>
<polygon fill="black" stroke="black" points="23.5001,-637.59 27,-647.59 30.5001,-637.59 23.5001,-637.59"/>
</g>
<!-- 9 -->
<g id="node5" class="node">
<title>9</title>
<ellipse fill="none" stroke="black" cx="27" cy="-378" rx="27" ry="18"/>
<text text-anchor="middle" x="27" y="-374.3" font-family="Times,serif" font-size="14.00">9</text>
</g>
<!-- 9&#45;&gt;0 -->
<g id="edge4" class="edge">
<title>9&#45;&gt;0</title>
<path fill="none" stroke="black" d="M27,-396.17C27,-403.87 27,-413.03 27,-421.58"/>
<polygon fill="black" stroke="black" points="23.5001,-421.59 27,-431.59 30.5001,-421.59 23.5001,-421.59"/>
</g>
<!-- 10 -->
<g id="node6" class="node">
<title>10</title>
<ellipse fill="none" stroke="black" cx="27" cy="-234" rx="27" ry="18"/>
<text text-anchor="middle" x="27" y="-230.3" font-family="Times,serif" font-size="14.00">10</text>
</g>
<!-- 12 -->
<g id="node7" class="node">
<title>12</title>
<ellipse fill="none" stroke="black" cx="27" cy="-306" rx="27" ry="18"/>
<text text-anchor="middle" x="27" y="-302.3" font-family="Times,serif" font-size="14.00">12</text>
</g>
<!-- 10&#45;&gt;12 -->
<g id="edge5" class="edge">
<title>10&#45;&gt;12</title>
<path fill="none" stroke="black" d="M27,-252.17C27,-259.87 27,-269.03 27,-277.58"/>
<polygon fill="black" stroke="black" points="23.5001,-277.59 27,-287.59 30.5001,-277.59 23.5001,-277.59"/>
</g>
<!-- 12&#45;&gt;9 -->
<g id="edge6" class="edge">
<title>12&#45;&gt;9</title>
<path fill="none" stroke="black" d="M27,-324.17C27,-331.87 27,-341.03 27,-349.58"/>
<polygon fill="black" stroke="black" points="23.5001,-349.59 27,-359.59 30.5001,-349.59 23.5001,-349.59"/>
</g>
<!-- 13 -->
<g id="node8" class="node">
<title>13</title>
<ellipse fill="none" stroke="black" cx="27" cy="-90" rx="27" ry="18"/>
<text text-anchor="middle" x="27" y="-86.3" font-family="Times,serif" font-size="14.00">13</text>
</g>
<!-- 15 -->
<g id="node9" class="node">
<title>15</title>
<ellipse fill="none" stroke="black" cx="27" cy="-162" rx="27" ry="18"/>
<text text-anchor="middle" x="27" y="-158.3" font-family="Times,serif" font-size="14.00">15</text>
</g>
<!-- 13&#45;&gt;15 -->
<g id="edge7" class="edge">
<title>13&#45;&gt;15</title>
<path fill="none" stroke="black" d="M27,-108.17C27,-115.87 27,-125.03 27,-133.58"/>
<polygon fill="black" stroke="black" points="23.5001,-133.59 27,-143.59 30.5001,-133.59 23.5001,-133.59"/>
</g>
<!-- 15&#45;&gt;10 -->
<g id="edge8" class="edge">
<title>15&#45;&gt;10</title>
<path fill="none" stroke="black" d="M27,-180.17C27,-187.87 27,-197.03 27,-205.58"/>
<polygon fill="black" stroke="black" points="23.5001,-205.59 27,-215.59 30.5001,-205.59 23.5001,-205.59"/>
</g>
<!-- 14 -->
<g id="node10" class="node">
<title>14</title>
<ellipse fill="none" stroke="black" cx="27" cy="-18" rx="27" ry="18"/>
<text text-anchor="middle" x="27" y="-14.3" font-family="Times,serif" font-size="14.00">14</text>
</g>
<!-- 14&#45;&gt;13 -->
<g id="edge9" class="edge">
<title>14&#45;&gt;13</title>
<path fill="none" stroke="black" d="M27,-36.169C27,-43.869 27,-53.026 27,-61.583"/>
<polygon fill="black" stroke="black" points="23.5001,-61.587 27,-71.587 30.5001,-61.587 23.5001,-61.587"/>
</g>
</g>
</svg>
