<?xml version="1.0" encoding="UTF-8" standalone="no"?>
<!DOCTYPE svg PUBLIC "-//W3C//DTD SVG 1.1//EN"
 "http://www.w3.org/Graphics/SVG/1.1/DTD/svg11.dtd">
<!-- Generated by graphviz version 2.39.20160710.1729 (20160710.1729)
 -->
<!-- Title: %3 Pages: 1 -->
<svg width="372pt" height="370pt"
 viewBox="0.00 0.00 372.00 370.30" xmlns="http://www.w3.org/2000/svg" xmlns:xlink="http://www.w3.org/1999/xlink">
<g id="graph0" class="graph" transform="scale(1 1) rotate(0) translate(4 364)">
<title>%3</title>
<polygon fill="white" stroke="transparent" points="-4,6.30193 -4,-364 368,-364 368,6.30193 -4,6.30193"/>
<!-- 6 -->
<g id="node1" class="node">
<title>6</title>
<ellipse fill="black" stroke="black" cx="162" cy="-234" rx="18" ry="18"/>
</g>
<!-- 0 -->
<g id="node2" class="node">
<title>0</title>
<ellipse fill="black" stroke="black" cx="90" cy="-342" rx="18" ry="18"/>
</g>
<!-- 6&#45;&gt;0 -->
<g id="edge1" class="edge">
<title>6&#45;&gt;0</title>
<path fill="none" stroke="black" stroke-width="6" d="M150.75,-250.88C138.97,-268.55 120.33,-296.51 106.8,-316.8"/>
<polygon fill="black" stroke="black" stroke-width="6" points="102.352,-314.008 101.17,-325.24 111.087,-319.834 102.352,-314.008"/>
</g>
<!-- paper -->
<g id="node3" class="node">
<title>paper</title>
<ellipse fill="blue" stroke="blue" cx="346" cy="-126" rx="18" ry="18"/>
</g>
<!-- 6&#45;&gt;paper -->
<g id="edge2" class="edge">
<title>6&#45;&gt;paper</title>
<path fill="none" stroke="red" stroke-width="3" d="M177.688,-224.792C209.735,-205.982 282.925,-163.022 321.372,-140.455"/>
<polygon fill="red" stroke="red" stroke-width="3" points="323.5,-143.265 330.352,-135.185 319.956,-137.228 323.5,-143.265"/>
</g>
<!-- file -->
<g id="node4" class="node">
<title>file</title>
<ellipse fill="blue" stroke="blue" cx="346" cy="-234" rx="18" ry="18"/>
</g>
<!-- 0&#45;&gt;file -->
<g id="edge3" class="edge">
<title>0&#45;&gt;file</title>
<path fill="none" stroke="red" stroke-width="3" d="M106.797,-334.914C150.374,-316.53 267.305,-267.199 319.826,-245.042"/>
<polygon fill="red" stroke="red" stroke-width="3" points="321.288,-248.224 329.141,-241.112 318.567,-241.775 321.288,-248.224"/>
</g>
<!-- paper&#45;&gt;file -->
<g id="edge14" class="edge">
<title>paper&#45;&gt;file</title>
<path fill="none" stroke="blue" stroke-width="6" d="M346,-144.32C346,-161.18 346,-186.43 346,-205.85"/>
<polygon fill="blue" stroke="blue" stroke-width="6" points="340.75,-205.95 346,-215.95 351.25,-205.95 340.75,-205.95"/>
</g>
<!-- 7 -->
<g id="node5" class="node">
<title>7</title>
<ellipse fill="black" stroke="black" cx="54" cy="-126" rx="18" ry="18"/>
</g>
<!-- 7&#45;&gt;6 -->
<g id="edge4" class="edge">
<title>7&#45;&gt;6</title>
<path fill="none" stroke="black" stroke-width="6" d="M69.017,-141.02C87.291,-159.29 118.32,-190.32 139.46,-211.46"/>
<polygon fill="black" stroke="black" stroke-width="6" points="135.977,-215.401 146.76,-218.76 143.401,-207.977 135.977,-215.401"/>
</g>
<!-- 9 -->
<g id="node6" class="node">
<title>9</title>
<ellipse fill="black" stroke="black" cx="18" cy="-234" rx="18" ry="18"/>
</g>
<!-- 9&#45;&gt;0 -->
<g id="edge5" class="edge">
<title>9&#45;&gt;0</title>
<path fill="none" stroke="black" stroke-width="6" d="M29.25,-250.88C41.033,-268.55 59.671,-296.51 73.198,-316.8"/>
<polygon fill="black" stroke="black" stroke-width="6" points="68.9118,-319.835 78.829,-325.24 77.6462,-314.008 68.9118,-319.835"/>
</g>
<!-- 10 -->
<g id="node7" class="node">
<title>10</title>
<ellipse fill="black" stroke="black" cx="90" cy="-234" rx="18" ry="18"/>
</g>
<!-- 10&#45;&gt;0 -->
<g id="edge6" class="edge">
<title>10&#45;&gt;0</title>
<path fill="none" stroke="black" stroke-width="6" d="M90,-252.32C90,-269.18 90,-294.43 90,-313.85"/>
<polygon fill="black" stroke="black" stroke-width="6" points="84.7501,-313.95 90,-323.95 95.2501,-313.95 84.7501,-313.95"/>
</g>
<!-- 11 -->
<g id="node8" class="node">
<title>11</title>
<ellipse fill="black" stroke="black" cx="126" cy="-126" rx="18" ry="18"/>
</g>
<!-- 11&#45;&gt;6 -->
<g id="edge7" class="edge">
<title>11&#45;&gt;6</title>
<path fill="none" stroke="black" stroke-width="6" d="M131.94,-143.83C137.62,-160.87 146.27,-186.81 152.83,-206.49"/>
<polygon fill="black" stroke="black" stroke-width="6" points="147.905,-208.316 156.05,-216.14 157.865,-204.992 147.905,-208.316"/>
</g>
<!-- 12 -->
<g id="node9" class="node">
<title>12</title>
<ellipse fill="black" stroke="black" cx="198" cy="-126" rx="18" ry="18"/>
</g>
<!-- 12&#45;&gt;6 -->
<g id="edge8" class="edge">
<title>12&#45;&gt;6</title>
<path fill="none" stroke="black" stroke-width="6" d="M192.06,-143.83C186.38,-160.87 177.73,-186.81 171.17,-206.49"/>
<polygon fill="black" stroke="black" stroke-width="6" points="166.135,-204.992 167.95,-216.14 176.095,-208.316 166.135,-204.992"/>
</g>
<!-- 13 -->
<g id="node10" class="node">
<title>13</title>
<ellipse fill="black" stroke="black" cx="270" cy="-126" rx="18" ry="18"/>
</g>
<!-- 13&#45;&gt;6 -->
<g id="edge9" class="edge">
<title>13&#45;&gt;6</title>
<path fill="none" stroke="black" stroke-width="6" d="M254.98,-141.02C236.71,-159.29 205.68,-190.32 184.54,-211.46"/>
<polygon fill="black" stroke="black" stroke-width="6" points="180.599,-207.977 177.24,-218.76 188.023,-215.401 180.599,-207.977"/>
</g>
<!-- 14 -->
<g id="node11" class="node">
<title>14</title>
<ellipse fill="black" stroke="black" cx="126" cy="-18" rx="18" ry="18"/>
</g>
<!-- 14&#45;&gt;11 -->
<g id="edge10" class="edge">
<title>14&#45;&gt;11</title>
<path fill="none" stroke="black" stroke-width="6" d="M126,-36.321C126,-53.179 126,-78.435 126,-97.853"/>
<polygon fill="black" stroke="black" stroke-width="6" points="120.75,-97.9499 126,-107.95 131.25,-97.9501 120.75,-97.9499"/>
</g>
<!-- text -->
<g id="node12" class="node">
<title>text</title>
<ellipse fill="blue" stroke="blue" cx="346" cy="-18" rx="18" ry="18"/>
</g>
<!-- 14&#45;&gt;text -->
<g id="edge11" class="edge">
<title>14&#45;&gt;text</title>
<path fill="none" stroke="red" stroke-width="3" d="M142.88,-11.3693C157.303,-6.20414 178.743,0.301703 198.176,1.59921 240.277,4.41012 288.688,-4.30235 318.309,-11.0047"/>
<polygon fill="red" stroke="red" stroke-width="3" points="317.791,-14.478 328.326,-13.3579 319.392,-7.66353 317.791,-14.478"/>
</g>
<!-- text&#45;&gt;paper -->
<g id="edge13" class="edge">
<title>text&#45;&gt;paper</title>
<path fill="none" stroke="blue" stroke-width="6" d="M346,-36.321C346,-53.179 346,-78.435 346,-97.853"/>
<polygon fill="blue" stroke="blue" stroke-width="6" points="340.75,-97.9499 346,-107.95 351.25,-97.9501 340.75,-97.9499"/>
</g>
<!-- 15 -->
<g id="node13" class="node">
<title>15</title>
<ellipse fill="black" stroke="black" cx="198" cy="-18" rx="18" ry="18"/>
</g>
<!-- 15&#45;&gt;12 -->
<g id="edge12" class="edge">
<title>15&#45;&gt;12</title>
<path fill="none" stroke="black" stroke-width="6" d="M198,-36.321C198,-53.179 198,-78.435 198,-97.853"/>
<polygon fill="black" stroke="black" stroke-width="6" points="192.75,-97.9499 198,-107.95 203.25,-97.9501 192.75,-97.9499"/>
</g>
</g>
</svg>
