<?xml version="1.0" encoding="UTF-8" standalone="no"?>
<!DOCTYPE svg PUBLIC "-//W3C//DTD SVG 1.1//EN"
 "http://www.w3.org/Graphics/SVG/1.1/DTD/svg11.dtd">
<!-- Generated by graphviz version 2.39.20160710.1729 (20160710.1729)
 -->
<!-- Title: %3 Pages: 1 -->
<svg width="394pt" height="260pt"
 viewBox="0.00 0.00 394.20 260.00" xmlns="http://www.w3.org/2000/svg" xmlns:xlink="http://www.w3.org/1999/xlink">
<g id="graph0" class="graph" transform="scale(1 1) rotate(0) translate(4 256)">
<title>%3</title>
<polygon fill="white" stroke="transparent" points="-4,4 -4,-256 390.197,-256 390.197,4 -4,4"/>
<!-- 6 -->
<g id="node1" class="node">
<title>6</title>
<ellipse fill="none" stroke="black" cx="171" cy="-162" rx="27" ry="18"/>
<text text-anchor="middle" x="171" y="-158.3" font-family="Times,serif" font-size="14.00">6</text>
</g>
<!-- 0 -->
<g id="node2" class="node">
<title>0</title>
<ellipse fill="none" stroke="black" cx="99" cy="-234" rx="27" ry="18"/>
<text text-anchor="middle" x="99" y="-230.3" font-family="Times,serif" font-size="14.00">0</text>
</g>
<!-- 6&#45;&gt;0 -->
<g id="edge1" class="edge">
<title>6&#45;&gt;0</title>
<path fill="none" stroke="black" d="M155.73,-177.27C145.8,-187.2 132.68,-200.32 121.56,-211.44"/>
<polygon fill="black" stroke="black" points="118.846,-209.204 114.25,-218.75 123.796,-214.154 118.846,-209.204"/>
</g>
<!-- paper -->
<g id="node3" class="node">
<title>paper</title>
<ellipse fill="none" stroke="black" cx="355" cy="-90" rx="31.3957" ry="18"/>
<text text-anchor="middle" x="355" y="-86.3" font-family="Times,serif" font-size="14.00">paper</text>
</g>
<!-- 6&#45;&gt;paper -->
<g id="edge2" class="edge">
<title>6&#45;&gt;paper</title>
<path fill="none" stroke="red" d="M194.304,-152.881C225.906,-140.515 282.633,-118.317 319.538,-103.877"/>
<polygon fill="red" stroke="red" points="320.887,-107.107 328.924,-100.204 318.336,-100.588 320.887,-107.107"/>
</g>
<!-- file -->
<g id="node4" class="node">
<title>file</title>
<ellipse fill="none" stroke="black" cx="355" cy="-162" rx="27" ry="18"/>
<text text-anchor="middle" x="355" y="-158.3" font-family="Times,serif" font-size="14.00">file</text>
</g>
<!-- 0&#45;&gt;file -->
<g id="edge3" class="edge">
<title>0&#45;&gt;file</title>
<path fill="none" stroke="red" d="M124.012,-226.965C169.895,-214.061 267.605,-186.58 320.033,-171.834"/>
<polygon fill="red" stroke="red" points="321.207,-175.14 329.886,-169.063 319.312,-168.402 321.207,-175.14"/>
</g>
<!-- paper&#45;&gt;file -->
<g id="edge14" class="edge">
<title>paper&#45;&gt;file</title>
<path fill="none" stroke="black" d="M355,-108.17C355,-115.87 355,-125.03 355,-133.58"/>
<polygon fill="black" stroke="black" points="351.5,-133.59 355,-143.59 358.5,-133.59 351.5,-133.59"/>
</g>
<!-- 7 -->
<g id="node5" class="node">
<title>7</title>
<ellipse fill="none" stroke="black" cx="63" cy="-90" rx="27" ry="18"/>
<text text-anchor="middle" x="63" y="-86.3" font-family="Times,serif" font-size="14.00">7</text>
</g>
<!-- 7&#45;&gt;6 -->
<g id="edge4" class="edge">
<title>7&#45;&gt;6</title>
<path fill="none" stroke="black" d="M82.308,-102.87C99.355,-114.24 124.4,-130.93 143.53,-143.69"/>
<polygon fill="black" stroke="black" points="141.597,-146.608 151.86,-149.24 145.479,-140.783 141.597,-146.608"/>
</g>
<!-- 9 -->
<g id="node6" class="node">
<title>9</title>
<ellipse fill="none" stroke="black" cx="27" cy="-162" rx="27" ry="18"/>
<text text-anchor="middle" x="27" y="-158.3" font-family="Times,serif" font-size="14.00">9</text>
</g>
<!-- 9&#45;&gt;0 -->
<g id="edge5" class="edge">
<title>9&#45;&gt;0</title>
<path fill="none" stroke="black" d="M42.269,-177.27C52.197,-187.2 65.315,-200.32 76.436,-211.44"/>
<polygon fill="black" stroke="black" points="74.2048,-214.158 83.753,-218.75 79.1522,-209.206 74.2048,-214.158"/>
</g>
<!-- 10 -->
<g id="node7" class="node">
<title>10</title>
<ellipse fill="none" stroke="black" cx="99" cy="-162" rx="27" ry="18"/>
<text text-anchor="middle" x="99" y="-158.3" font-family="Times,serif" font-size="14.00">10</text>
</g>
<!-- 10&#45;&gt;0 -->
<g id="edge6" class="edge">
<title>10&#45;&gt;0</title>
<path fill="none" stroke="black" d="M99,-180.17C99,-187.87 99,-197.03 99,-205.58"/>
<polygon fill="black" stroke="black" points="95.5001,-205.59 99,-215.59 102.5,-205.59 95.5001,-205.59"/>
</g>
<!-- 11 -->
<g id="node8" class="node">
<title>11</title>
<ellipse fill="none" stroke="black" cx="135" cy="-90" rx="27" ry="18"/>
<text text-anchor="middle" x="135" y="-86.3" font-family="Times,serif" font-size="14.00">11</text>
</g>
<!-- 11&#45;&gt;6 -->
<g id="edge7" class="edge">
<title>11&#45;&gt;6</title>
<path fill="none" stroke="black" d="M143.71,-107.43C147.96,-115.92 153.15,-126.31 157.87,-135.73"/>
<polygon fill="black" stroke="black" points="154.767,-137.351 162.37,-144.73 161.028,-134.22 154.767,-137.351"/>
</g>
<!-- 12 -->
<g id="node9" class="node">
<title>12</title>
<ellipse fill="none" stroke="black" cx="207" cy="-90" rx="27" ry="18"/>
<text text-anchor="middle" x="207" y="-86.3" font-family="Times,serif" font-size="14.00">12</text>
</g>
<!-- 12&#45;&gt;6 -->
<g id="edge8" class="edge">
<title>12&#45;&gt;6</title>
<path fill="none" stroke="black" d="M198.29,-107.43C194.04,-115.92 188.85,-126.31 184.13,-135.73"/>
<polygon fill="black" stroke="black" points="180.972,-134.22 179.63,-144.73 187.233,-137.351 180.972,-134.22"/>
</g>
<!-- 13 -->
<g id="node10" class="node">
<title>13</title>
<ellipse fill="none" stroke="black" cx="279" cy="-90" rx="27" ry="18"/>
<text text-anchor="middle" x="279" y="-86.3" font-family="Times,serif" font-size="14.00">13</text>
</g>
<!-- 13&#45;&gt;6 -->
<g id="edge9" class="edge">
<title>13&#45;&gt;6</title>
<path fill="none" stroke="black" d="M259.69,-102.87C242.64,-114.24 217.6,-130.93 198.47,-143.69"/>
<polygon fill="black" stroke="black" points="196.521,-140.783 190.14,-149.24 200.403,-146.608 196.521,-140.783"/>
</g>
<!-- text -->
<g id="node11" class="node">
<title>text</title>
<ellipse fill="none" stroke="black" cx="355" cy="-18" rx="27" ry="18"/>
<text text-anchor="middle" x="355" y="-14.3" font-family="Times,serif" font-size="14.00">text</text>
</g>
<!-- 13&#45;&gt;text -->
<g id="edge10" class="edge">
<title>13&#45;&gt;text</title>
<path fill="none" stroke="red" d="M294.747,-75.0816C305.447,-64.945 319.781,-51.3654 331.784,-39.9944"/>
<polygon fill="red" stroke="red" points="334.42,-42.3177 339.273,-32.8993 329.606,-37.236 334.42,-42.3177"/>
</g>
<!-- text&#45;&gt;paper -->
<g id="edge13" class="edge">
<title>text&#45;&gt;paper</title>
<path fill="none" stroke="black" d="M355,-36.169C355,-43.869 355,-53.026 355,-61.583"/>
<polygon fill="black" stroke="black" points="351.5,-61.587 355,-71.587 358.5,-61.587 351.5,-61.587"/>
</g>
<!-- 14 -->
<g id="node12" class="node">
<title>14</title>
<ellipse fill="none" stroke="black" cx="135" cy="-18" rx="27" ry="18"/>
<text text-anchor="middle" x="135" y="-14.3" font-family="Times,serif" font-size="14.00">14</text>
</g>
<!-- 14&#45;&gt;11 -->
<g id="edge11" class="edge">
<title>14&#45;&gt;11</title>
<path fill="none" stroke="black" d="M135,-36.169C135,-43.869 135,-53.026 135,-61.583"/>
<polygon fill="black" stroke="black" points="131.5,-61.587 135,-71.587 138.5,-61.587 131.5,-61.587"/>
</g>
<!-- 15 -->
<g id="node13" class="node">
<title>15</title>
<ellipse fill="none" stroke="black" cx="207" cy="-18" rx="27" ry="18"/>
<text text-anchor="middle" x="207" y="-14.3" font-family="Times,serif" font-size="14.00">15</text>
</g>
<!-- 15&#45;&gt;12 -->
<g id="edge12" class="edge">
<title>15&#45;&gt;12</title>
<path fill="none" stroke="black" d="M207,-36.169C207,-43.869 207,-53.026 207,-61.583"/>
<polygon fill="black" stroke="black" points="203.5,-61.587 207,-71.587 210.5,-61.587 203.5,-61.587"/>
</g>
</g>
</svg>
