<?xml version="1.0" encoding="UTF-8" standalone="no"?>
<!DOCTYPE svg PUBLIC "-//W3C//DTD SVG 1.1//EN"
 "http://www.w3.org/Graphics/SVG/1.1/DTD/svg11.dtd">
<!-- Generated by graphviz version 2.39.20160710.1729 (20160710.1729)
 -->
<!-- Title: %3 Pages: 1 -->
<svg width="142pt" height="692pt"
 viewBox="0.00 0.00 142.20 692.00" xmlns="http://www.w3.org/2000/svg" xmlns:xlink="http://www.w3.org/1999/xlink">
<g id="graph0" class="graph" transform="scale(1 1) rotate(0) translate(4 688)">
<title>%3</title>
<polygon fill="white" stroke="transparent" points="-4,4 -4,-688 138.197,-688 138.197,4 -4,4"/>
<!-- 0 -->
<g id="node1" class="node">
<title>0</title>
<ellipse fill="none" stroke="black" cx="27" cy="-450" rx="27" ry="18"/>
<text text-anchor="middle" x="27" y="-446.3" font-family="Times,serif" font-size="14.00">0</text>
</g>
<!-- 11 -->
<g id="node2" class="node">
<title>11</title>
<ellipse fill="none" stroke="black" cx="27" cy="-522" rx="27" ry="18"/>
<text text-anchor="middle" x="27" y="-518.3" font-family="Times,serif" font-size="14.00">11</text>
</g>
<!-- 0&#45;&gt;11 -->
<g id="edge1" class="edge">
<title>0&#45;&gt;11</title>
<path fill="none" stroke="black" d="M27,-468.17C27,-475.87 27,-485.03 27,-493.58"/>
<polygon fill="black" stroke="black" points="23.5001,-493.59 27,-503.59 30.5001,-493.59 23.5001,-493.59"/>
</g>
<!-- file -->
<g id="node3" class="node">
<title>file</title>
<ellipse fill="none" stroke="black" cx="103" cy="-90" rx="27" ry="18"/>
<text text-anchor="middle" x="103" y="-86.3" font-family="Times,serif" font-size="14.00">file</text>
</g>
<!-- 0&#45;&gt;file -->
<g id="edge2" class="edge">
<title>0&#45;&gt;file</title>
<path fill="none" stroke="red" d="M35.6274,-432.736C42.3302,-418.447 51.2019,-397.416 55.6,-378.003 76.877,-284.085 46.5764,-255.18 70.2041,-161.826 74.2097,-146 81.5861,-129.354 88.3302,-116.076"/>
<polygon fill="red" stroke="red" points="91.5134,-117.543 93.0719,-107.063 85.3184,-114.283 91.5134,-117.543"/>
</g>
<!-- 6 -->
<g id="node4" class="node">
<title>6</title>
<ellipse fill="none" stroke="black" cx="27" cy="-594" rx="27" ry="18"/>
<text text-anchor="middle" x="27" y="-590.3" font-family="Times,serif" font-size="14.00">6</text>
</g>
<!-- 11&#45;&gt;6 -->
<g id="edge3" class="edge">
<title>11&#45;&gt;6</title>
<path fill="none" stroke="black" d="M27,-540.17C27,-547.87 27,-557.03 27,-565.58"/>
<polygon fill="black" stroke="black" points="23.5001,-565.59 27,-575.59 30.5001,-565.59 23.5001,-565.59"/>
</g>
<!-- paper -->
<g id="node6" class="node">
<title>paper</title>
<ellipse fill="none" stroke="black" cx="103" cy="-162" rx="31.3957" ry="18"/>
<text text-anchor="middle" x="103" y="-158.3" font-family="Times,serif" font-size="14.00">paper</text>
</g>
<!-- file&#45;&gt;paper -->
<g id="edge14" class="edge">
<title>file&#45;&gt;paper</title>
<path fill="none" stroke="black" d="M103,-108.17C103,-115.87 103,-125.03 103,-133.58"/>
<polygon fill="black" stroke="black" points="99.5001,-133.59 103,-143.59 106.5,-133.59 99.5001,-133.59"/>
</g>
<!-- 7 -->
<g id="node5" class="node">
<title>7</title>
<ellipse fill="none" stroke="black" cx="27" cy="-666" rx="27" ry="18"/>
<text text-anchor="middle" x="27" y="-662.3" font-family="Times,serif" font-size="14.00">7</text>
</g>
<!-- 6&#45;&gt;7 -->
<g id="edge4" class="edge">
<title>6&#45;&gt;7</title>
<path fill="none" stroke="black" d="M27,-612.17C27,-619.87 27,-629.03 27,-637.58"/>
<polygon fill="black" stroke="black" points="23.5001,-637.59 27,-647.59 30.5001,-637.59 23.5001,-637.59"/>
</g>
<!-- 6&#45;&gt;paper -->
<g id="edge5" class="edge">
<title>6&#45;&gt;paper</title>
<path fill="none" stroke="red" d="M35.301,-576.697C41.8142,-562.395 50.5902,-541.39 55.599,-522.165 87.0991,-401.26 98.2323,-251.797 101.657,-190.379"/>
<polygon fill="red" stroke="red" points="105.157,-190.465 102.193,-180.293 98.1669,-190.093 105.157,-190.465"/>
</g>
<!-- 9 -->
<g id="node7" class="node">
<title>9</title>
<ellipse fill="none" stroke="black" cx="27" cy="-378" rx="27" ry="18"/>
<text text-anchor="middle" x="27" y="-374.3" font-family="Times,serif" font-size="14.00">9</text>
</g>
<!-- 9&#45;&gt;0 -->
<g id="edge6" class="edge">
<title>9&#45;&gt;0</title>
<path fill="none" stroke="black" d="M27,-396.17C27,-403.87 27,-413.03 27,-421.58"/>
<polygon fill="black" stroke="black" points="23.5001,-421.59 27,-431.59 30.5001,-421.59 23.5001,-421.59"/>
</g>
<!-- 10 -->
<g id="node8" class="node">
<title>10</title>
<ellipse fill="none" stroke="black" cx="27" cy="-234" rx="27" ry="18"/>
<text text-anchor="middle" x="27" y="-230.3" font-family="Times,serif" font-size="14.00">10</text>
</g>
<!-- 12 -->
<g id="node9" class="node">
<title>12</title>
<ellipse fill="none" stroke="black" cx="27" cy="-306" rx="27" ry="18"/>
<text text-anchor="middle" x="27" y="-302.3" font-family="Times,serif" font-size="14.00">12</text>
</g>
<!-- 10&#45;&gt;12 -->
<g id="edge7" class="edge">
<title>10&#45;&gt;12</title>
<path fill="none" stroke="black" d="M27,-252.17C27,-259.87 27,-269.03 27,-277.58"/>
<polygon fill="black" stroke="black" points="23.5001,-277.59 27,-287.59 30.5001,-277.59 23.5001,-277.59"/>
</g>
<!-- 12&#45;&gt;9 -->
<g id="edge8" class="edge">
<title>12&#45;&gt;9</title>
<path fill="none" stroke="black" d="M27,-324.17C27,-331.87 27,-341.03 27,-349.58"/>
<polygon fill="black" stroke="black" points="23.5001,-349.59 27,-359.59 30.5001,-349.59 23.5001,-349.59"/>
</g>
<!-- 13 -->
<g id="node10" class="node">
<title>13</title>
<ellipse fill="none" stroke="black" cx="27" cy="-90" rx="27" ry="18"/>
<text text-anchor="middle" x="27" y="-86.3" font-family="Times,serif" font-size="14.00">13</text>
</g>
<!-- 15 -->
<g id="node11" class="node">
<title>15</title>
<ellipse fill="none" stroke="black" cx="27" cy="-162" rx="27" ry="18"/>
<text text-anchor="middle" x="27" y="-158.3" font-family="Times,serif" font-size="14.00">15</text>
</g>
<!-- 13&#45;&gt;15 -->
<g id="edge9" class="edge">
<title>13&#45;&gt;15</title>
<path fill="none" stroke="black" d="M27,-108.17C27,-115.87 27,-125.03 27,-133.58"/>
<polygon fill="black" stroke="black" points="23.5001,-133.59 27,-143.59 30.5001,-133.59 23.5001,-133.59"/>
</g>
<!-- 15&#45;&gt;10 -->
<g id="edge10" class="edge">
<title>15&#45;&gt;10</title>
<path fill="none" stroke="black" d="M27,-180.17C27,-187.87 27,-197.03 27,-205.58"/>
<polygon fill="black" stroke="black" points="23.5001,-205.59 27,-215.59 30.5001,-205.59 23.5001,-205.59"/>
</g>
<!-- text -->
<g id="node12" class="node">
<title>text</title>
<ellipse fill="none" stroke="black" cx="103" cy="-18" rx="27" ry="18"/>
<text text-anchor="middle" x="103" y="-14.3" font-family="Times,serif" font-size="14.00">text</text>
</g>
<!-- 15&#45;&gt;text -->
<g id="edge11" class="edge">
<title>15&#45;&gt;text</title>
<path fill="none" stroke="red" d="M36.0166,-144.916C49.158,-120.016 73.685,-73.5442 89.1336,-44.2732"/>
<polygon fill="red" stroke="red" points="92.4228,-45.5395 93.9951,-35.0619 86.2321,-42.2721 92.4228,-45.5395"/>
</g>
<!-- text&#45;&gt;file -->
<g id="edge13" class="edge">
<title>text&#45;&gt;file</title>
<path fill="none" stroke="black" d="M103,-36.169C103,-43.869 103,-53.026 103,-61.583"/>
<polygon fill="black" stroke="black" points="99.5001,-61.587 103,-71.587 106.5,-61.587 99.5001,-61.587"/>
</g>
<!-- 14 -->
<g id="node13" class="node">
<title>14</title>
<ellipse fill="none" stroke="black" cx="27" cy="-18" rx="27" ry="18"/>
<text text-anchor="middle" x="27" y="-14.3" font-family="Times,serif" font-size="14.00">14</text>
</g>
<!-- 14&#45;&gt;13 -->
<g id="edge12" class="edge">
<title>14&#45;&gt;13</title>
<path fill="none" stroke="black" d="M27,-36.169C27,-43.869 27,-53.026 27,-61.583"/>
<polygon fill="black" stroke="black" points="23.5001,-61.587 27,-71.587 30.5001,-61.587 23.5001,-61.587"/>
</g>
</g>
</svg>
