<?xml version="1.0" encoding="UTF-8" standalone="no"?>
<!DOCTYPE svg PUBLIC "-//W3C//DTD SVG 1.1//EN"
 "http://www.w3.org/Graphics/SVG/1.1/DTD/svg11.dtd">
<!-- Generated by graphviz version 2.39.20160710.1729 (20160710.1729)
 -->
<!-- Title: %3 Pages: 1 -->
<svg width="584pt" height="368pt"
 viewBox="0.00 0.00 584.00 368.00" xmlns="http://www.w3.org/2000/svg" xmlns:xlink="http://www.w3.org/1999/xlink">
<g id="graph0" class="graph" transform="scale(1 1) rotate(0) translate(4 364)">
<title>%3</title>
<polygon fill="white" stroke="transparent" points="-4,4 -4,-364 580,-364 580,4 -4,4"/>
<!-- 0 -->
<g id="node1" class="node">
<title>0</title>
<ellipse fill="black" stroke="black" cx="198" cy="-342" rx="18" ry="18"/>
</g>
<!-- 1 -->
<g id="node2" class="node">
<title>1</title>
<ellipse fill="black" stroke="black" cx="306" cy="-126" rx="18" ry="18"/>
</g>
<!-- 2 -->
<g id="node3" class="node">
<title>2</title>
<ellipse fill="black" stroke="black" cx="414" cy="-18" rx="18" ry="18"/>
</g>
<!-- 3 -->
<g id="node4" class="node">
<title>3</title>
<ellipse fill="black" stroke="black" cx="486" cy="-18" rx="18" ry="18"/>
</g>
<!-- 4 -->
<g id="node5" class="node">
<title>4</title>
<ellipse fill="black" stroke="black" cx="558" cy="-18" rx="18" ry="18"/>
</g>
<!-- 5 -->
<g id="node6" class="node">
<title>5</title>
<ellipse fill="black" stroke="black" cx="270" cy="-18" rx="18" ry="18"/>
</g>
<!-- 5&#45;&gt;1 -->
<g id="edge1" class="edge">
<title>5&#45;&gt;1</title>
<path fill="none" stroke="black" stroke-width="6" d="M275.94,-35.834C281.62,-52.874 290.27,-78.807 296.83,-98.494"/>
<polygon fill="black" stroke="black" stroke-width="6" points="291.904,-100.317 300.05,-108.14 301.863,-96.9921 291.904,-100.317"/>
</g>
<!-- 6 -->
<g id="node7" class="node">
<title>6</title>
<ellipse fill="black" stroke="black" cx="126" cy="-234" rx="18" ry="18"/>
</g>
<!-- 6&#45;&gt;0 -->
<g id="edge2" class="edge">
<title>6&#45;&gt;0</title>
<path fill="none" stroke="black" stroke-width="6" d="M137.25,-250.88C149.03,-268.55 167.67,-296.51 181.2,-316.8"/>
<polygon fill="black" stroke="black" stroke-width="6" points="176.913,-319.834 186.83,-325.24 185.648,-314.008 176.913,-319.834"/>
</g>
<!-- 7 -->
<g id="node8" class="node">
<title>7</title>
<ellipse fill="black" stroke="black" cx="18" cy="-126" rx="18" ry="18"/>
</g>
<!-- 7&#45;&gt;6 -->
<g id="edge3" class="edge">
<title>7&#45;&gt;6</title>
<path fill="none" stroke="black" stroke-width="6" d="M33.017,-141.02C51.291,-159.29 82.317,-190.32 103.46,-211.46"/>
<polygon fill="black" stroke="black" stroke-width="6" points="99.9766,-215.401 110.76,-218.76 107.401,-207.977 99.9766,-215.401"/>
</g>
<!-- 8 -->
<g id="node9" class="node">
<title>8</title>
<ellipse fill="black" stroke="black" cx="342" cy="-18" rx="18" ry="18"/>
</g>
<!-- 8&#45;&gt;1 -->
<g id="edge4" class="edge">
<title>8&#45;&gt;1</title>
<path fill="none" stroke="black" stroke-width="6" d="M336.06,-35.834C330.38,-52.874 321.73,-78.807 315.17,-98.494"/>
<polygon fill="black" stroke="black" stroke-width="6" points="310.137,-96.9921 311.95,-108.14 320.096,-100.317 310.137,-96.9921"/>
</g>
<!-- 9 -->
<g id="node10" class="node">
<title>9</title>
<ellipse fill="black" stroke="black" cx="198" cy="-234" rx="18" ry="18"/>
</g>
<!-- 9&#45;&gt;0 -->
<g id="edge5" class="edge">
<title>9&#45;&gt;0</title>
<path fill="none" stroke="black" stroke-width="6" d="M198,-252.32C198,-269.18 198,-294.43 198,-313.85"/>
<polygon fill="black" stroke="black" stroke-width="6" points="192.75,-313.95 198,-323.95 203.25,-313.95 192.75,-313.95"/>
</g>
<!-- 10 -->
<g id="node11" class="node">
<title>10</title>
<ellipse fill="black" stroke="black" cx="270" cy="-234" rx="18" ry="18"/>
</g>
<!-- 10&#45;&gt;0 -->
<g id="edge6" class="edge">
<title>10&#45;&gt;0</title>
<path fill="none" stroke="black" stroke-width="6" d="M258.75,-250.88C246.97,-268.55 228.33,-296.51 214.8,-316.8"/>
<polygon fill="black" stroke="black" stroke-width="6" points="210.352,-314.008 209.17,-325.24 219.087,-319.834 210.352,-314.008"/>
</g>
<!-- 11 -->
<g id="node12" class="node">
<title>11</title>
<ellipse fill="black" stroke="black" cx="90" cy="-126" rx="18" ry="18"/>
</g>
<!-- 11&#45;&gt;6 -->
<g id="edge7" class="edge">
<title>11&#45;&gt;6</title>
<path fill="none" stroke="black" stroke-width="6" d="M95.94,-143.83C101.62,-160.87 110.27,-186.81 116.83,-206.49"/>
<polygon fill="black" stroke="black" stroke-width="6" points="111.905,-208.316 120.05,-216.14 121.865,-204.992 111.905,-208.316"/>
</g>
<!-- 12 -->
<g id="node13" class="node">
<title>12</title>
<ellipse fill="black" stroke="black" cx="162" cy="-126" rx="18" ry="18"/>
</g>
<!-- 12&#45;&gt;6 -->
<g id="edge8" class="edge">
<title>12&#45;&gt;6</title>
<path fill="none" stroke="black" stroke-width="6" d="M156.06,-143.83C150.38,-160.87 141.73,-186.81 135.17,-206.49"/>
<polygon fill="black" stroke="black" stroke-width="6" points="130.135,-204.992 131.95,-216.14 140.095,-208.316 130.135,-204.992"/>
</g>
<!-- 13 -->
<g id="node14" class="node">
<title>13</title>
<ellipse fill="black" stroke="black" cx="234" cy="-126" rx="18" ry="18"/>
</g>
<!-- 13&#45;&gt;6 -->
<g id="edge9" class="edge">
<title>13&#45;&gt;6</title>
<path fill="none" stroke="black" stroke-width="6" d="M218.98,-141.02C200.71,-159.29 169.68,-190.32 148.54,-211.46"/>
<polygon fill="black" stroke="black" stroke-width="6" points="144.599,-207.977 141.24,-218.76 152.023,-215.401 144.599,-207.977"/>
</g>
<!-- 14 -->
<g id="node15" class="node">
<title>14</title>
<ellipse fill="black" stroke="black" cx="90" cy="-18" rx="18" ry="18"/>
</g>
<!-- 14&#45;&gt;11 -->
<g id="edge10" class="edge">
<title>14&#45;&gt;11</title>
<path fill="none" stroke="black" stroke-width="6" d="M90,-36.321C90,-53.179 90,-78.435 90,-97.853"/>
<polygon fill="black" stroke="black" stroke-width="6" points="84.7501,-97.9499 90,-107.95 95.2501,-97.9501 84.7501,-97.9499"/>
</g>
<!-- 15 -->
<g id="node16" class="node">
<title>15</title>
<ellipse fill="black" stroke="black" cx="162" cy="-18" rx="18" ry="18"/>
</g>
<!-- 15&#45;&gt;12 -->
<g id="edge11" class="edge">
<title>15&#45;&gt;12</title>
<path fill="none" stroke="black" stroke-width="6" d="M162,-36.321C162,-53.179 162,-78.435 162,-97.853"/>
<polygon fill="black" stroke="black" stroke-width="6" points="156.75,-97.9499 162,-107.95 167.25,-97.9501 156.75,-97.9499"/>
</g>
</g>
</svg>
