<?xml version="1.0" encoding="UTF-8" standalone="no"?>
<!DOCTYPE svg PUBLIC "-//W3C//DTD SVG 1.1//EN"
 "http://www.w3.org/Graphics/SVG/1.1/DTD/svg11.dtd">
<!-- Generated by graphviz version 2.39.20160710.1729 (20160710.1729)
 -->
<!-- Title: %3 Pages: 1 -->
<svg width="44pt" height="2204pt"
 viewBox="0.00 0.00 44.00 2204.00" xmlns="http://www.w3.org/2000/svg" xmlns:xlink="http://www.w3.org/1999/xlink">
<g id="graph0" class="graph" transform="scale(1 1) rotate(0) translate(4 2200)">
<title>%3</title>
<polygon fill="white" stroke="transparent" points="-4,4 -4,-2200 40,-2200 40,4 -4,4"/>
<!-- 4 -->
<g id="node1" class="node">
<title>4</title>
<ellipse fill="black" stroke="black" cx="18" cy="-1638" rx="18" ry="18"/>
</g>
<!-- 7 -->
<g id="node2" class="node">
<title>7</title>
<ellipse fill="black" stroke="black" cx="18" cy="-1746" rx="18" ry="18"/>
</g>
<!-- 4&#45;&gt;7 -->
<g id="edge1" class="edge">
<title>4&#45;&gt;7</title>
<path fill="none" stroke="black" stroke-width="6" d="M18,-1656.3C18,-1673.2 18,-1698.4 18,-1717.9"/>
<polygon fill="black" stroke="black" stroke-width="6" points="12.7501,-1717.9 18,-1727.9 23.2501,-1717.9 12.7501,-1717.9"/>
</g>
<!-- 11 -->
<g id="node3" class="node">
<title>11</title>
<ellipse fill="black" stroke="black" cx="18" cy="-1854" rx="18" ry="18"/>
</g>
<!-- 7&#45;&gt;11 -->
<g id="edge2" class="edge">
<title>7&#45;&gt;11</title>
<path fill="none" stroke="black" stroke-width="6" d="M18,-1764.3C18,-1781.2 18,-1806.4 18,-1825.9"/>
<polygon fill="black" stroke="black" stroke-width="6" points="12.7501,-1825.9 18,-1835.9 23.2501,-1825.9 12.7501,-1825.9"/>
</g>
<!-- 31 -->
<g id="node4" class="node">
<title>31</title>
<ellipse fill="black" stroke="black" cx="18" cy="-1962" rx="18" ry="18"/>
</g>
<!-- 11&#45;&gt;31 -->
<g id="edge3" class="edge">
<title>11&#45;&gt;31</title>
<path fill="none" stroke="black" stroke-width="6" d="M18,-1872.3C18,-1889.2 18,-1914.4 18,-1933.9"/>
<polygon fill="black" stroke="black" stroke-width="6" points="12.7501,-1933.9 18,-1943.9 23.2501,-1933.9 12.7501,-1933.9"/>
</g>
<!-- 15 -->
<g id="node13" class="node">
<title>15</title>
<ellipse fill="black" stroke="black" cx="18" cy="-2070" rx="18" ry="18"/>
</g>
<!-- 31&#45;&gt;15 -->
<g id="edge10" class="edge">
<title>31&#45;&gt;15</title>
<path fill="none" stroke="black" stroke-width="6" d="M18,-1980.3C18,-1997.2 18,-2022.4 18,-2041.9"/>
<polygon fill="black" stroke="black" stroke-width="6" points="12.7501,-2041.9 18,-2051.9 23.2501,-2041.9 12.7501,-2041.9"/>
</g>
<!-- 5 -->
<g id="node5" class="node">
<title>5</title>
<ellipse fill="black" stroke="black" cx="18" cy="-18" rx="18" ry="18"/>
</g>
<!-- 23 -->
<g id="node6" class="node">
<title>23</title>
<ellipse fill="black" stroke="black" cx="18" cy="-126" rx="18" ry="18"/>
</g>
<!-- 5&#45;&gt;23 -->
<g id="edge4" class="edge">
<title>5&#45;&gt;23</title>
<path fill="none" stroke="black" stroke-width="6" d="M18,-36.321C18,-53.179 18,-78.435 18,-97.853"/>
<polygon fill="black" stroke="black" stroke-width="6" points="12.7501,-97.9499 18,-107.95 23.2501,-97.9501 12.7501,-97.9499"/>
</g>
<!-- 22 -->
<g id="node7" class="node">
<title>22</title>
<ellipse fill="black" stroke="black" cx="18" cy="-234" rx="18" ry="18"/>
</g>
<!-- 23&#45;&gt;22 -->
<g id="edge5" class="edge">
<title>23&#45;&gt;22</title>
<path fill="none" stroke="black" stroke-width="6" d="M18,-144.32C18,-161.18 18,-186.43 18,-205.85"/>
<polygon fill="black" stroke="black" stroke-width="6" points="12.7501,-205.95 18,-215.95 23.2501,-205.95 12.7501,-205.95"/>
</g>
<!-- 30 -->
<g id="node8" class="node">
<title>30</title>
<ellipse fill="black" stroke="black" cx="18" cy="-342" rx="18" ry="18"/>
</g>
<!-- 22&#45;&gt;30 -->
<g id="edge6" class="edge">
<title>22&#45;&gt;30</title>
<path fill="none" stroke="black" stroke-width="6" d="M18,-252.32C18,-269.18 18,-294.43 18,-313.85"/>
<polygon fill="black" stroke="black" stroke-width="6" points="12.7501,-313.95 18,-323.95 23.2501,-313.95 12.7501,-313.95"/>
</g>
<!-- 13 -->
<g id="node17" class="node">
<title>13</title>
<ellipse fill="black" stroke="black" cx="18" cy="-450" rx="18" ry="18"/>
</g>
<!-- 30&#45;&gt;13 -->
<g id="edge20" class="edge">
<title>30&#45;&gt;13</title>
<path fill="none" stroke="black" stroke-width="6" d="M18,-360.32C18,-377.18 18,-402.43 18,-421.85"/>
<polygon fill="black" stroke="black" stroke-width="6" points="12.7501,-421.95 18,-431.95 23.2501,-421.95 12.7501,-421.95"/>
</g>
<!-- 6 -->
<g id="node9" class="node">
<title>6</title>
<ellipse fill="black" stroke="black" cx="18" cy="-882" rx="18" ry="18"/>
</g>
<!-- 21 -->
<g id="node10" class="node">
<title>21</title>
<ellipse fill="black" stroke="black" cx="18" cy="-990" rx="18" ry="18"/>
</g>
<!-- 6&#45;&gt;21 -->
<g id="edge7" class="edge">
<title>6&#45;&gt;21</title>
<path fill="none" stroke="black" stroke-width="6" d="M18,-900.32C18,-917.18 18,-942.43 18,-961.85"/>
<polygon fill="black" stroke="black" stroke-width="6" points="12.7501,-961.95 18,-971.95 23.2501,-961.95 12.7501,-961.95"/>
</g>
<!-- 27 -->
<g id="node11" class="node">
<title>27</title>
<ellipse fill="black" stroke="black" cx="18" cy="-1098" rx="18" ry="18"/>
</g>
<!-- 21&#45;&gt;27 -->
<g id="edge8" class="edge">
<title>21&#45;&gt;27</title>
<path fill="none" stroke="black" stroke-width="6" d="M18,-1008.3C18,-1025.2 18,-1050.4 18,-1069.9"/>
<polygon fill="black" stroke="black" stroke-width="6" points="12.7501,-1069.9 18,-1079.9 23.2501,-1069.9 12.7501,-1069.9"/>
</g>
<!-- 17 -->
<g id="node12" class="node">
<title>17</title>
<ellipse fill="black" stroke="black" cx="18" cy="-1206" rx="18" ry="18"/>
</g>
<!-- 27&#45;&gt;17 -->
<g id="edge9" class="edge">
<title>27&#45;&gt;17</title>
<path fill="none" stroke="black" stroke-width="6" d="M18,-1116.3C18,-1133.2 18,-1158.4 18,-1177.9"/>
<polygon fill="black" stroke="black" stroke-width="6" points="12.7501,-1177.9 18,-1187.9 23.2501,-1177.9 12.7501,-1177.9"/>
</g>
<!-- 29 -->
<g id="node20" class="node">
<title>29</title>
<ellipse fill="black" stroke="black" cx="18" cy="-1314" rx="18" ry="18"/>
</g>
<!-- 17&#45;&gt;29 -->
<g id="edge17" class="edge">
<title>17&#45;&gt;29</title>
<path fill="none" stroke="black" stroke-width="6" d="M18,-1224.3C18,-1241.2 18,-1266.4 18,-1285.9"/>
<polygon fill="black" stroke="black" stroke-width="6" points="12.7501,-1285.9 18,-1295.9 23.2501,-1285.9 12.7501,-1285.9"/>
</g>
<!-- 26 -->
<g id="node16" class="node">
<title>26</title>
<ellipse fill="black" stroke="black" cx="18" cy="-2178" rx="18" ry="18"/>
</g>
<!-- 15&#45;&gt;26 -->
<g id="edge13" class="edge">
<title>15&#45;&gt;26</title>
<path fill="none" stroke="black" stroke-width="6" d="M18,-2088.3C18,-2105.2 18,-2130.4 18,-2149.9"/>
<polygon fill="black" stroke="black" stroke-width="6" points="12.7501,-2149.9 18,-2159.9 23.2501,-2149.9 12.7501,-2149.9"/>
</g>
<!-- 8 -->
<g id="node14" class="node">
<title>8</title>
<ellipse fill="black" stroke="black" cx="18" cy="-774" rx="18" ry="18"/>
</g>
<!-- 8&#45;&gt;6 -->
<g id="edge11" class="edge">
<title>8&#45;&gt;6</title>
<path fill="none" stroke="black" stroke-width="6" d="M18,-792.32C18,-809.18 18,-834.43 18,-853.85"/>
<polygon fill="black" stroke="black" stroke-width="6" points="12.7501,-853.95 18,-863.95 23.2501,-853.95 12.7501,-853.95"/>
</g>
<!-- 9 -->
<g id="node15" class="node">
<title>9</title>
<ellipse fill="black" stroke="black" cx="18" cy="-1530" rx="18" ry="18"/>
</g>
<!-- 9&#45;&gt;4 -->
<g id="edge12" class="edge">
<title>9&#45;&gt;4</title>
<path fill="none" stroke="black" stroke-width="6" d="M18,-1548.3C18,-1565.2 18,-1590.4 18,-1609.9"/>
<polygon fill="black" stroke="black" stroke-width="6" points="12.7501,-1609.9 18,-1619.9 23.2501,-1609.9 12.7501,-1609.9"/>
</g>
<!-- 25 -->
<g id="node18" class="node">
<title>25</title>
<ellipse fill="black" stroke="black" cx="18" cy="-558" rx="18" ry="18"/>
</g>
<!-- 13&#45;&gt;25 -->
<g id="edge14" class="edge">
<title>13&#45;&gt;25</title>
<path fill="none" stroke="black" stroke-width="6" d="M18,-468.32C18,-485.18 18,-510.43 18,-529.85"/>
<polygon fill="black" stroke="black" stroke-width="6" points="12.7501,-529.95 18,-539.95 23.2501,-529.95 12.7501,-529.95"/>
</g>
<!-- 14 -->
<g id="node19" class="node">
<title>14</title>
<ellipse fill="black" stroke="black" cx="18" cy="-666" rx="18" ry="18"/>
</g>
<!-- 25&#45;&gt;14 -->
<g id="edge15" class="edge">
<title>25&#45;&gt;14</title>
<path fill="none" stroke="black" stroke-width="6" d="M18,-576.32C18,-593.18 18,-618.43 18,-637.85"/>
<polygon fill="black" stroke="black" stroke-width="6" points="12.7501,-637.95 18,-647.95 23.2501,-637.95 12.7501,-637.95"/>
</g>
<!-- 14&#45;&gt;8 -->
<g id="edge16" class="edge">
<title>14&#45;&gt;8</title>
<path fill="none" stroke="black" stroke-width="6" d="M18,-684.32C18,-701.18 18,-726.43 18,-745.85"/>
<polygon fill="black" stroke="black" stroke-width="6" points="12.7501,-745.95 18,-755.95 23.2501,-745.95 12.7501,-745.95"/>
</g>
<!-- 28 -->
<g id="node21" class="node">
<title>28</title>
<ellipse fill="black" stroke="black" cx="18" cy="-1422" rx="18" ry="18"/>
</g>
<!-- 29&#45;&gt;28 -->
<g id="edge18" class="edge">
<title>29&#45;&gt;28</title>
<path fill="none" stroke="black" stroke-width="6" d="M18,-1332.3C18,-1349.2 18,-1374.4 18,-1393.9"/>
<polygon fill="black" stroke="black" stroke-width="6" points="12.7501,-1393.9 18,-1403.9 23.2501,-1393.9 12.7501,-1393.9"/>
</g>
<!-- 28&#45;&gt;9 -->
<g id="edge19" class="edge">
<title>28&#45;&gt;9</title>
<path fill="none" stroke="black" stroke-width="6" d="M18,-1440.3C18,-1457.2 18,-1482.4 18,-1501.9"/>
<polygon fill="black" stroke="black" stroke-width="6" points="12.7501,-1501.9 18,-1511.9 23.2501,-1501.9 12.7501,-1501.9"/>
</g>
</g>
</svg>
