<?xml version="1.0" encoding="UTF-8" standalone="no"?>
<!DOCTYPE svg PUBLIC "-//W3C//DTD SVG 1.1//EN"
 "http://www.w3.org/Graphics/SVG/1.1/DTD/svg11.dtd">
<!-- Generated by graphviz version 2.39.20160710.1729 (20160710.1729)
 -->
<!-- Title: %3 Pages: 1 -->
<svg width="494pt" height="404pt"
 viewBox="0.00 0.00 494.00 404.00" xmlns="http://www.w3.org/2000/svg" xmlns:xlink="http://www.w3.org/1999/xlink">
<g id="graph0" class="graph" transform="scale(1 1) rotate(0) translate(4 400)">
<title>%3</title>
<polygon fill="white" stroke="transparent" points="-4,4 -4,-400 490,-400 490,4 -4,4"/>
<!-- 4 -->
<g id="node1" class="node">
<title>4</title>
<ellipse fill="none" stroke="black" cx="27" cy="-306" rx="27" ry="18"/>
<text text-anchor="middle" x="27" y="-302.3" font-family="Times,serif" font-size="14.00">4</text>
</g>
<!-- 5 -->
<g id="node2" class="node">
<title>5</title>
<ellipse fill="none" stroke="black" cx="207" cy="-378" rx="27" ry="18"/>
<text text-anchor="middle" x="207" y="-374.3" font-family="Times,serif" font-size="14.00">5</text>
</g>
<!-- 4&#45;&gt;5 -->
<g id="edge1" class="edge">
<title>4&#45;&gt;5</title>
<path fill="none" stroke="black" d="M48.528,-317.22C53.252,-319.56 58.26,-321.93 63,-324 99.999,-340.13 143.52,-356.04 172.95,-366.37"/>
<polygon fill="black" stroke="black" points="172.145,-369.796 182.74,-369.78 174.448,-363.185 172.145,-369.796"/>
</g>
<!-- 6 -->
<g id="node3" class="node">
<title>6</title>
<ellipse fill="none" stroke="black" cx="99" cy="-306" rx="27" ry="18"/>
<text text-anchor="middle" x="99" y="-302.3" font-family="Times,serif" font-size="14.00">6</text>
</g>
<!-- 6&#45;&gt;5 -->
<g id="edge2" class="edge">
<title>6&#45;&gt;5</title>
<path fill="none" stroke="black" d="M118.31,-318.87C135.36,-330.24 160.4,-346.93 179.53,-359.69"/>
<polygon fill="black" stroke="black" points="177.597,-362.608 187.86,-365.24 181.479,-356.783 177.597,-362.608"/>
</g>
<!-- 7 -->
<g id="node4" class="node">
<title>7</title>
<ellipse fill="none" stroke="black" cx="171" cy="-162" rx="27" ry="18"/>
<text text-anchor="middle" x="171" y="-158.3" font-family="Times,serif" font-size="14.00">7</text>
</g>
<!-- 13 -->
<g id="node5" class="node">
<title>13</title>
<ellipse fill="none" stroke="black" cx="243" cy="-234" rx="27" ry="18"/>
<text text-anchor="middle" x="243" y="-230.3" font-family="Times,serif" font-size="14.00">13</text>
</g>
<!-- 7&#45;&gt;13 -->
<g id="edge3" class="edge">
<title>7&#45;&gt;13</title>
<path fill="none" stroke="black" d="M186.27,-177.27C196.2,-187.2 209.32,-200.32 220.44,-211.44"/>
<polygon fill="black" stroke="black" points="218.204,-214.154 227.75,-218.75 223.154,-209.204 218.204,-214.154"/>
</g>
<!-- 15 -->
<g id="node6" class="node">
<title>15</title>
<ellipse fill="none" stroke="black" cx="243" cy="-306" rx="27" ry="18"/>
<text text-anchor="middle" x="243" y="-302.3" font-family="Times,serif" font-size="14.00">15</text>
</g>
<!-- 13&#45;&gt;15 -->
<g id="edge4" class="edge">
<title>13&#45;&gt;15</title>
<path fill="none" stroke="black" d="M243,-252.17C243,-259.87 243,-269.03 243,-277.58"/>
<polygon fill="black" stroke="black" points="239.5,-277.59 243,-287.59 246.5,-277.59 239.5,-277.59"/>
</g>
<!-- 15&#45;&gt;5 -->
<g id="edge5" class="edge">
<title>15&#45;&gt;5</title>
<path fill="none" stroke="black" d="M234.29,-323.43C230.04,-331.92 224.85,-342.31 220.13,-351.73"/>
<polygon fill="black" stroke="black" points="216.972,-350.22 215.63,-360.73 223.233,-353.351 216.972,-350.22"/>
</g>
<!-- 8 -->
<g id="node7" class="node">
<title>8</title>
<ellipse fill="none" stroke="black" cx="243" cy="-90" rx="27" ry="18"/>
<text text-anchor="middle" x="243" y="-86.3" font-family="Times,serif" font-size="14.00">8</text>
</g>
<!-- 26 -->
<g id="node8" class="node">
<title>26</title>
<ellipse fill="none" stroke="black" cx="315" cy="-162" rx="27" ry="18"/>
<text text-anchor="middle" x="315" y="-158.3" font-family="Times,serif" font-size="14.00">26</text>
</g>
<!-- 8&#45;&gt;26 -->
<g id="edge6" class="edge">
<title>8&#45;&gt;26</title>
<path fill="none" stroke="black" d="M258.27,-105.27C268.2,-115.2 281.32,-128.32 292.44,-139.44"/>
<polygon fill="black" stroke="black" points="290.204,-142.154 299.75,-146.75 295.154,-137.204 290.204,-142.154"/>
</g>
<!-- 26&#45;&gt;13 -->
<g id="edge7" class="edge">
<title>26&#45;&gt;13</title>
<path fill="none" stroke="black" d="M299.73,-177.27C289.8,-187.2 276.68,-200.32 265.56,-211.44"/>
<polygon fill="black" stroke="black" points="262.846,-209.204 258.25,-218.75 267.796,-214.154 262.846,-209.204"/>
</g>
<!-- 9 -->
<g id="node9" class="node">
<title>9</title>
<ellipse fill="none" stroke="black" cx="315" cy="-18" rx="27" ry="18"/>
<text text-anchor="middle" x="315" y="-14.3" font-family="Times,serif" font-size="14.00">9</text>
</g>
<!-- 27 -->
<g id="node10" class="node">
<title>27</title>
<ellipse fill="none" stroke="black" cx="315" cy="-90" rx="27" ry="18"/>
<text text-anchor="middle" x="315" y="-86.3" font-family="Times,serif" font-size="14.00">27</text>
</g>
<!-- 9&#45;&gt;27 -->
<g id="edge8" class="edge">
<title>9&#45;&gt;27</title>
<path fill="none" stroke="black" d="M315,-36.169C315,-43.869 315,-53.026 315,-61.583"/>
<polygon fill="black" stroke="black" points="311.5,-61.587 315,-71.587 318.5,-61.587 311.5,-61.587"/>
</g>
<!-- 27&#45;&gt;26 -->
<g id="edge9" class="edge">
<title>27&#45;&gt;26</title>
<path fill="none" stroke="black" d="M315,-108.17C315,-115.87 315,-125.03 315,-133.58"/>
<polygon fill="black" stroke="black" points="311.5,-133.59 315,-143.59 318.5,-133.59 311.5,-133.59"/>
</g>
<!-- 11 -->
<g id="node11" class="node">
<title>11</title>
<ellipse fill="none" stroke="black" cx="171" cy="-306" rx="27" ry="18"/>
<text text-anchor="middle" x="171" y="-302.3" font-family="Times,serif" font-size="14.00">11</text>
</g>
<!-- 11&#45;&gt;5 -->
<g id="edge10" class="edge">
<title>11&#45;&gt;5</title>
<path fill="none" stroke="black" d="M179.71,-323.43C183.96,-331.92 189.15,-342.31 193.87,-351.73"/>
<polygon fill="black" stroke="black" points="190.767,-353.351 198.37,-360.73 197.028,-350.22 190.767,-353.351"/>
</g>
<!-- 14 -->
<g id="node12" class="node">
<title>14</title>
<ellipse fill="none" stroke="black" cx="315" cy="-306" rx="27" ry="18"/>
<text text-anchor="middle" x="315" y="-302.3" font-family="Times,serif" font-size="14.00">14</text>
</g>
<!-- 14&#45;&gt;5 -->
<g id="edge11" class="edge">
<title>14&#45;&gt;5</title>
<path fill="none" stroke="black" d="M295.69,-318.87C278.64,-330.24 253.6,-346.93 234.47,-359.69"/>
<polygon fill="black" stroke="black" points="232.521,-356.783 226.14,-365.24 236.403,-362.608 232.521,-356.783"/>
</g>
<!-- 17 -->
<g id="node13" class="node">
<title>17</title>
<ellipse fill="none" stroke="black" cx="387" cy="-306" rx="27" ry="18"/>
<text text-anchor="middle" x="387" y="-302.3" font-family="Times,serif" font-size="14.00">17</text>
</g>
<!-- 17&#45;&gt;5 -->
<g id="edge12" class="edge">
<title>17&#45;&gt;5</title>
<path fill="none" stroke="black" d="M365.47,-317.22C360.75,-319.56 355.74,-321.93 351,-324 314,-340.13 270.48,-356.04 241.05,-366.37"/>
<polygon fill="black" stroke="black" points="239.552,-363.185 231.26,-369.78 241.855,-369.796 239.552,-363.185"/>
</g>
<!-- 21 -->
<g id="node14" class="node">
<title>21</title>
<ellipse fill="none" stroke="black" cx="99" cy="-90" rx="27" ry="18"/>
<text text-anchor="middle" x="99" y="-86.3" font-family="Times,serif" font-size="14.00">21</text>
</g>
<!-- 21&#45;&gt;7 -->
<g id="edge13" class="edge">
<title>21&#45;&gt;7</title>
<path fill="none" stroke="black" d="M114.27,-105.27C124.2,-115.2 137.32,-128.32 148.44,-139.44"/>
<polygon fill="black" stroke="black" points="146.204,-142.154 155.75,-146.75 151.154,-137.204 146.204,-142.154"/>
</g>
<!-- 22 -->
<g id="node15" class="node">
<title>22</title>
<ellipse fill="none" stroke="black" cx="171" cy="-234" rx="27" ry="18"/>
<text text-anchor="middle" x="171" y="-230.3" font-family="Times,serif" font-size="14.00">22</text>
</g>
<!-- 22&#45;&gt;11 -->
<g id="edge14" class="edge">
<title>22&#45;&gt;11</title>
<path fill="none" stroke="black" d="M171,-252.17C171,-259.87 171,-269.03 171,-277.58"/>
<polygon fill="black" stroke="black" points="167.5,-277.59 171,-287.59 174.5,-277.59 167.5,-277.59"/>
</g>
<!-- 23 -->
<g id="node16" class="node">
<title>23</title>
<ellipse fill="none" stroke="black" cx="315" cy="-234" rx="27" ry="18"/>
<text text-anchor="middle" x="315" y="-230.3" font-family="Times,serif" font-size="14.00">23</text>
</g>
<!-- 23&#45;&gt;15 -->
<g id="edge15" class="edge">
<title>23&#45;&gt;15</title>
<path fill="none" stroke="black" d="M299.73,-249.27C289.8,-259.2 276.68,-272.32 265.56,-283.44"/>
<polygon fill="black" stroke="black" points="262.846,-281.204 258.25,-290.75 267.796,-286.154 262.846,-281.204"/>
</g>
<!-- 25 -->
<g id="node17" class="node">
<title>25</title>
<ellipse fill="none" stroke="black" cx="171" cy="-90" rx="27" ry="18"/>
<text text-anchor="middle" x="171" y="-86.3" font-family="Times,serif" font-size="14.00">25</text>
</g>
<!-- 25&#45;&gt;7 -->
<g id="edge16" class="edge">
<title>25&#45;&gt;7</title>
<path fill="none" stroke="black" d="M171,-108.17C171,-115.87 171,-125.03 171,-133.58"/>
<polygon fill="black" stroke="black" points="167.5,-133.59 171,-143.59 174.5,-133.59 167.5,-133.59"/>
</g>
<!-- 28 -->
<g id="node18" class="node">
<title>28</title>
<ellipse fill="none" stroke="black" cx="171" cy="-18" rx="27" ry="18"/>
<text text-anchor="middle" x="171" y="-14.3" font-family="Times,serif" font-size="14.00">28</text>
</g>
<!-- 28&#45;&gt;25 -->
<g id="edge17" class="edge">
<title>28&#45;&gt;25</title>
<path fill="none" stroke="black" d="M171,-36.169C171,-43.869 171,-53.026 171,-61.583"/>
<polygon fill="black" stroke="black" points="167.5,-61.587 171,-71.587 174.5,-61.587 167.5,-61.587"/>
</g>
<!-- 29 -->
<g id="node19" class="node">
<title>29</title>
<ellipse fill="none" stroke="black" cx="387" cy="-90" rx="27" ry="18"/>
<text text-anchor="middle" x="387" y="-86.3" font-family="Times,serif" font-size="14.00">29</text>
</g>
<!-- 29&#45;&gt;26 -->
<g id="edge18" class="edge">
<title>29&#45;&gt;26</title>
<path fill="none" stroke="black" d="M371.73,-105.27C361.8,-115.2 348.68,-128.32 337.56,-139.44"/>
<polygon fill="black" stroke="black" points="334.846,-137.204 330.25,-146.75 339.796,-142.154 334.846,-137.204"/>
</g>
<!-- 30 -->
<g id="node20" class="node">
<title>30</title>
<ellipse fill="none" stroke="black" cx="459" cy="-90" rx="27" ry="18"/>
<text text-anchor="middle" x="459" y="-86.3" font-family="Times,serif" font-size="14.00">30</text>
</g>
<!-- 30&#45;&gt;26 -->
<g id="edge19" class="edge">
<title>30&#45;&gt;26</title>
<path fill="none" stroke="black" d="M437.13,-100.94C412.78,-113.11 373.24,-132.88 345.77,-146.61"/>
<polygon fill="black" stroke="black" points="343.976,-143.594 336.6,-151.2 347.109,-149.854 343.976,-143.594"/>
</g>
<!-- 31 -->
<g id="node21" class="node">
<title>31</title>
<ellipse fill="none" stroke="black" cx="459" cy="-18" rx="27" ry="18"/>
<text text-anchor="middle" x="459" y="-14.3" font-family="Times,serif" font-size="14.00">31</text>
</g>
<!-- 31&#45;&gt;30 -->
<g id="edge20" class="edge">
<title>31&#45;&gt;30</title>
<path fill="none" stroke="black" d="M459,-36.169C459,-43.869 459,-53.026 459,-61.583"/>
<polygon fill="black" stroke="black" points="455.5,-61.587 459,-71.587 462.5,-61.587 455.5,-61.587"/>
</g>
</g>
</svg>
