<?xml version="1.0" encoding="UTF-8" standalone="no"?>
<!DOCTYPE svg PUBLIC "-//W3C//DTD SVG 1.1//EN"
 "http://www.w3.org/Graphics/SVG/1.1/DTD/svg11.dtd">
<!-- Generated by graphviz version 2.39.20160710.1729 (20160710.1729)
 -->
<!-- Title: %3 Pages: 1 -->
<svg width="476pt" height="584pt"
 viewBox="0.00 0.00 476.00 584.00" xmlns="http://www.w3.org/2000/svg" xmlns:xlink="http://www.w3.org/1999/xlink">
<g id="graph0" class="graph" transform="scale(1 1) rotate(0) translate(4 580)">
<title>%3</title>
<polygon fill="white" stroke="transparent" points="-4,4 -4,-580 472,-580 472,4 -4,4"/>
<!-- 4 -->
<g id="node1" class="node">
<title>4</title>
<ellipse fill="black" stroke="black" cx="18" cy="-450" rx="18" ry="18"/>
</g>
<!-- 5 -->
<g id="node2" class="node">
<title>5</title>
<ellipse fill="black" stroke="black" cx="198" cy="-558" rx="18" ry="18"/>
</g>
<!-- 4&#45;&gt;5 -->
<g id="edge1" class="edge">
<title>4&#45;&gt;5</title>
<path fill="none" stroke="black" stroke-width="6" d="M38.298,-462.18C70.253,-481.35 132.41,-518.65 169.05,-540.63"/>
<polygon fill="black" stroke="black" stroke-width="6" points="166.504,-545.225 177.78,-545.87 171.908,-536.222 166.504,-545.225"/>
</g>
<!-- 6 -->
<g id="node3" class="node">
<title>6</title>
<ellipse fill="black" stroke="black" cx="90" cy="-450" rx="18" ry="18"/>
</g>
<!-- 6&#45;&gt;5 -->
<g id="edge2" class="edge">
<title>6&#45;&gt;5</title>
<path fill="none" stroke="black" stroke-width="6" d="M105.02,-465.02C123.29,-483.29 154.32,-514.32 175.46,-535.46"/>
<polygon fill="black" stroke="black" stroke-width="6" points="171.977,-539.401 182.76,-542.76 179.401,-531.977 171.977,-539.401"/>
</g>
<!-- 7 -->
<g id="node4" class="node">
<title>7</title>
<ellipse fill="black" stroke="black" cx="162" cy="-234" rx="18" ry="18"/>
</g>
<!-- 13 -->
<g id="node5" class="node">
<title>13</title>
<ellipse fill="black" stroke="black" cx="234" cy="-342" rx="18" ry="18"/>
</g>
<!-- 7&#45;&gt;13 -->
<g id="edge3" class="edge">
<title>7&#45;&gt;13</title>
<path fill="none" stroke="black" stroke-width="6" d="M173.25,-250.88C185.03,-268.55 203.67,-296.51 217.2,-316.8"/>
<polygon fill="black" stroke="black" stroke-width="6" points="212.913,-319.834 222.83,-325.24 221.648,-314.008 212.913,-319.834"/>
</g>
<!-- 15 -->
<g id="node6" class="node">
<title>15</title>
<ellipse fill="black" stroke="black" cx="234" cy="-450" rx="18" ry="18"/>
</g>
<!-- 13&#45;&gt;15 -->
<g id="edge4" class="edge">
<title>13&#45;&gt;15</title>
<path fill="none" stroke="black" stroke-width="6" d="M234,-360.32C234,-377.18 234,-402.43 234,-421.85"/>
<polygon fill="black" stroke="black" stroke-width="6" points="228.75,-421.95 234,-431.95 239.25,-421.95 228.75,-421.95"/>
</g>
<!-- 15&#45;&gt;5 -->
<g id="edge5" class="edge">
<title>15&#45;&gt;5</title>
<path fill="none" stroke="black" stroke-width="6" d="M228.06,-467.83C222.38,-484.87 213.73,-510.81 207.17,-530.49"/>
<polygon fill="black" stroke="black" stroke-width="6" points="202.135,-528.992 203.95,-540.14 212.095,-532.316 202.135,-528.992"/>
</g>
<!-- 8 -->
<g id="node7" class="node">
<title>8</title>
<ellipse fill="black" stroke="black" cx="234" cy="-126" rx="18" ry="18"/>
</g>
<!-- 26 -->
<g id="node8" class="node">
<title>26</title>
<ellipse fill="black" stroke="black" cx="306" cy="-234" rx="18" ry="18"/>
</g>
<!-- 8&#45;&gt;26 -->
<g id="edge6" class="edge">
<title>8&#45;&gt;26</title>
<path fill="none" stroke="black" stroke-width="6" d="M245.25,-142.88C257.03,-160.55 275.67,-188.51 289.2,-208.8"/>
<polygon fill="black" stroke="black" stroke-width="6" points="284.913,-211.834 294.83,-217.24 293.648,-206.008 284.913,-211.834"/>
</g>
<!-- 26&#45;&gt;13 -->
<g id="edge7" class="edge">
<title>26&#45;&gt;13</title>
<path fill="none" stroke="black" stroke-width="6" d="M294.75,-250.88C282.97,-268.55 264.33,-296.51 250.8,-316.8"/>
<polygon fill="black" stroke="black" stroke-width="6" points="246.352,-314.008 245.17,-325.24 255.087,-319.834 246.352,-314.008"/>
</g>
<!-- 9 -->
<g id="node9" class="node">
<title>9</title>
<ellipse fill="black" stroke="black" cx="306" cy="-18" rx="18" ry="18"/>
</g>
<!-- 27 -->
<g id="node10" class="node">
<title>27</title>
<ellipse fill="black" stroke="black" cx="306" cy="-126" rx="18" ry="18"/>
</g>
<!-- 9&#45;&gt;27 -->
<g id="edge8" class="edge">
<title>9&#45;&gt;27</title>
<path fill="none" stroke="black" stroke-width="6" d="M306,-36.321C306,-53.179 306,-78.435 306,-97.853"/>
<polygon fill="black" stroke="black" stroke-width="6" points="300.75,-97.9499 306,-107.95 311.25,-97.9501 300.75,-97.9499"/>
</g>
<!-- 27&#45;&gt;26 -->
<g id="edge9" class="edge">
<title>27&#45;&gt;26</title>
<path fill="none" stroke="black" stroke-width="6" d="M306,-144.32C306,-161.18 306,-186.43 306,-205.85"/>
<polygon fill="black" stroke="black" stroke-width="6" points="300.75,-205.95 306,-215.95 311.25,-205.95 300.75,-205.95"/>
</g>
<!-- 11 -->
<g id="node11" class="node">
<title>11</title>
<ellipse fill="black" stroke="black" cx="162" cy="-450" rx="18" ry="18"/>
</g>
<!-- 11&#45;&gt;5 -->
<g id="edge10" class="edge">
<title>11&#45;&gt;5</title>
<path fill="none" stroke="black" stroke-width="6" d="M167.94,-467.83C173.62,-484.87 182.27,-510.81 188.83,-530.49"/>
<polygon fill="black" stroke="black" stroke-width="6" points="183.905,-532.316 192.05,-540.14 193.865,-528.992 183.905,-532.316"/>
</g>
<!-- 14 -->
<g id="node12" class="node">
<title>14</title>
<ellipse fill="black" stroke="black" cx="306" cy="-450" rx="18" ry="18"/>
</g>
<!-- 14&#45;&gt;5 -->
<g id="edge11" class="edge">
<title>14&#45;&gt;5</title>
<path fill="none" stroke="black" stroke-width="6" d="M290.98,-465.02C272.71,-483.29 241.68,-514.32 220.54,-535.46"/>
<polygon fill="black" stroke="black" stroke-width="6" points="216.599,-531.977 213.24,-542.76 224.023,-539.401 216.599,-531.977"/>
</g>
<!-- 17 -->
<g id="node13" class="node">
<title>17</title>
<ellipse fill="black" stroke="black" cx="378" cy="-450" rx="18" ry="18"/>
</g>
<!-- 17&#45;&gt;5 -->
<g id="edge12" class="edge">
<title>17&#45;&gt;5</title>
<path fill="none" stroke="black" stroke-width="6" d="M357.7,-462.18C325.75,-481.35 263.59,-518.65 226.95,-540.63"/>
<polygon fill="black" stroke="black" stroke-width="6" points="224.092,-536.222 218.22,-545.87 229.496,-545.225 224.092,-536.222"/>
</g>
<!-- 21 -->
<g id="node14" class="node">
<title>21</title>
<ellipse fill="black" stroke="black" cx="90" cy="-126" rx="18" ry="18"/>
</g>
<!-- 21&#45;&gt;7 -->
<g id="edge13" class="edge">
<title>21&#45;&gt;7</title>
<path fill="none" stroke="black" stroke-width="6" d="M101.25,-142.88C113.03,-160.55 131.67,-188.51 145.2,-208.8"/>
<polygon fill="black" stroke="black" stroke-width="6" points="140.913,-211.834 150.83,-217.24 149.648,-206.008 140.913,-211.834"/>
</g>
<!-- 22 -->
<g id="node15" class="node">
<title>22</title>
<ellipse fill="black" stroke="black" cx="162" cy="-342" rx="18" ry="18"/>
</g>
<!-- 22&#45;&gt;11 -->
<g id="edge14" class="edge">
<title>22&#45;&gt;11</title>
<path fill="none" stroke="black" stroke-width="6" d="M162,-360.32C162,-377.18 162,-402.43 162,-421.85"/>
<polygon fill="black" stroke="black" stroke-width="6" points="156.75,-421.95 162,-431.95 167.25,-421.95 156.75,-421.95"/>
</g>
<!-- 23 -->
<g id="node16" class="node">
<title>23</title>
<ellipse fill="black" stroke="black" cx="306" cy="-342" rx="18" ry="18"/>
</g>
<!-- 23&#45;&gt;15 -->
<g id="edge15" class="edge">
<title>23&#45;&gt;15</title>
<path fill="none" stroke="black" stroke-width="6" d="M294.75,-358.88C282.97,-376.55 264.33,-404.51 250.8,-424.8"/>
<polygon fill="black" stroke="black" stroke-width="6" points="246.352,-422.008 245.17,-433.24 255.087,-427.834 246.352,-422.008"/>
</g>
<!-- 25 -->
<g id="node17" class="node">
<title>25</title>
<ellipse fill="black" stroke="black" cx="162" cy="-126" rx="18" ry="18"/>
</g>
<!-- 25&#45;&gt;7 -->
<g id="edge16" class="edge">
<title>25&#45;&gt;7</title>
<path fill="none" stroke="black" stroke-width="6" d="M162,-144.32C162,-161.18 162,-186.43 162,-205.85"/>
<polygon fill="black" stroke="black" stroke-width="6" points="156.75,-205.95 162,-215.95 167.25,-205.95 156.75,-205.95"/>
</g>
<!-- 28 -->
<g id="node18" class="node">
<title>28</title>
<ellipse fill="black" stroke="black" cx="162" cy="-18" rx="18" ry="18"/>
</g>
<!-- 28&#45;&gt;25 -->
<g id="edge17" class="edge">
<title>28&#45;&gt;25</title>
<path fill="none" stroke="black" stroke-width="6" d="M162,-36.321C162,-53.179 162,-78.435 162,-97.853"/>
<polygon fill="black" stroke="black" stroke-width="6" points="156.75,-97.9499 162,-107.95 167.25,-97.9501 156.75,-97.9499"/>
</g>
<!-- 29 -->
<g id="node19" class="node">
<title>29</title>
<ellipse fill="black" stroke="black" cx="378" cy="-126" rx="18" ry="18"/>
</g>
<!-- 29&#45;&gt;26 -->
<g id="edge18" class="edge">
<title>29&#45;&gt;26</title>
<path fill="none" stroke="black" stroke-width="6" d="M366.75,-142.88C354.97,-160.55 336.33,-188.51 322.8,-208.8"/>
<polygon fill="black" stroke="black" stroke-width="6" points="318.352,-206.008 317.17,-217.24 327.087,-211.834 318.352,-206.008"/>
</g>
<!-- 30 -->
<g id="node20" class="node">
<title>30</title>
<ellipse fill="black" stroke="black" cx="450" cy="-126" rx="18" ry="18"/>
</g>
<!-- 30&#45;&gt;26 -->
<g id="edge19" class="edge">
<title>30&#45;&gt;26</title>
<path fill="none" stroke="black" stroke-width="6" d="M432.05,-139.46C406.94,-158.3 361.14,-192.64 332.21,-214.34"/>
<polygon fill="black" stroke="black" stroke-width="6" points="329.02,-210.17 324.17,-220.37 335.32,-218.57 329.02,-210.17"/>
</g>
<!-- 31 -->
<g id="node21" class="node">
<title>31</title>
<ellipse fill="black" stroke="black" cx="450" cy="-18" rx="18" ry="18"/>
</g>
<!-- 31&#45;&gt;30 -->
<g id="edge20" class="edge">
<title>31&#45;&gt;30</title>
<path fill="none" stroke="black" stroke-width="6" d="M450,-36.321C450,-53.179 450,-78.435 450,-97.853"/>
<polygon fill="black" stroke="black" stroke-width="6" points="444.75,-97.9499 450,-107.95 455.25,-97.9501 444.75,-97.9499"/>
</g>
</g>
</svg>
